<svg width="400" height="53" viewBox="0 0 400 53" fill="none" xmlns="http://www.w3.org/2000/svg">
<path d="M357.653 0.349121V43.3678C357.653 44.3306 358.346 45.0761 359.241 45.0761H363.109C364.004 45.0761 364.697 45.8215 364.697 46.7844V50.8223C364.697 51.7851 365.389 52.5306 366.284 52.5306H391.369C392.264 52.5306 392.957 51.7851 392.957 50.8223V46.7844C392.957 45.8215 393.649 45.0761 394.544 45.0761H398.412C399.307 45.0761 400 44.3306 400 43.3678V37.6216H392.928V43.3678C392.928 44.3306 392.235 45.0761 391.34 45.0761H366.255C365.36 45.0761 364.668 44.3306 364.668 43.3678V0.349121H357.595H357.653ZM298.073 52.5306H314.152C315.047 52.5306 315.739 51.7851 315.739 50.8223V46.7844C315.739 45.8215 316.432 45.0761 317.327 45.0761H321.195C322.09 45.0761 322.783 45.8215 322.783 46.7844V50.8223C322.783 51.7851 323.475 52.5306 324.37 52.5306H340.449V45.0761H324.37C323.475 45.0761 322.783 44.3306 322.783 43.3678V9.51194C322.783 8.54906 323.475 7.80361 324.37 7.80361H340.449V0.349121H324.37C323.475 0.349121 322.783 1.09457 322.783 2.05744V6.09529C322.783 7.05817 322.09 7.80361 321.195 7.80361H317.327C316.432 7.80361 315.739 7.05817 315.739 6.09529V2.05744C315.739 1.09457 315.047 0.349121 314.152 0.349121H298.073V7.80361H314.152C315.047 7.80361 315.739 8.54906 315.739 9.51194V43.3678C315.739 44.3306 315.047 45.0761 314.152 45.0761H298.073V52.5306ZM279.31 7.80361H275.442C274.547 7.80361 273.854 7.05817 273.854 6.09529V2.05744C273.854 1.09457 273.162 0.349121 272.267 0.349121H247.182C246.287 0.349121 245.594 1.09457 245.594 2.05744V6.09529C245.594 7.05817 244.901 7.80361 244.007 7.80361H240.139C239.244 7.80361 238.551 8.54906 238.551 9.51194V43.3678C238.551 44.3306 239.244 45.0761 240.139 45.0761H244.007C244.901 45.0761 245.594 45.8215 245.594 46.7844V50.8223C245.594 51.7851 246.287 52.5306 247.182 52.5306H272.267C273.162 52.5306 273.854 51.7851 273.854 50.8223V46.7844C273.854 45.8215 274.547 45.0761 275.442 45.0761H279.31C280.205 45.0761 280.898 44.3306 280.898 43.3678V37.6216H273.825V43.3678C273.825 44.3306 273.133 45.0761 272.238 45.0761H247.153C246.258 45.0761 245.565 44.3306 245.565 43.3678V9.51194C245.565 8.54906 246.258 7.80361 247.153 7.80361H272.238C273.133 7.80361 273.825 8.54906 273.825 9.51194V15.2581H280.898V9.51194C280.898 8.54906 280.205 7.80361 279.31 7.80361ZM214.274 30.1671H221.347V0.349121H214.274V30.1671ZM178.942 52.5306H186.014V15.2581H178.942V52.5306ZM180.53 7.80361H184.398C185.293 7.80361 185.985 8.54906 185.985 9.51194V13.5498C185.985 14.5127 186.678 15.2581 187.573 15.2581H191.441C192.336 15.2581 193.029 16.0036 193.029 16.9664V21.0043C193.029 21.9672 193.722 22.7126 194.616 22.7126H198.485C199.379 22.7126 200.072 23.458 200.072 24.4209V28.4588C200.072 29.4216 200.765 30.1671 201.66 30.1671H205.528C206.423 30.1671 207.116 30.9125 207.116 31.8754V35.9133C207.116 36.8761 207.808 37.6216 208.703 37.6216H212.571C213.466 37.6216 214.159 38.367 214.159 39.3299V52.5306H221.231V39.3299C221.231 38.367 220.538 37.6216 219.643 37.6216H215.775C214.881 37.6216 214.188 36.8761 214.188 35.9133V31.8754C214.188 30.9125 213.495 30.1671 212.6 30.1671H208.732C207.837 30.1671 207.144 29.4216 207.144 28.4588V24.4209C207.144 23.458 206.452 22.7126 205.557 22.7126H201.689C200.794 22.7126 200.101 21.9672 200.101 21.0043V16.9664C200.101 16.0036 199.408 15.2581 198.513 15.2581H194.645C193.75 15.2581 193.058 14.5127 193.058 13.5498V9.51194C193.058 8.54906 192.365 7.80361 191.47 7.80361H187.602C186.707 7.80361 186.014 7.05817 186.014 6.09529V2.05744C186.014 1.09457 185.321 0.349121 184.427 0.349121H180.559C179.664 0.349121 178.971 1.09457 178.971 2.05744V6.09529C178.971 7.05817 179.664 7.80361 180.559 7.80361M120.834 45.0761H124.702C125.597 45.0761 126.29 45.8215 126.29 46.7844V50.8223C126.29 51.7851 126.983 52.5306 127.878 52.5306H152.962C153.857 52.5306 154.55 51.7851 154.55 50.8223V46.7844C154.55 45.8215 155.243 45.0761 156.138 45.0761H160.006C160.901 45.0761 161.593 44.3306 161.593 43.3678V0.349121H154.521V43.3678C154.521 44.3306 153.828 45.0761 152.934 45.0761H127.849C126.954 45.0761 126.261 44.3306 126.261 43.3678V0.349121H119.189V43.3678C119.189 44.3306 119.882 45.0761 120.776 45.0761M66.6234 43.3678V9.51194C66.6234 8.54906 67.3161 7.80361 68.211 7.80361H93.2958C94.1907 7.80361 94.8834 8.54906 94.8834 9.51194V43.3678C94.8834 44.3306 94.1907 45.0761 93.2958 45.0761H68.211C67.3161 45.0761 66.6234 44.3306 66.6234 43.3678ZM68.211 52.5306H93.2958C94.1907 52.5306 94.8834 51.7851 94.8834 50.8223V46.7844C94.8834 45.8215 95.5762 45.0761 96.4711 45.0761H100.339C101.234 45.0761 101.927 44.3306 101.927 43.3678V9.51194C101.927 8.54906 101.234 7.80361 100.339 7.80361H96.4711C95.5762 7.80361 94.8834 7.05817 94.8834 6.09529V2.05744C94.8834 1.09457 94.1907 0.349121 93.2958 0.349121H68.211C67.3161 0.349121 66.6234 1.09457 66.6234 2.05744V6.09529C66.6234 7.05817 65.9306 7.80361 65.0357 7.80361H61.1676C60.2728 7.80361 59.58 8.54906 59.58 9.51194V43.3678C59.58 44.3306 60.2728 45.0761 61.1676 45.0761H65.0357C65.9306 45.0761 66.6234 45.8215 66.6234 46.7844V50.8223C66.6234 51.7851 67.3161 52.5306 68.211 52.5306ZM40.8169 7.80361H36.9488C36.054 7.80361 35.3612 7.05817 35.3612 6.09529V2.05744C35.3612 1.09457 34.6684 0.349121 33.7735 0.349121H8.65988C7.76503 0.349121 7.07224 1.09457 7.07224 2.05744V6.09529C7.07224 7.05817 6.37945 7.80361 5.48459 7.80361H1.58765C0.692791 7.80361 0 8.54906 0 9.51194V43.3678C0 44.3306 0.692791 45.0761 1.58765 45.0761H5.45573C6.35058 45.0761 7.04337 45.8215 7.04337 46.7844V50.8223C7.04337 51.7851 7.73616 52.5306 8.63102 52.5306H33.7158C34.6107 52.5306 35.3035 51.7851 35.3035 50.8223V46.7844C35.3035 45.8215 35.9962 45.0761 36.8911 45.0761H40.7592C41.654 45.0761 42.3468 44.3306 42.3468 43.3678V37.6216H35.2746V43.3678C35.2746 44.3306 34.5818 45.0761 33.6869 45.0761H8.65988C7.76503 45.0761 7.07224 44.3306 7.07224 43.3678V9.51194C7.07224 8.54906 7.76503 7.80361 8.65988 7.80361H33.7447C34.6395 7.80361 35.3323 8.54906 35.3323 9.51194V15.2581H42.4046V9.51194C42.4046 8.54906 41.7118 7.80361 40.8169 7.80361Z" fill="white"/>
</svg>
