<svg width="33" height="68" viewBox="0 0 33 68" fill="none" xmlns="http://www.w3.org/2000/svg">
<path d="M0.231429 10.5847C0.275673 10.0383 0.318215 9.51967 0.362458 8.99926C0.372669 8.87824 0.389685 8.75722 0.403299 8.63792C0.268866 8.631 0.134433 8.62236 0 8.61544V8.89034C0.0255252 9.00791 0.0714707 9.12548 0.0731724 9.24477C0.0799791 10.009 0.0765757 10.7731 0.0765757 11.6255C0.137836 11.4094 0.173572 11.2797 0.211009 11.15C0.231429 11.1535 0.251849 11.157 0.272269 11.1621V14.2154C0.37437 13.4564 0.422017 12.6957 0.47477 11.9367C0.49519 11.6532 0.456051 11.335 0.570064 11.093C0.750442 10.7074 0.598992 10.6106 0.231429 10.5881V10.5847Z" fill="white"/>
<path d="M14.774 62.9399C14.3316 62.1152 13.8959 61.287 13.4654 60.4572C13.4331 60.3932 13.4246 60.2532 13.462 60.2255C13.7122 60.0336 13.6611 59.8866 13.4297 59.7293C13.3582 59.6809 13.3055 59.5962 13.2629 59.5166C12.8341 58.7352 12.4138 57.9502 11.9798 57.1722C11.7586 56.7746 11.517 56.3873 11.2856 55.9965C11.2736 56.0035 11.2617 56.0121 11.2515 56.019C11.8029 57.2535 12.344 58.4914 12.909 59.7189C13.3259 60.6249 13.7819 61.5118 14.2022 62.4143C14.3554 62.7463 14.4473 63.1059 14.5868 63.4465C14.6192 63.5243 14.7196 63.6021 14.8012 63.6228C14.8676 63.6384 15.0088 63.5779 15.0208 63.5295C15.0463 63.4188 15.0378 63.2822 14.9935 63.1785C14.9544 63.0851 14.8234 63.0333 14.774 62.9399Z" fill="white"/>
<path d="M7.61843 65.7805C7.52484 65.4226 7.42785 65.0647 7.32234 64.7086C7.27469 64.5461 7.18961 64.3939 7.14196 64.2314C6.97179 63.6332 6.80333 63.035 6.65698 62.4316C6.63486 62.3382 6.70293 62.1653 6.78121 62.1135C6.9752 61.9873 6.98711 61.8731 6.85438 61.7003C6.79652 61.6259 6.75398 61.5326 6.72675 61.4426C6.37961 60.2601 6.03587 59.0758 5.69213 57.8932L5.64959 57.9001C5.66831 58.0557 5.67511 58.213 5.70744 58.3669C5.87421 59.1466 6.05629 59.9212 6.21284 60.7027C6.29963 61.1349 6.32005 61.5827 6.42385 62.0097C6.66549 63.0073 6.82375 64.0222 7.20152 64.9939C7.39721 65.4952 7.30873 66.109 7.36488 66.6692C7.37509 66.7781 7.43465 66.9164 7.51803 66.97C7.57759 67.008 7.75967 66.9596 7.79881 66.8957C7.84646 66.8161 7.81753 66.6761 7.79711 66.5672C7.74606 66.3044 7.6848 66.0416 7.61843 65.7822V65.7805Z" fill="white"/>
<path d="M23.1939 48.7921C23.9903 49.4284 24.8241 49.9885 25.6495 50.5643C25.9302 50.7596 26.1821 50.9965 26.4544 51.204C26.5429 51.2714 26.6637 51.3527 26.7556 51.3371C26.8338 51.3233 26.9615 51.1573 26.9427 51.1002C26.9087 50.993 26.7981 50.891 26.6943 50.8288C26.5445 50.7389 26.3608 50.706 26.2127 50.6161C25.7056 50.3101 25.2087 49.9885 24.7067 49.6721C24.4294 49.4975 24.1503 49.3212 23.9172 49.1742C24.0073 48.9979 24.1299 48.8613 24.1162 48.742C24.1077 48.6659 23.8984 48.6106 23.7793 48.5484C23.701 48.5069 23.616 48.4757 23.5394 48.4308C22.5592 47.8481 21.579 47.2638 20.5989 46.6794C20.5512 46.65 20.4985 46.6275 20.4474 46.6085C20.3981 46.5912 20.347 46.5808 20.2432 46.5532C21.4106 47.4211 22.6545 48.0591 23.7572 48.9062C23.7334 48.9391 23.7095 48.9737 23.684 49.0065C23.5207 48.9356 23.359 48.8647 23.1956 48.7939L23.1939 48.7921Z" fill="white"/>
<path d="M18.2931 55.3551C18.6998 55.1788 18.7594 55.0284 18.5841 54.8658C18.1978 54.5097 17.8149 54.1501 17.4491 53.7732C16.8994 53.2043 16.3668 52.62 15.8257 52.0425C15.7984 52.0667 15.7712 52.0909 15.7423 52.1151C16.3957 52.8793 17.0509 53.6435 17.7043 54.4094C17.6771 54.4371 17.6499 54.463 17.6209 54.4907C17.4133 54.2936 17.2057 54.0965 16.9981 53.8994C17.0407 54.0584 17.1257 54.176 17.2074 54.2953C17.7622 55.1096 18.5466 55.7459 18.9823 56.6553C19.0163 56.7244 19.1729 56.7746 19.263 56.7625C19.3379 56.7521 19.4434 56.6449 19.457 56.5671C19.4707 56.4945 19.3975 56.3838 19.3328 56.3216C19.0061 56.0069 18.6709 55.7044 18.2914 55.3534L18.2931 55.3551Z" fill="white"/>
<path d="M26.3318 42.5127C26.6194 42.2966 26.844 42.4539 27.0721 42.5421C27.6609 42.7703 28.236 43.0331 28.8214 43.27C28.8946 43.2993 29.0307 43.2872 29.0801 43.2371C29.1447 43.1697 29.2077 43.0158 29.1737 42.9536C29.126 42.8637 28.9967 42.8014 28.8895 42.7668C28.7925 42.7357 28.6734 42.7841 28.5747 42.7565C27.2303 42.3761 25.8877 41.9854 24.5434 41.6067C23.9206 41.4304 23.2926 41.2713 22.6664 41.1053C22.6579 41.1261 22.6511 41.1468 22.6426 41.1676C22.7192 41.2074 22.794 41.2575 22.874 41.2869C23.8304 41.6275 24.7901 41.9646 25.7465 42.3052C25.949 42.3778 26.2382 42.5836 26.3318 42.5144V42.5127Z" fill="white"/>
<path d="M28.9473 28.6035C28.9677 28.5897 28.9303 28.4116 28.9014 28.4047C28.7806 28.3805 28.6308 28.3528 28.5321 28.4047C28.3551 28.4963 28.2598 28.5223 28.185 28.2906C28.1101 28.0572 27.9382 28.1263 27.7851 28.211C27.7187 28.2491 27.666 28.3269 27.5962 28.3424C26.9547 28.4929 26.3046 28.6104 25.6699 28.7885C25.3244 28.8853 24.9075 28.8438 24.6046 29.2691C25.0913 29.2121 25.5082 29.1654 25.9268 29.1118C26.8236 28.996 27.7187 28.8784 28.6138 28.7505C28.7312 28.7332 28.8452 28.6692 28.9456 28.6018L28.9473 28.6035Z" fill="white"/>
<path d="M24.557 18.3233C24.4957 18.3026 24.3919 18.3769 24.3204 18.4305C24.2524 18.4807 24.2013 18.5567 24.1809 18.5792C24.0873 18.4357 24.0278 18.2559 23.9069 18.1937C23.844 18.1608 23.6738 18.3268 23.5564 18.4132C23.4407 18.498 23.3386 18.6034 23.2212 18.6847C22.6256 19.1014 22.0283 19.5146 21.431 19.9295C21.4497 19.9606 21.4684 19.9917 21.4871 20.0229C22.2699 19.5612 23.051 19.0996 23.8338 18.6363C23.8576 18.6778 23.8797 18.7193 23.9035 18.7608C22.9557 19.352 22.0096 19.9416 21.0617 20.5329L21.106 20.6107C21.2132 20.5588 21.3221 20.5104 21.4259 20.4551C22.4758 19.8932 23.5258 19.333 24.5723 18.7642C24.6472 18.7227 24.7374 18.6155 24.7323 18.5446C24.7272 18.4634 24.637 18.3527 24.5587 18.3251L24.557 18.3233Z" fill="white"/>
<path d="M7.97068 61.7106C7.70522 60.8946 7.45507 60.0733 7.19131 59.2573C7.13175 59.0723 7.09261 58.9167 7.27129 58.768C7.32234 58.7265 7.33255 58.5778 7.30362 58.5018C7.12324 58.0332 6.91734 57.5751 6.73526 57.1065C6.55318 56.6345 6.38812 56.1556 6.21625 55.6802L6.14988 55.7182C6.24007 56.0795 6.32175 56.4443 6.42045 56.804C6.63146 57.5733 6.86289 58.3375 7.06539 59.1103C7.22364 59.712 7.36148 60.3189 7.49081 60.9274C7.57759 61.3285 7.62694 61.74 7.71033 62.1411C7.72734 62.2224 7.81753 62.3279 7.89241 62.3486C7.96728 62.3694 8.11192 62.3209 8.14425 62.2587C8.1885 62.174 8.17659 62.0409 8.14425 61.9423C8.11532 61.8559 7.99961 61.7971 7.97068 61.7106Z" fill="white"/>
<path d="M11.1647 8.29732C10.9571 8.82464 10.741 9.34678 10.5079 9.862C10.4739 9.93807 10.3343 9.96919 10.2424 10.0159C10.1386 10.0695 9.96846 10.0937 9.93613 10.1749C9.74554 10.6521 9.58898 11.1449 9.41371 11.6307C9.27247 12.0197 9.11932 12.4035 8.97127 12.7908C9.0019 12.8012 9.03253 12.8115 9.06486 12.8219C9.31671 12.3171 9.55325 11.8036 9.82381 11.3108C10.1539 10.7074 10.5164 10.1196 10.8601 9.52313C11.1443 9.02866 11.4234 8.53073 11.694 8.02761C11.7331 7.955 11.7348 7.82533 11.694 7.75617C11.6514 7.68356 11.5017 7.59192 11.4659 7.6144C11.3638 7.6801 11.2702 7.78902 11.2243 7.90313C11.1767 8.02242 11.2158 8.17803 11.1681 8.29905L11.1647 8.29732Z" fill="white"/>
<path d="M11.4966 10.7714C11.5493 10.7057 11.6157 10.6487 11.6548 10.576C12.1143 9.74789 12.5652 8.91801 13.0264 8.09158C13.2 7.78038 13.3956 7.48127 13.576 7.17352C13.639 7.06633 13.7292 6.94185 13.7173 6.83638C13.7105 6.77068 13.5131 6.65658 13.4416 6.68251C13.3174 6.72746 13.2102 6.85194 13.1251 6.96432C13.0706 7.03694 13.0808 7.15796 13.04 7.24614C12.6605 8.05182 12.2759 8.85576 11.8931 9.66144C11.7263 10.0107 11.5595 10.3617 11.3945 10.7126C11.4285 10.7334 11.4625 10.7541 11.4966 10.7749V10.7714Z" fill="white"/>
<path d="M15.5296 56.2472C15.5517 56.1089 15.5857 55.9706 15.5874 55.8323C15.5874 55.796 15.4921 55.7562 15.4411 55.7182C15.4683 55.7078 15.4938 55.6992 15.521 55.6888C15.504 55.5522 15.533 55.3793 15.4615 55.2877C15.2045 54.954 14.9016 54.6549 14.6362 54.3264C14.2091 53.7974 13.7989 53.2545 13.3803 52.7185L13.3429 52.7583C13.6577 53.3669 13.964 53.9789 14.2924 54.5806C14.5749 55.0992 14.8727 55.6127 15.1875 56.1124C15.2403 56.1971 15.4121 56.204 15.5296 56.2472Z" fill="white"/>
<path d="M17.2278 23.9544C17.2432 23.9786 17.2585 24.0011 17.2755 24.0253C18.1484 23.5395 19.0197 23.0537 19.8944 22.5713C19.9829 22.5229 20.0918 22.5108 20.1922 22.4831C20.1973 22.5039 20.2024 22.5246 20.2092 22.5471C20.136 22.6128 20.0628 22.6785 19.9897 22.7459C20.347 22.6266 20.6737 22.4572 21.0073 22.3085C21.5858 22.0526 22.1729 21.8123 22.7515 21.5547C22.8264 21.5218 22.8927 21.4216 22.9183 21.3386C22.9336 21.2919 22.874 21.1761 22.8264 21.1605C22.7447 21.1328 22.6256 21.1259 22.5558 21.1674C21.8734 21.5806 21.1979 22.0059 20.5104 22.4347C20.3334 21.9368 20.2807 21.9247 19.9607 22.2445C19.9131 22.2912 19.8603 22.3362 19.8025 22.3707C19.1984 22.7338 18.5926 23.0917 17.9902 23.4565C17.7315 23.6138 17.4831 23.7902 17.2295 23.9562L17.2278 23.9544Z" fill="white"/>
<path d="M18.6794 48.5293C18.7815 48.5172 18.8683 48.3703 18.9925 48.2527C19.0333 48.2994 19.0844 48.3858 19.1592 48.4377C19.2341 48.4896 19.3328 48.5311 19.4196 48.5259C19.4621 48.5242 19.5472 48.3927 19.5319 48.3495C19.503 48.2665 19.4264 48.187 19.3498 48.1386C19.1439 48.0089 18.9193 47.9086 18.7185 47.7721C17.9102 47.2171 17.1087 46.6535 16.3055 46.0933L16.2647 46.1503C17.0713 46.7693 17.8779 47.3882 18.6845 48.0055C18.6624 48.0366 18.6419 48.0677 18.6198 48.0988L16.736 46.7935C16.8603 47.001 17.027 47.1445 17.1938 47.2862C17.5937 47.6268 17.9953 47.9674 18.3969 48.308C18.4905 48.3876 18.596 48.5363 18.6794 48.5259V48.5293Z" fill="white"/>
<path d="M28.1118 53.8095C27.9706 53.7282 27.7936 53.7023 27.6609 53.6106C26.9376 53.1058 26.2263 52.5819 25.5048 52.0736C24.9977 51.7157 24.4804 51.3717 23.9682 51.0207L23.9172 51.0916C23.9325 51.1193 23.941 51.1556 23.9631 51.1711C24.8735 51.8558 25.7941 52.5301 26.696 53.2285C27.0942 53.5363 27.4515 53.8994 27.8412 54.2209C27.911 54.2797 28.059 54.2901 28.1492 54.2573C28.2156 54.233 28.2888 54.1017 28.2837 54.0256C28.2769 53.9478 28.1884 53.8544 28.1118 53.8095Z" fill="white"/>
<path d="M25.2291 19.2742C25.2479 19.3002 25.2649 19.3244 25.2836 19.3503C25.3244 19.3348 25.3653 19.3244 25.4027 19.3036C26.3216 18.7936 27.2303 18.268 28.1594 17.7787C28.6665 17.5107 29.1073 17.101 29.708 17.0249C29.776 17.0163 29.8628 16.8624 29.8696 16.769C29.8747 16.6964 29.788 16.5737 29.7148 16.546C29.6399 16.5166 29.5174 16.5512 29.4425 16.6013C29.3557 16.6584 29.3132 16.7881 29.2247 16.8417C28.3194 17.3966 27.4073 17.9395 26.5003 18.491C26.0749 18.7487 25.6529 19.0149 25.2309 19.276L25.2291 19.2742Z" fill="white"/>
<path d="M9.46136 58.8527C9.49879 58.9686 9.54474 59.119 9.63152 59.1657C9.69789 59.202 9.90209 59.1207 9.92592 59.0515C9.95655 58.9599 9.89018 58.813 9.82722 58.7179C9.73703 58.5796 9.58047 58.4845 9.75064 58.2856C9.79659 58.232 9.76085 58.0678 9.71661 57.9779C9.61961 57.7825 9.47157 57.6131 9.38138 57.416C9.04444 56.6933 8.72112 55.9637 8.3927 55.2358C8.35867 55.2514 8.32633 55.2669 8.2923 55.2842C8.62753 56.2697 8.96617 57.2535 9.29799 58.2407C9.36606 58.4412 9.39839 58.6539 9.46306 58.8545L9.46136 58.8527Z" fill="white"/>
<path d="M8.12213 5.21465C8.47268 4.05973 8.80961 2.8979 9.17207 1.74644C9.31331 1.29692 9.51411 0.868145 9.67577 0.425541C9.7115 0.326993 9.73703 0.185221 9.69108 0.109148C9.65024 0.0399916 9.47837 -0.0239786 9.41541 0.00887096C9.32863 0.0555518 9.27077 0.188679 9.23844 0.295872C9.21121 0.385776 9.26226 0.499885 9.23844 0.591518C8.8947 1.84499 8.54075 3.095 8.19871 4.34846C8.10511 4.69425 8.04215 5.04868 7.96388 5.39792C7.97749 5.40311 7.9928 5.41002 8.00642 5.41521C8.04556 5.34778 8.10001 5.28554 8.12213 5.21293V5.21465Z" fill="white"/>
<path d="M32.6723 41.994C32.4375 41.9491 32.189 41.975 31.9576 41.9179C30.9604 41.6759 29.97 41.4079 28.9729 41.1607C28.6036 41.069 28.2275 41.0068 27.8548 40.9307C27.848 40.9618 27.8429 40.993 27.8361 41.0241C27.9178 41.0448 28.0012 41.0656 28.0829 41.0881C29.1243 41.3837 30.1742 41.6569 31.2055 41.9888C31.6581 42.1341 32.1771 42.1254 32.5515 42.504C32.5923 42.5455 32.7591 42.5127 32.8204 42.4591C32.8833 42.4038 32.9327 42.2637 32.9071 42.1911C32.8748 42.1047 32.7642 42.0096 32.6723 41.9906V41.994Z" fill="white"/>
<path d="M32.8289 29.5803C32.851 29.4749 32.8255 29.3245 32.7591 29.2467C32.7149 29.1948 32.56 29.2207 32.463 29.2449C32.3847 29.264 32.3218 29.3642 32.2452 29.3763C31.7585 29.4593 31.2701 29.525 30.7834 29.6011C30.2525 29.6841 29.7199 29.7636 29.1907 29.857C28.6444 29.9538 28.0999 30.0644 27.5536 30.1699C27.5536 30.1941 27.5502 30.2166 27.5485 30.2408C27.9757 30.1855 28.4045 30.1284 28.8316 30.0748C29.5429 29.9849 30.2542 29.8846 30.9689 29.8155C31.5084 29.7619 32.0529 29.755 32.594 29.7152C32.6791 29.7083 32.817 29.6426 32.8289 29.5821V29.5803Z" fill="white"/>
<path d="M22.1678 46.8557C22.2444 46.9093 22.3873 46.9232 22.4707 46.8869C22.5354 46.8575 22.5915 46.7157 22.5796 46.6362C22.5677 46.5635 22.4673 46.4823 22.3873 46.4477C22.0964 46.3232 21.7986 46.2178 21.4906 46.0985C21.6301 45.7475 21.5961 45.5469 21.2234 45.5556C21.1638 45.5556 21.1026 45.502 21.043 45.4709C20.3385 45.113 19.634 44.7534 18.9295 44.3955C18.9227 44.4024 18.9159 44.4076 18.9108 44.4145C19.7361 45.0248 20.5631 45.6317 21.385 46.2454C21.6505 46.4443 21.8973 46.6673 22.1678 46.8575V46.8557Z" fill="white"/>
<path d="M32.4051 33.8733C32.4545 33.8992 32.6162 33.8006 32.6553 33.7246C32.6944 33.6485 32.6757 33.4929 32.6196 33.4307C32.5668 33.3719 32.429 33.3701 32.3337 33.3823C32.1754 33.403 32.0223 33.4843 31.8657 33.4894C30.455 33.55 29.0443 33.6018 27.6336 33.6554C27.6336 33.6779 27.6319 33.7004 27.6302 33.7228C27.6728 33.7298 27.7136 33.7401 27.7561 33.7419C28.7891 33.7453 29.8203 33.728 30.8532 33.7592C31.3688 33.7747 31.9014 33.6122 32.4051 33.8733Z" fill="white"/>
<path d="M3.87984 5.00891C4.03469 4.01997 4.16742 3.0293 4.32738 2.04208C4.38524 1.68765 4.49925 1.34187 4.57582 0.990899C4.59965 0.880248 4.62177 0.712542 4.56391 0.658946C4.49755 0.594975 4.31377 0.581144 4.23379 0.631283C4.16232 0.676235 4.1504 0.838753 4.14019 0.951133C4.13339 1.03585 4.19295 1.12748 4.18274 1.21047C4.0432 2.33946 3.89175 3.46671 3.75221 4.59397C3.70967 4.93803 3.69265 5.28727 3.66202 5.63305L3.71477 5.62787C3.77093 5.42212 3.8458 5.21984 3.87814 5.01064L3.87984 5.00891Z" fill="white"/>
<path d="M32.9939 23.0813C32.9225 23.0934 32.8408 23.0865 32.7812 23.1194C32.657 23.1885 32.5532 23.3113 32.4222 23.3562C31.7347 23.5948 31.0404 23.8075 30.3529 24.0426C29.5106 24.3296 28.6717 24.6287 27.831 24.9226C27.831 24.9468 27.8327 24.971 27.8344 24.997C27.8736 25.0074 27.9195 25.0367 27.9518 25.0264C28.5576 24.8379 29.1617 24.6443 29.7658 24.4506C30.7562 24.1325 31.7466 23.8161 32.7353 23.4928C32.8255 23.4634 32.9242 23.4029 32.9786 23.3268C33.0178 23.2698 32.9905 23.166 32.9939 23.0813Z" fill="white"/>
<path d="M23.211 17.1892C23.7232 16.8382 24.2286 16.4734 24.7527 16.1397C25.4929 15.6677 26.1242 15.0246 26.9581 14.6995C27.0346 14.6701 27.1061 14.5214 27.1044 14.4298C27.1044 14.352 27.004 14.2223 26.9342 14.2085C26.8492 14.1947 26.7334 14.2621 26.6552 14.3278C26.5752 14.3935 26.5428 14.518 26.4629 14.5802C26.1021 14.862 25.7311 15.13 25.3653 15.4066C24.6268 15.9651 23.8882 16.5253 23.1514 17.0854C23.1718 17.12 23.1922 17.1546 23.2127 17.1892H23.211Z" fill="white"/>
<path d="M14.4473 8.28003C15.1909 7.09053 15.9363 5.90277 16.6697 4.70808C16.7156 4.63374 16.7054 4.48505 16.6612 4.40552C16.6271 4.34328 16.4876 4.2966 16.4144 4.31562C16.3447 4.33463 16.2851 4.44183 16.2477 4.52136C16.2119 4.59916 16.2289 4.70289 16.1881 4.77724C15.7048 5.66936 15.2164 6.55803 14.7298 7.44842C14.5392 7.79594 14.3537 8.14691 14.1648 8.49615C14.1971 8.51344 14.2278 8.53073 14.2601 8.54802C14.3231 8.45811 14.3894 8.37167 14.4473 8.2783V8.28003Z" fill="white"/>
<path d="M17.3129 61.1989C16.9522 60.656 16.605 60.1027 16.2477 59.5564C15.8614 58.9668 15.4683 58.3842 15.0769 57.7981C15.0531 57.8119 15.0276 57.824 15.0037 57.8378C15.031 57.9191 15.0463 58.0073 15.0905 58.0782C15.3696 58.5398 15.6691 58.991 15.938 59.4596C16.3719 60.2151 16.7837 60.9845 17.2193 61.7418C17.2653 61.8213 17.3912 61.8783 17.4865 61.8904C17.5409 61.8974 17.655 61.8005 17.6618 61.7418C17.672 61.6467 17.6379 61.5291 17.5818 61.4496C17.5137 61.351 17.381 61.2992 17.3146 61.1989H17.3129Z" fill="white"/>
<path d="M31.8419 25.5087C31.7296 25.4707 31.59 25.4776 31.4709 25.5053C31.3943 25.5226 31.3382 25.635 31.2599 25.6574C30.4856 25.8787 29.708 26.0862 28.9354 26.3092C28.316 26.4873 27.7 26.6844 27.084 26.8711C27.0942 26.8971 27.1027 26.923 27.1129 26.9472C27.3954 26.8815 27.6779 26.8193 27.9586 26.7501C28.6972 26.5686 29.4323 26.3784 30.1725 26.2055C30.6371 26.0966 31.1085 26.0153 31.5747 25.9116C31.6904 25.8856 31.8181 25.8459 31.898 25.7681C31.9338 25.7335 31.8895 25.5243 31.8436 25.5087H31.8419Z" fill="white"/>
<path d="M30.5316 45.2202C30.4193 45.1804 30.2797 45.2236 30.1691 45.1821C29.3421 44.8778 28.5202 44.558 27.6932 44.252C27.2354 44.0825 26.7726 43.9269 26.3131 43.7662C26.2995 43.799 26.2842 43.8319 26.2706 43.8664C26.8406 44.1068 27.4141 44.3402 27.9791 44.5909C28.7789 44.9453 29.5718 45.3135 30.3716 45.668C30.4482 45.7025 30.5724 45.7008 30.6388 45.6593C30.7069 45.6161 30.78 45.4812 30.7579 45.4207C30.7273 45.336 30.6218 45.253 30.5299 45.2219L30.5316 45.2202Z" fill="white"/>
<path d="M2.94221 67.1031C2.78055 65.701 2.6308 64.2988 2.47765 62.8967C2.44532 62.8967 2.41469 62.8949 2.38236 62.8932C2.43341 63.7853 2.49126 64.6775 2.53551 65.5696C2.57124 66.2784 2.58656 66.989 2.6257 67.6979C2.6308 67.7982 2.69717 67.914 2.77204 67.9814C2.81288 68.0177 2.97454 67.997 3.00347 67.952C3.06303 67.8587 3.10387 67.7256 3.09026 67.6184C3.06643 67.4437 2.96093 67.2795 2.94221 67.1049V67.1031Z" fill="white"/>
<path d="M17.0883 11.6428C17.1632 11.5633 17.2415 11.4855 17.3112 11.4007C17.6737 10.9547 18.0225 10.5 18.3952 10.0626C18.8853 9.48855 19.3958 8.93184 19.8859 8.35783C19.9386 8.29732 19.9454 8.15901 19.9182 8.07602C19.8961 8.01032 19.7855 7.92906 19.7191 7.93425C19.6374 7.94116 19.5421 8.01378 19.4894 8.08466C19.4145 8.19013 19.3873 8.33017 19.3124 8.43564C19.0078 8.86614 18.693 9.28972 18.3799 9.71504C17.9238 10.3375 17.4661 10.9581 17.01 11.5788C17.0355 11.5996 17.0628 11.6203 17.0883 11.6393V11.6428Z" fill="white"/>
<path d="M0.939329 6.39378C0.985274 5.94426 1.03973 5.49647 1.07717 5.04522C1.12992 4.3986 1.15544 3.75026 1.2184 3.10364C1.25925 2.68006 1.35114 2.26166 1.40048 1.8398C1.40899 1.76027 1.34943 1.62541 1.28477 1.59429C1.20479 1.55626 1.06866 1.56836 0.993783 1.6185C0.932522 1.65826 0.896787 1.7862 0.903594 1.87092C0.918909 2.06802 0.997186 2.26511 0.993783 2.46048C0.963152 3.76755 0.915505 5.07461 0.874665 6.38168C0.896787 6.38513 0.92061 6.38859 0.942732 6.39205L0.939329 6.39378Z" fill="white"/>
<path d="M31.2395 40.1648C31.3399 40.1959 31.5016 40.2322 31.5492 40.1821C31.6173 40.1112 31.6513 39.9418 31.6122 39.8536C31.5798 39.781 31.425 39.7464 31.3178 39.7291C31.2123 39.7118 31.0966 39.762 30.9928 39.743C30.2015 39.5925 29.4153 39.4266 28.624 39.2796C28.1322 39.188 27.6336 39.1223 27.1401 39.0445L27.1163 39.0929C27.2388 39.1396 27.3597 39.2001 27.4873 39.2295C28.4777 39.4542 29.4714 39.6686 30.4601 39.9003C30.7273 39.9625 30.9791 40.0853 31.2412 40.1648H31.2395Z" fill="white"/>
<path d="M14.6855 52.3935C14.5851 52.3606 14.5188 52.2206 14.4371 52.1272C14.0423 51.6708 13.6475 51.2143 13.2527 50.7579C13.2408 50.77 13.2289 50.7838 13.217 50.7959C13.6577 51.5117 14.1001 52.224 14.5358 52.9433C14.6787 53.1801 14.7893 53.4395 14.9425 53.6711C14.9969 53.7559 15.1246 53.8233 15.2267 53.8319C15.2913 53.8371 15.4172 53.7282 15.4241 53.6625C15.4309 53.5743 15.3696 53.4533 15.3015 53.3876C15.1586 53.2528 14.9918 53.1438 14.82 53.0124C15.0259 52.7237 15.0548 52.5128 14.6872 52.3935H14.6855Z" fill="white"/>
<path d="M5.77551 64.9904C5.63597 64.3818 5.52536 63.7663 5.39604 63.156C5.27011 62.5595 5.13398 61.9665 5.00295 61.3718C4.97232 61.377 4.94339 61.3839 4.91276 61.3891C4.99784 61.9561 5.08633 62.5215 5.16801 63.0903C5.29223 63.9617 5.40965 64.8365 5.53898 65.7079C5.55259 65.7961 5.61215 65.9119 5.68362 65.9448C5.75339 65.9759 5.89973 65.9482 5.94568 65.8912C6.00354 65.8186 6.02736 65.6802 6.00184 65.5886C5.94568 65.3846 5.82316 65.1979 5.77551 64.9921V64.9904Z" fill="white"/>
<path d="M21.7237 26.8608C21.3408 27.0094 20.9681 27.1806 20.5836 27.3258C19.9744 27.5541 19.36 27.7684 18.7474 27.988C19.2341 28.0018 19.7072 27.9603 20.1786 27.8998C20.3436 27.8791 20.5223 27.7442 20.6601 27.784C21.0702 27.905 21.1247 27.682 21.1111 27.3379C21.3595 27.2964 21.5978 27.2636 21.8326 27.21C21.9075 27.1927 21.996 27.127 22.03 27.0596C22.0521 27.0129 22.0096 26.8884 21.9619 26.8625C21.899 26.8279 21.7952 26.8348 21.7237 26.8625V26.8608Z" fill="white"/>
<path d="M2.70568 61.7971C2.58486 60.8859 2.46914 59.9731 2.34322 59.0619C2.29557 58.7231 2.2275 58.3859 2.16794 58.0488C2.13561 58.417 2.17645 58.7749 2.21219 59.1328C2.29897 60.0388 2.38406 60.9447 2.46744 61.8507C2.47425 61.9164 2.46744 61.9855 2.45042 62.0478C2.39767 62.2483 2.33641 62.4472 2.27855 62.6477C2.30408 62.6564 2.3296 62.665 2.35513 62.6736C2.37044 62.6321 2.37725 62.5786 2.40448 62.5509C2.50998 62.4489 2.72269 61.9302 2.70568 61.7988V61.7971Z" fill="white"/>
<path d="M21.368 56.5256C21.0634 56.2282 20.7775 55.9118 20.4781 55.6058C19.9812 55.0975 19.4809 54.5927 18.9823 54.0861C18.9533 54.112 18.9244 54.138 18.8972 54.1656C19.2631 54.5823 19.634 54.992 19.9914 55.4156C20.4712 55.9844 20.9341 56.5688 21.414 57.1359C21.4752 57.2085 21.6063 57.2638 21.6948 57.2535C21.7713 57.2431 21.887 57.1273 21.8887 57.0564C21.8922 56.9647 21.8173 56.8489 21.7424 56.7815C21.6318 56.6812 21.4752 56.6311 21.368 56.5273V56.5256Z" fill="white"/>
<path d="M6.51915 5.9408C6.79822 4.98125 7.079 4.0217 7.34616 3.05869C7.37509 2.95668 7.34106 2.808 7.2832 2.71982C7.25087 2.66968 7.06028 2.65585 7.01944 2.7008C6.94627 2.7786 6.91734 2.91173 6.89862 3.02584C6.88331 3.1192 6.93266 3.22467 6.91224 3.31457C6.78291 3.92315 6.63826 4.53 6.50553 5.13858C6.366 5.77483 6.23326 6.41107 6.09713 7.04904C6.12776 7.05596 6.15669 7.06287 6.18732 7.07152C6.29793 6.69634 6.41024 6.31944 6.51915 5.94426V5.9408Z" fill="white"/>
<path d="M18.3118 12.0577C18.0463 12.3828 17.7962 12.7216 17.5392 13.0536C17.5682 13.0778 17.5971 13.102 17.626 13.1262C18.1893 12.4865 18.7491 11.8451 19.3175 11.2106C19.5779 10.9201 19.8569 10.6487 20.119 10.3599C20.2109 10.2579 20.2738 10.1283 20.3504 10.0107C20.2262 9.94153 20.1003 9.87237 20.0067 9.8205C19.8586 10.085 19.777 10.2856 19.6493 10.4464C19.2137 10.991 18.7559 11.5183 18.3135 12.0577H18.3118Z" fill="white"/>
<path d="M20.2704 24.8258C20.199 24.7999 20.0969 24.7982 20.0305 24.831C19.9046 24.8932 19.8008 25.0039 19.6749 25.0679C18.9601 25.424 18.242 25.7733 17.4644 26.1536C17.9698 26.145 18.4105 26.2487 18.8206 26.0274C18.8393 26.017 18.8649 26.0188 18.887 26.017C19.3379 25.9911 19.3532 25.9652 19.1967 25.4793C19.5217 25.3791 19.8484 25.284 20.17 25.1716C20.2398 25.1474 20.3096 25.0661 20.3402 24.9935C20.3589 24.952 20.313 24.8396 20.2721 24.8241L20.2704 24.8258Z" fill="white"/>
<path d="M28.6904 21.2176C28.7057 21.1467 28.6291 21.0032 28.5627 20.979C28.4743 20.9461 28.3432 20.9738 28.253 21.0222C28.1407 21.0827 28.0642 21.2141 27.9518 21.2712C27.4635 21.5149 26.9666 21.7414 26.4748 21.9783C25.9285 22.2411 25.384 22.5073 24.8395 22.7736C24.848 22.7961 24.8582 22.8203 24.8667 22.8427C24.9484 22.8237 25.0352 22.8134 25.1134 22.7822C25.8026 22.4935 26.4867 22.1892 27.181 21.9126C27.6098 21.7397 28.0573 21.6135 28.4896 21.4475C28.5764 21.4147 28.6717 21.3075 28.6921 21.2193L28.6904 21.2176Z" fill="white"/>
<path d="M11.9935 12.5608C12.019 12.5747 12.0445 12.5868 12.0683 12.6006C12.4427 11.9989 12.8103 11.3921 13.1914 10.7956C13.5165 10.2873 13.8687 9.79803 14.1767 9.28108C14.2312 9.18945 14.1325 9.00272 14.1035 8.86095C14.0031 8.918 13.8568 8.9474 13.8092 9.03557C13.4739 9.6528 13.1591 10.2804 12.8392 10.9045C12.5567 11.4561 12.2742 12.0093 11.9918 12.5626L11.9935 12.5608Z" fill="white"/>
<path d="M30.4618 31.8988C30.5809 31.8971 30.7273 31.8746 30.8056 31.8003C30.8566 31.7536 30.843 31.5375 30.7902 31.4995C30.7086 31.4407 30.5605 31.4459 30.4499 31.4666C30.2678 31.5012 30.096 31.598 29.9139 31.6187C29.257 31.6931 28.5985 31.745 27.9416 31.8124C27.5128 31.8556 27.084 31.9144 26.6552 31.9645C26.6569 31.9887 26.6603 32.0129 26.662 32.0389C26.7488 32.0389 26.8372 32.0441 26.924 32.0389C27.8191 31.987 28.7125 31.9265 29.6076 31.8833C29.8935 31.8694 30.1793 31.9058 30.4652 31.9006L30.4618 31.8988Z" fill="white"/>
<path d="M16.4757 7.24095C16.3889 7.27726 16.3123 7.37235 16.263 7.46053C16.217 7.54524 16.2375 7.66627 16.1881 7.74753C15.9022 8.22989 15.5993 8.70362 15.31 9.18599C15.0293 9.65453 14.7587 10.1283 14.483 10.6002C14.5154 10.6193 14.5477 10.6383 14.58 10.6573C14.597 10.6296 14.6141 10.602 14.6328 10.5743C15.322 9.5992 16.0145 8.62755 16.6952 7.64725C16.7429 7.57809 16.7275 7.4294 16.6901 7.34123C16.6646 7.28245 16.5267 7.21675 16.474 7.23922L16.4757 7.24095Z" fill="white"/>
<path d="M7.23726 4.99508C7.21343 5.08499 7.2781 5.20082 7.25598 5.29246C7.04326 6.15 6.81354 7.00236 6.60423 7.8599C6.4732 8.3976 6.3677 8.94048 6.25028 9.48163C6.2707 9.48682 6.29112 9.49201 6.31154 9.49719C6.59572 8.4875 6.86969 7.47435 7.17089 6.46985C7.30873 6.00823 7.50272 5.5639 7.66098 5.10746C7.6848 5.03658 7.67459 4.92247 7.63035 4.86714C7.5861 4.81009 7.46528 4.75476 7.41253 4.77897C7.33595 4.81354 7.26108 4.91209 7.23726 4.99854V4.99508Z" fill="white"/>
<path d="M9.73363 8.79525C9.94974 8.29214 10.1573 7.78556 10.3837 7.28763C10.6764 6.64793 10.9912 6.01687 11.2839 5.37717C11.3196 5.3011 11.3179 5.16797 11.2736 5.10227C11.2277 5.03485 11.095 4.97088 11.0286 4.99335C10.9401 5.02447 10.8397 5.12648 10.8108 5.21984C10.6764 5.64516 10.5845 6.0843 10.4432 6.50789C10.1914 7.26343 9.914 8.01032 9.64684 8.76067C9.67577 8.77278 9.7047 8.78488 9.73363 8.79525Z" fill="white"/>
<path d="M16.6425 10.7628C16.5659 10.8838 16.5336 11.0359 16.4519 11.1535C16.086 11.6808 15.7082 12.1995 15.339 12.7234C15.0259 13.1677 14.7162 13.6138 14.4047 14.0598C14.4286 14.0771 14.4524 14.0961 14.4762 14.1134C14.8506 13.6431 15.2199 13.1694 15.601 12.7026C16.0656 12.1338 16.5438 11.5754 17.0049 11.0048C17.0526 10.946 17.0713 10.8215 17.0441 10.7524C17.0168 10.6867 16.9113 10.6193 16.8416 10.621C16.7735 10.621 16.685 10.6971 16.6425 10.7628Z" fill="white"/>
<path d="M21.7935 52.4644C21.7764 52.3589 21.7969 52.2033 21.7356 52.1549C21.4157 51.899 21.0634 51.6846 20.7418 51.4305C19.9471 50.8046 19.1627 50.1632 18.3748 49.5287C18.3578 49.5494 18.339 49.5701 18.322 49.5909C18.676 49.9107 19.0316 50.2289 19.3839 50.5504C20.0833 51.1901 20.7775 51.8368 21.4871 52.4661C21.545 52.5162 21.6896 52.4661 21.7935 52.4626V52.4644Z" fill="white"/>
<path d="M22.435 17.6802C22.3635 17.656 22.2444 17.7148 22.1729 17.7718C22.081 17.8462 22.03 17.9741 21.9364 18.0433C21.5314 18.3424 21.1128 18.6259 20.7044 18.9215C20.2551 19.2483 19.8127 19.582 19.3669 19.9122L19.4332 19.99C19.7242 19.8068 20.0135 19.62 20.3096 19.4437C21.0243 19.0149 21.7441 18.5948 22.4537 18.1608C22.5235 18.1176 22.5864 17.9966 22.583 17.9136C22.5796 17.8306 22.5048 17.7061 22.435 17.6819V17.6802Z" fill="white"/>
<path d="M24.1503 46.1573C24.4294 46.3198 24.7084 46.4823 24.9858 46.6465C25.6784 47.0597 26.3693 47.4764 27.067 47.881C27.1469 47.9277 27.2882 47.9346 27.3665 47.8948C27.4294 47.8637 27.489 47.7081 27.4635 47.6459C27.4311 47.5646 27.3171 47.5058 27.2252 47.4626C27.1486 47.4263 27.0465 47.4488 26.9717 47.4107C26.3625 47.1099 25.7584 46.7952 25.1492 46.4944C24.8378 46.3405 24.5161 46.2057 24.1996 46.0622C24.1826 46.0933 24.1656 46.1261 24.1469 46.1573H24.1503Z" fill="white"/>
<path d="M26.776 34.411C26.8134 34.3504 26.8134 34.2277 26.7743 34.1706C26.7351 34.1136 26.6279 34.079 26.5514 34.0807C26.3863 34.0842 26.2212 34.1326 26.0545 34.1326C25.0215 34.1378 23.9886 34.1361 22.954 34.1361C22.9506 34.1516 22.9489 34.1672 22.9455 34.1827C23.1718 34.2208 23.3964 34.2744 23.6245 34.2934C24.6029 34.3729 25.5831 34.4438 26.5616 34.5095C26.633 34.5147 26.7402 34.4697 26.7743 34.4127L26.776 34.411Z" fill="white"/>
<path d="M5.17822 60.7511C5.23267 60.7044 5.24799 60.5644 5.22587 60.4814C5.16801 60.2808 5.054 60.0941 5.00295 59.8918C4.76471 58.9374 4.54009 57.9813 4.31036 57.0253L4.2457 57.0287C4.29335 57.3641 4.34269 57.7013 4.38864 58.0367C4.50606 58.8856 4.61837 59.7345 4.74089 60.5816C4.7545 60.6698 4.81406 60.7995 4.87872 60.8185C4.96721 60.8444 5.10505 60.8133 5.17652 60.7511H5.17822Z" fill="white"/>
<path d="M29.2502 36.0379C29.3115 35.9756 29.3438 35.7872 29.2979 35.7353C29.2315 35.6592 29.0852 35.6298 28.9729 35.6264C28.8333 35.6212 28.6904 35.6869 28.5508 35.68C27.5877 35.6316 26.6262 35.5728 25.6631 35.5175C25.658 35.5503 25.6512 35.5814 25.6461 35.6143C26.3676 35.6973 27.0908 35.7699 27.8089 35.865C28.1901 35.9151 28.5661 36.0102 28.9473 36.0725C29.0477 36.088 29.1924 36.0967 29.2502 36.0379Z" fill="white"/>
<path d="M13.9027 58.813C14.0984 59.1985 14.2499 59.6065 14.4371 59.9973C14.4745 60.0768 14.5715 60.1581 14.6532 60.1754C14.711 60.1875 14.8285 60.1027 14.8489 60.0388C14.8795 59.9489 14.8795 59.814 14.8319 59.7379C14.5647 59.3161 14.2703 58.9098 13.9997 58.4897C13.6798 57.9917 13.3718 57.4851 13.0587 56.982C13.0332 56.9959 13.006 57.0114 12.9804 57.0253C13.0043 57.0979 13.0162 57.1757 13.0519 57.2414C13.3344 57.767 13.6322 58.2839 13.901 58.8147L13.9027 58.813Z" fill="white"/>
<path d="M21.2966 16.9609C21.9772 16.4803 22.6613 16.0031 23.3369 15.5121C23.4135 15.4568 23.4815 15.3271 23.4781 15.2355C23.4747 15.1577 23.3675 15.0349 23.2926 15.0246C23.2058 15.0125 23.0884 15.0816 23.0153 15.1508C22.9081 15.2545 22.8434 15.4066 22.7328 15.5052C22.3703 15.8233 21.9942 16.1224 21.6267 16.4354C21.2846 16.7275 20.9494 17.0249 20.6125 17.3206C20.6329 17.3448 20.6533 17.3707 20.6737 17.3949C20.8813 17.2497 21.089 17.1062 21.2966 16.9609Z" fill="white"/>
<path d="M4.33929 5.09363C4.26782 5.13512 4.19975 5.24059 4.19124 5.32531C4.1436 5.80595 4.13679 6.29004 4.07553 6.76896C3.95811 7.69393 3.81347 8.61717 3.68074 9.54042C3.70626 9.54387 3.73179 9.54906 3.75561 9.55252C3.87984 8.87824 3.99215 8.2005 4.13169 7.52968C4.28143 6.81218 4.46011 6.09986 4.61667 5.38236C4.63368 5.30802 4.61667 5.19391 4.56732 5.1455C4.51797 5.09536 4.39034 5.06251 4.33759 5.09363H4.33929Z" fill="white"/>
<path d="M23.8933 45.9204C23.9648 45.8512 24.0124 45.7198 24.0056 45.6196C24.0005 45.5487 23.8984 45.4622 23.8202 45.4259C23.7351 45.3844 23.616 45.4155 23.5292 45.3758C23.0408 45.1528 22.5592 44.9142 22.0708 44.6877C21.6505 44.4923 21.2251 44.3056 20.8014 44.1154C20.7861 44.1465 20.7724 44.1759 20.7571 44.207C21.2421 44.4733 21.7339 44.7274 22.2121 45.0058C22.6902 45.2841 23.1531 45.5919 23.6279 45.8772C23.7027 45.9221 23.8508 45.9602 23.8916 45.9221L23.8933 45.9204Z" fill="white"/>
<path d="M27.7306 23.128C27.6643 23.0848 27.5332 23.09 27.455 23.128C26.9768 23.3545 26.5105 23.6087 26.0289 23.83C25.5184 24.0651 24.9977 24.2726 24.4804 24.4921C24.4923 24.525 24.5042 24.5578 24.5161 24.5924C24.9382 24.4489 25.3551 24.2916 25.7805 24.1654C26.3965 23.9821 26.9513 23.5983 27.6251 23.6035C27.6983 23.6035 27.8089 23.4721 27.8361 23.3804C27.8565 23.3095 27.7953 23.173 27.7289 23.1297L27.7306 23.128Z" fill="white"/>
<path d="M25.3176 21.7259C25.2036 21.6861 25.0556 21.5806 24.979 21.6187C24.4974 21.8624 24.0397 22.1546 23.5598 22.4001C22.9046 22.7373 22.2359 23.0468 21.5739 23.3683C21.5824 23.3925 21.591 23.4167 21.5995 23.4409C21.6403 23.4306 21.6828 23.4237 21.722 23.4081C22.8808 22.9465 24.0397 22.4883 25.1917 22.0146C25.2598 21.9869 25.2768 21.8244 25.3159 21.7241L25.3176 21.7259Z" fill="white"/>
<path d="M16.9777 13.185C16.9147 13.166 16.7922 13.249 16.7412 13.3198C16.6374 13.4616 16.5812 13.6397 16.474 13.778C16.0945 14.2673 15.6997 14.7427 15.3168 15.2268C15.1331 15.4602 14.9629 15.7058 14.7876 15.9461C14.808 15.9634 14.8285 15.9789 14.8489 15.9962C15.1739 15.6452 15.4938 15.2891 15.8257 14.9468C16.2528 14.5076 16.6935 14.0806 17.1189 13.6414C17.1751 13.5844 17.2312 13.4616 17.2074 13.4063C17.1666 13.3129 17.0713 13.2109 16.9777 13.185Z" fill="white"/>
<path d="M12.441 49.1431C12.2589 48.9356 12.0802 48.7264 11.8999 48.5172C11.8556 48.5553 11.8114 48.5898 11.7671 48.6279C12.0768 48.9529 12.3236 49.3264 12.5499 49.7223C12.589 49.7897 12.6758 49.8692 12.7405 49.8692C12.8086 49.8692 12.9124 49.7897 12.9328 49.724C12.9498 49.667 12.8885 49.565 12.8358 49.5079C12.7116 49.3782 12.5584 49.278 12.441 49.1448V49.1431Z" fill="white"/>
<path d="M26.6977 39.8536C26.7862 39.8778 26.9053 39.8726 26.9768 39.8277C27.0261 39.7966 27.0568 39.6496 27.0244 39.596C26.9836 39.5268 26.8781 39.4715 26.793 39.4594C26.4731 39.411 26.1481 39.3989 25.8315 39.3418C24.8224 39.1638 23.8151 38.9719 22.806 38.7851C23.3641 38.9373 23.924 39.0877 24.4821 39.2416C25.2206 39.4456 25.9575 39.6548 26.696 39.8536H26.6977Z" fill="white"/>
<path d="M0.876367 62.7843C0.876367 62.9382 0.813404 63.092 0.813404 63.2459C0.813404 63.3548 0.84914 63.4811 0.912102 63.5675C0.941031 63.6073 1.1112 63.609 1.14523 63.5675C1.2133 63.4845 1.26265 63.36 1.26265 63.2528C1.26265 63.1491 1.16225 63.0488 1.15204 62.9434C1.06015 61.8939 0.978468 60.8444 0.893384 59.795C0.871262 59.9264 0.837228 60.0595 0.837228 60.1909C0.845736 61.0554 0.867858 61.9198 0.874665 62.7843H0.876367Z" fill="white"/>
<path d="M2.89967 15.5709C2.9303 15.5761 2.96263 15.5813 2.99326 15.5847C3.11238 15.1525 3.24171 14.722 3.35402 14.288C3.37444 14.2068 3.3421 14.0979 3.30297 14.0183C3.28595 13.9837 3.15662 13.9578 3.1328 13.9837C3.06984 14.0477 3.00687 14.1376 2.99666 14.2258C2.97624 14.3797 3.01028 14.5405 2.99666 14.6961C2.96773 14.9882 2.9354 15.2804 2.90307 15.5726L2.89967 15.5709Z" fill="white"/>
<path d="M22.2801 49.1137C21.8649 48.8596 21.4344 48.6313 21.0209 48.3737C20.364 47.9622 19.7191 47.5317 19.0674 47.1099L19.0214 47.1808C19.4349 47.4833 19.8603 47.7686 20.2568 48.0919C20.832 48.5605 21.5433 48.8492 22.0045 49.4699C22.0453 49.5252 22.1916 49.5286 22.2784 49.5062C22.3329 49.4923 22.401 49.3886 22.3993 49.3264C22.3958 49.252 22.3431 49.1517 22.2801 49.1137Z" fill="white"/>
<path d="M22.7634 52.167C22.8366 52.1359 22.9132 52.0183 22.9132 51.9388C22.9132 51.8592 22.8417 51.7503 22.7719 51.7002C22.355 51.4097 21.9245 51.14 21.5093 50.8478C21.1145 50.5712 20.7333 50.2773 20.347 49.992L20.2841 50.0733C20.4593 50.2323 20.6346 50.3914 20.8099 50.5522C21.3731 51.0726 21.9347 51.5947 22.5048 52.1082C22.566 52.1635 22.697 52.1964 22.7651 52.167H22.7634Z" fill="white"/>
<path d="M4.58944 8.46503C4.70345 7.96364 4.80896 7.4588 4.93148 6.95914C5.06421 6.42317 5.21736 5.89239 5.34839 5.35643C5.37562 5.24405 5.36881 5.10573 5.32457 5.002C5.30415 4.95359 5.11526 4.91555 5.07612 4.95186C4.99954 5.02447 4.94509 5.14896 4.93318 5.25788C4.90085 5.53623 4.91786 5.82323 4.87702 6.09986C4.76131 6.88133 4.62517 7.66108 4.49585 8.44082C4.52648 8.44947 4.55881 8.45638 4.58944 8.46503Z" fill="white"/>
<path d="M26.0085 27.3725C25.6665 27.4866 25.3364 27.6405 24.9909 27.7321C24.1707 27.95 23.3437 28.1419 22.5201 28.3459C22.5252 28.3701 22.5303 28.3943 22.5354 28.4168C23.1276 28.313 23.7198 28.2128 24.3102 28.1038C24.9177 27.9897 25.5065 27.7563 26.143 27.8186C26.211 27.8255 26.3335 27.72 26.3523 27.6457C26.371 27.5748 26.308 27.452 26.2451 27.3967C26.1957 27.3535 26.0817 27.35 26.0102 27.3725H26.0085Z" fill="white"/>
<path d="M12.5193 56.2939C12.5618 56.3752 12.6673 56.4841 12.732 56.4755C12.8239 56.4634 12.9464 56.3717 12.9787 56.2853C13.0043 56.2127 12.9362 56.0865 12.88 56.0035C12.8018 55.8842 12.6826 55.7908 12.6061 55.6715C12.1347 54.9454 11.6718 54.2158 11.2056 53.4861C11.1852 53.4965 11.1647 53.5052 11.1443 53.5155C11.1784 53.6089 11.2039 53.7092 11.2498 53.7974C11.6701 54.6307 12.0905 55.464 12.521 56.2922L12.5193 56.2939Z" fill="white"/>
<path d="M19.7412 31.5133C19.7616 31.4995 19.7089 31.2954 19.6698 31.2885C19.5796 31.2712 19.4758 31.3162 19.3805 31.3456C19.3073 31.3681 19.2409 31.4182 19.1678 31.432C18.8819 31.4822 18.5943 31.5323 18.3084 31.5824C18.3135 31.6257 18.3203 31.6672 18.3254 31.7104C18.6879 31.6689 19.0725 31.681 19.4349 31.636C19.5421 31.6222 19.6527 31.5755 19.7412 31.515V31.5133Z" fill="white"/>
<path d="M17.17 15.2493C17.0747 15.9409 16.5523 16.112 16.2068 16.444C15.8495 16.7881 15.4853 17.1235 15.1246 17.4623C15.1484 17.4917 15.1722 17.5194 15.1943 17.5488C15.4394 17.3655 15.6878 17.1874 15.9278 16.9955C16.3991 16.6186 16.8569 16.2227 17.3384 15.8596C17.478 15.7542 17.6686 15.6902 17.5665 15.4896C17.5154 15.3876 17.3436 15.3496 17.1683 15.2493H17.17Z" fill="white"/>
<path d="M9.36436 61.5619C9.15505 61.083 8.98318 60.5868 8.7943 60.0993C8.77558 60.1045 8.75516 60.1097 8.73644 60.1148C8.73644 60.1684 8.72453 60.2255 8.73814 60.2739C8.88619 60.7718 9.00871 61.2819 9.1976 61.7642C9.42052 62.3296 9.69959 62.8725 9.96846 63.4171C10.0008 63.4828 10.1199 63.5053 10.1999 63.5485C10.1914 63.4551 10.205 63.3514 10.1693 63.2719C9.9055 62.6996 9.61791 62.1394 9.36436 61.5619Z" fill="white"/>
<path d="M2.13391 8.30251C2.21389 7.66627 2.28536 7.02829 2.37725 6.39378C2.41979 6.10505 2.51339 5.82323 2.56103 5.5345C2.57805 5.42904 2.56444 5.28381 2.50318 5.20774C2.45893 5.15241 2.27175 5.13512 2.2241 5.1818C2.15093 5.25269 2.122 5.391 2.11519 5.50338C2.10839 5.61058 2.18156 5.72123 2.17475 5.82842C2.14242 6.43182 2.09137 7.03521 2.05563 7.6386C2.04202 7.85818 2.05393 8.07948 2.05393 8.29905C2.08116 8.29905 2.10668 8.30078 2.13391 8.30251Z" fill="white"/>
<path d="M9.44264 8.65867C9.51751 8.53073 9.70129 8.45465 9.56856 8.29559C9.50049 8.2126 9.33713 8.21088 9.28949 8.19704C8.87428 9.42285 8.48119 10.5847 8.0881 11.7465C8.11022 11.7552 8.13404 11.7638 8.15617 11.7725C8.42673 11.1085 8.6973 10.4429 8.96787 9.77901C9.12102 9.4021 9.24184 9.00618 9.44264 8.65867Z" fill="white"/>
<path d="M5.11356 14.5733C5.2548 14.1324 5.39093 13.6916 5.54068 13.2541C5.79423 12.5194 6.05969 11.7897 6.31154 11.055C6.33707 10.9789 6.33536 10.8613 6.29282 10.8043C6.25028 10.7472 6.13116 10.7023 6.0631 10.7213C6.00354 10.7386 5.94568 10.8423 5.92696 10.9184C5.81295 11.4146 5.72276 11.916 5.60364 12.4104C5.43007 13.1262 5.23948 13.8385 5.0557 14.5508C5.07442 14.5595 5.09143 14.5664 5.11015 14.575L5.11356 14.5733Z" fill="white"/>
<path d="M16.3362 10.6677C16.4025 10.583 16.4842 10.4688 16.4723 10.3789C16.4638 10.3029 16.3174 10.1784 16.2545 10.1922C16.1592 10.2112 16.0588 10.3167 16.0026 10.4101C15.9005 10.5778 15.8478 10.7783 15.7423 10.9426C15.3696 11.5269 14.9833 12.1027 14.6021 12.6819C14.6362 12.7113 14.6685 12.7389 14.7025 12.7666C14.9493 12.4398 15.1909 12.1113 15.4428 11.7897C15.7372 11.4128 16.0435 11.0446 16.3362 10.6677Z" fill="white"/>
<path d="M3.71818 61.3199C3.58885 60.5765 3.46803 59.8296 3.34381 59.0844C3.30807 59.0896 3.27063 59.0948 3.2349 59.1C3.28255 59.5962 3.3319 60.0906 3.37784 60.5868C3.41528 60.981 3.44421 61.3752 3.48334 61.7677C3.49696 61.8974 3.50717 62.0391 3.56843 62.1446C3.59055 62.1809 3.8458 62.1446 3.85431 62.1083C3.88494 61.9786 3.86792 61.8317 3.8424 61.6968C3.81687 61.5671 3.7403 61.4478 3.71818 61.3182V61.3199Z" fill="white"/>
<path d="M1.17246 58.8596C1.09588 58.1283 1.02271 57.3952 0.947837 56.6622C0.895085 57.4316 0.895085 58.194 0.896787 58.9565C0.896787 59.221 0.90019 59.4838 0.901892 59.7483C1.36985 59.674 1.36985 59.6636 1.22691 59.1951C1.19458 59.0879 1.18437 58.972 1.17416 58.8579L1.17246 58.8596Z" fill="white"/>
<path d="M0.891682 59.7518C0.891682 59.7656 0.893384 59.7812 0.895085 59.795C0.896787 59.7829 0.898489 59.7725 0.90019 59.7604C0.90019 59.757 0.90019 59.7535 0.90019 59.7483C0.896787 59.7483 0.893384 59.7483 0.88998 59.7483L0.891682 59.7518Z" fill="white"/>
<path d="M28.1084 37.6561C28.156 37.6112 28.1799 37.4573 28.1458 37.4227C28.0676 37.3449 27.9501 37.2741 27.8429 37.2654C27.5366 37.2429 27.2286 37.2671 26.9223 37.2464C26.3114 37.2032 25.7022 37.1392 25.093 37.0839C25.0896 37.1115 25.0862 37.1375 25.0845 37.1651C25.532 37.2447 25.9847 37.3069 26.4288 37.4072C26.9002 37.5126 27.4039 37.4884 27.8344 37.7772C27.8821 37.81 28.0386 37.7253 28.1101 37.6579L28.1084 37.6561Z" fill="white"/>
<path d="M23.017 53.8302C22.6817 53.5778 22.3278 53.353 21.996 53.0971C21.6454 52.8274 21.3102 52.5335 20.9698 52.25C20.946 52.2742 20.9222 52.3001 20.9001 52.3243C21.0005 52.4505 21.0907 52.5871 21.2047 52.6995C21.7067 53.2026 22.2104 53.704 22.7243 54.195C22.7889 54.2573 22.9234 54.2763 23.017 54.2624C23.0697 54.2538 23.1446 54.1362 23.1412 54.0705C23.1378 53.9875 23.085 53.8803 23.0204 53.8302H23.017Z" fill="white"/>
<path d="M24.3136 25.0195C24.1418 25.0869 23.9886 25.2062 23.8151 25.2719C23.0663 25.5537 22.3125 25.8234 21.5603 26.0966C21.5705 26.1277 21.579 26.1588 21.5893 26.1899C22.0368 26.0603 22.4809 25.9185 22.9319 25.8044C23.4305 25.6764 23.9376 25.5762 24.4362 25.45C24.5195 25.4292 24.6114 25.3445 24.6455 25.265C24.6693 25.2079 24.6268 25.0765 24.574 25.0402C24.5093 24.997 24.3902 24.9901 24.3136 25.0195Z" fill="white"/>
<path d="M11.2277 58.9651C10.9963 58.5018 10.787 58.0263 10.5623 57.5595C10.4892 57.4073 10.3922 57.2673 10.3054 57.1203C10.2765 57.1342 10.2458 57.1497 10.2169 57.1636C10.302 57.3728 10.3922 57.582 10.4705 57.7946C10.6934 58.4049 10.9044 59.0204 11.1341 59.629C11.1681 59.7172 11.2719 59.8036 11.3621 59.8365C11.42 59.8572 11.5697 59.7881 11.5782 59.7414C11.597 59.6325 11.5834 59.4976 11.5323 59.4008C11.4506 59.2452 11.306 59.1224 11.2277 58.9651Z" fill="white"/>
<path d="M17.4269 50.5332C17.5188 50.6248 17.5784 50.7475 17.6635 50.8478C17.7332 50.9308 17.82 50.9982 17.8983 51.0726C17.9766 50.9844 18.1025 50.9014 18.1161 50.8029C18.1263 50.7337 17.9919 50.6334 17.9102 50.5625C17.8455 50.5072 17.7503 50.4865 17.6873 50.4311C17.3504 50.1372 17.0202 49.8347 16.6833 49.5425C16.44 49.3298 16.1881 49.1275 15.9397 48.9218C15.926 48.9374 15.9141 48.9512 15.9005 48.9668C15.9737 49.0653 16.0367 49.176 16.1234 49.2607C16.5557 49.6877 16.9947 50.1061 17.4269 50.5349V50.5332Z" fill="white"/>
<path d="M22.6698 38.7575C22.6698 38.7575 22.6698 38.7592 22.6698 38.7609C22.7158 38.7696 22.76 38.7782 22.806 38.7869C22.7634 38.7748 22.7209 38.7644 22.68 38.7523C22.6766 38.754 22.6732 38.7557 22.6698 38.7575Z" fill="white"/>
<path d="M22.1491 38.4203C22.1049 38.4393 22.0385 38.4134 21.984 38.403C21.414 38.2837 20.8473 38.1523 20.2738 38.0503C19.9301 37.9881 19.5779 37.9708 19.2307 37.9328C20.0713 38.1887 20.912 38.4324 21.7662 38.5915C22.064 38.6468 22.3295 38.9632 22.6698 38.7575C22.5779 38.5171 22.4894 38.2786 22.1491 38.4203Z" fill="white"/>
<path d="M19.9386 15.9322C19.8433 16.0308 19.7974 16.1795 19.7004 16.2763C19.3158 16.6618 18.9176 17.0353 18.5262 17.4139C18.55 17.4433 18.5739 17.471 18.5977 17.5004C18.7542 17.3828 18.9125 17.2635 19.0691 17.1459C19.4707 16.8434 19.8774 16.546 20.2704 16.2313C20.3674 16.1535 20.4508 16.0308 20.4832 15.9132C20.4951 15.8683 20.33 15.7109 20.2687 15.723C20.1479 15.7472 20.0288 15.8389 19.9386 15.9322Z" fill="white"/>
<path d="M18.8768 52.0442C18.7134 51.8921 18.5398 51.7503 18.3697 51.6051L18.288 51.6984C18.4956 51.9249 18.7083 52.148 18.9108 52.3814C19.2511 52.7738 19.5796 53.1749 19.9284 53.5605C19.9812 53.6193 20.1156 53.64 20.199 53.621C20.2619 53.6072 20.3368 53.5052 20.347 53.4326C20.3572 53.3634 20.3113 53.2562 20.2551 53.2113C20.1258 53.1092 19.9573 53.0556 19.8348 52.9467C19.5081 52.6563 19.1984 52.3433 18.8785 52.046L18.8768 52.0442Z" fill="white"/>
<path d="M2.44191 9.42804C2.40448 9.99339 2.34492 10.5588 2.29557 11.1241C2.31259 11.1258 2.3279 11.1293 2.34492 11.131C2.40278 10.8215 2.46063 10.5121 2.51849 10.2026C2.64612 9.50411 2.77715 8.80735 2.89626 8.10714C2.91158 8.01897 2.87584 7.90313 2.82139 7.83224C2.79076 7.79248 2.64612 7.78383 2.60698 7.82187C2.54402 7.87892 2.50147 7.98612 2.49637 8.07429C2.47084 8.52554 2.47255 8.97852 2.44362 9.42977L2.44191 9.42804Z" fill="white"/>
<path d="M18.8053 40.2374C18.824 40.2495 18.8393 40.2651 18.8598 40.272C19.8416 40.6541 20.8235 41.0379 21.8088 41.4114C21.8717 41.4356 21.9925 41.3958 22.0385 41.3439C22.0861 41.2903 22.1083 41.1693 22.081 41.1036C22.0538 41.0414 21.9551 40.9895 21.8785 40.9739C21.5025 40.8961 21.1162 40.8581 20.7469 40.7596C20.1037 40.5867 19.469 40.3775 18.8325 40.1838C18.824 40.2028 18.8155 40.2219 18.807 40.2392L18.8053 40.2374Z" fill="white"/>
<path d="M11.6786 52.3209C12.1024 53.0971 12.5227 53.8734 12.9549 54.6445C12.9958 54.7189 13.1081 54.788 13.1897 54.7898C13.2561 54.7898 13.365 54.6999 13.382 54.6307C13.4008 54.5529 13.3582 54.4371 13.3038 54.3696C13.1948 54.233 13.0417 54.1293 12.9379 53.9893C12.6775 53.6366 12.441 53.2666 12.1858 52.9122C12.0326 52.6995 11.8607 52.5007 11.6974 52.2949C11.6906 52.3036 11.6855 52.3122 11.6786 52.3209Z" fill="white"/>
<path d="M23.9716 21.9437C24.0295 21.9437 24.1333 21.7864 24.1367 21.6965C24.1418 21.61 24.0635 21.4873 23.9869 21.4406C23.9359 21.4095 23.8116 21.47 23.7385 21.5184C23.6211 21.5962 23.5258 21.712 23.4066 21.7846C22.9115 22.082 22.4095 22.3673 21.9092 22.6577C21.9228 22.6889 21.9347 22.7183 21.9483 22.7494C22.1916 22.6456 22.4299 22.5333 22.6766 22.4416C23.1089 22.2808 23.4696 21.9351 23.9716 21.9437Z" fill="white"/>
<path d="M4.73578 57.1636C4.7494 57.2379 4.80385 57.3365 4.86341 57.3607C4.92807 57.3866 5.0574 57.3607 5.09143 57.3123C5.13057 57.2552 5.11526 57.1394 5.08973 57.0616C5.054 56.9578 4.96211 56.8714 4.93488 56.7659C4.6558 55.7044 4.38524 54.6411 4.11297 53.5778C4.09255 53.5864 4.07213 53.5933 4.05 53.602C4.16572 54.1552 4.28824 54.7085 4.39374 55.2635C4.51456 55.8963 4.61667 56.5308 4.73578 57.1636Z" fill="white"/>
<path d="M24.266 40.476C24.3205 40.4224 24.3477 40.2789 24.3136 40.2115C24.2796 40.1423 24.1605 40.0939 24.072 40.0801C23.7487 40.0265 23.4186 40.0075 23.0969 39.9418C22.5439 39.8277 21.9943 39.6876 21.4429 39.558L21.4225 39.634C21.6301 39.7066 21.8377 39.781 22.0453 39.8536C22.6953 40.0801 23.342 40.3118 23.9954 40.5279C24.0754 40.5538 24.2081 40.5313 24.2643 40.4777L24.266 40.476Z" fill="white"/>
<path d="M11.0677 13.5584C10.9997 13.5584 10.9027 13.6241 10.8703 13.6881C10.6474 14.1272 10.4432 14.5768 10.222 15.0159C9.99228 15.4741 9.75064 15.9271 9.51241 16.3835C9.53963 16.3939 9.56516 16.4042 9.59239 16.4146C9.78808 16.0999 9.97526 15.7801 10.1795 15.4706C10.5266 14.9398 10.8857 14.416 11.2345 13.8835C11.2719 13.8264 11.3094 13.7175 11.2822 13.6777C11.2396 13.6138 11.1426 13.555 11.0677 13.5567V13.5584Z" fill="white"/>
<path d="M18.8512 18.4167C18.7781 18.396 18.659 18.4444 18.5926 18.5014C18.3595 18.7037 18.1467 18.9319 17.9136 19.1342C17.5546 19.4489 17.1853 19.7497 16.8211 20.0574C16.8416 20.0799 16.8603 20.1024 16.8807 20.1249C16.9368 20.092 16.9947 20.0626 17.0492 20.0281C17.6567 19.6425 18.2659 19.2587 18.8683 18.8645C18.9431 18.8161 19.0231 18.7072 19.0214 18.6259C19.0214 18.5516 18.9261 18.4374 18.8512 18.4167Z" fill="white"/>
<path d="M7.95707 10.1058C8.21232 9.5456 8.47098 8.98889 8.71602 8.42353C8.74835 8.34919 8.73133 8.21779 8.68369 8.15382C8.63434 8.08639 8.48459 8.01378 8.44035 8.04144C8.35016 8.0985 8.27358 8.21433 8.23955 8.32153C8.20041 8.44428 8.23444 8.58951 8.20041 8.71399C8.04215 9.28627 7.87198 9.85508 7.70522 10.4256C7.73415 10.436 7.76308 10.4481 7.79201 10.4585C7.84646 10.3409 7.90261 10.2216 7.95707 10.104V10.1058Z" fill="white"/>
<path d="M13.5471 13.2196C13.593 13.1573 13.6322 13.0225 13.6016 12.9827C13.5403 12.9049 13.4263 12.8323 13.3344 12.8323C13.2697 12.8323 13.1863 12.9464 13.1455 13.0277C13.0451 13.2247 12.9821 13.4409 12.8715 13.6328C12.5635 14.1687 12.2419 14.6943 11.9254 15.2234C11.9475 15.2407 11.9696 15.2597 11.9935 15.277C12.1381 15.0764 12.2776 14.8741 12.4274 14.677C12.8001 14.1912 13.1812 13.7106 13.5505 13.2196H13.5471Z" fill="white"/>
<path d="M24.7323 35.6938C24.8361 35.7076 24.9569 35.6696 25.0539 35.6212C25.093 35.6022 25.1185 35.4466 25.0947 35.4276C25.0045 35.3584 24.8922 35.2806 24.7884 35.2771C24.5485 35.272 24.3068 35.3256 24.0652 35.3273C23.3607 35.3359 22.6579 35.3307 22.0572 35.3307C22.7362 35.3999 23.5139 35.476 24.2898 35.5641C24.4413 35.5814 24.5825 35.6731 24.734 35.6921L24.7323 35.6938Z" fill="white"/>
<path d="M24.1094 30.3739C23.9597 30.4033 23.8202 30.4898 23.6704 30.5157C22.9778 30.6333 22.2852 30.737 21.5263 30.8563C21.6233 30.877 21.6539 30.8909 21.6845 30.8909C22.5303 30.8667 23.3743 30.8442 24.2184 30.8062C24.2949 30.8027 24.3885 30.7093 24.4311 30.6315C24.4566 30.5866 24.4174 30.4621 24.3698 30.4293C24.2983 30.3826 24.1894 30.3566 24.106 30.3722L24.1094 30.3739Z" fill="white"/>
<path d="M19.0367 34.4784C18.9006 34.468 18.7611 34.5009 18.6232 34.5043C18.6232 34.5216 18.6232 34.5389 18.6232 34.5562C18.6232 34.6115 18.6232 34.6668 18.6232 34.7222C18.7508 34.7308 18.8768 34.7412 19.0044 34.7498C19.0742 34.755 19.1507 34.6599 19.2239 34.6115C19.1627 34.5648 19.1031 34.4836 19.0367 34.4784Z" fill="white"/>
<path d="M11.6872 18.4011C11.8029 18.2697 11.922 18.1383 12.036 18.0052C12.6044 17.3482 13.1744 16.6912 13.7394 16.0291C13.7802 15.9806 13.8109 15.8786 13.7887 15.8268C13.7632 15.7663 13.6764 15.7058 13.6118 15.6988C13.5522 15.6936 13.4637 15.7438 13.4263 15.7974C13.3701 15.8769 13.365 15.9928 13.3089 16.0706C12.7575 16.833 12.1994 17.592 11.6429 18.351C11.6582 18.3666 11.6718 18.3839 11.6872 18.3994V18.4011Z" fill="white"/>
<path d="M3.49185 58.3323C3.5361 58.2684 3.52929 58.1456 3.50717 58.0574C3.44761 57.8085 3.35742 57.5681 3.29786 57.3192C3.18215 56.8247 3.08175 56.3268 2.97454 55.8288C2.95072 55.834 2.9286 55.8392 2.90477 55.8444C2.90477 55.8894 2.90137 55.9343 2.90477 55.9793C2.96433 56.7262 3.02049 57.473 3.09026 58.2199C3.09876 58.3064 3.17364 58.4361 3.2383 58.4516C3.31147 58.4706 3.4408 58.4032 3.49015 58.334L3.49185 58.3323Z" fill="white"/>
<path d="M22.5932 35.6454C22.5609 35.5901 22.4503 35.5607 22.3703 35.5572C22.2274 35.5503 22.0844 35.5814 21.9415 35.5745C21.0464 35.5382 20.1513 35.4967 19.2562 35.457C19.2511 35.4777 19.246 35.5002 19.2409 35.5209C20.0543 35.6005 20.8677 35.6748 21.6794 35.7664C21.8973 35.7906 22.1066 35.8754 22.3244 35.9151C22.3993 35.929 22.5116 35.9255 22.5558 35.8788C22.6018 35.8304 22.6239 35.7007 22.5915 35.6454H22.5932Z" fill="white"/>
<path d="M18.077 46.2437C18.1689 46.3129 18.271 46.3665 18.368 46.427C18.4156 46.318 18.4633 46.2091 18.482 46.1659C17.5273 45.5884 16.6595 45.0646 15.7933 44.539C16.3685 45.0144 16.9777 45.4294 17.5835 45.8512C17.7554 45.9705 17.9102 46.1158 18.077 46.242V46.2437Z" fill="white"/>
<path d="M9.89869 54.8606C9.95825 54.8676 10.0672 54.8192 10.0825 54.7707C10.1046 54.6999 10.0825 54.5961 10.0433 54.5287C9.96676 54.3973 9.84764 54.2918 9.77447 54.1587C9.36266 53.4101 8.95936 52.6563 8.55266 51.9059C8.53054 51.9163 8.50671 51.9249 8.48459 51.9353C8.60371 52.1998 8.72623 52.4626 8.84365 52.7289C9.14144 53.3963 9.43413 54.0653 9.73703 54.7292C9.76426 54.788 9.83913 54.8555 9.89699 54.8624L9.89869 54.8606Z" fill="white"/>
<path d="M3.0307 53.3012C3.06813 53.6158 3.10387 53.9322 3.14471 54.2451C3.2349 54.9281 3.32509 55.6093 3.42379 56.2905C3.4357 56.3665 3.50206 56.4513 3.56673 56.4979C3.59906 56.5221 3.71307 56.4893 3.7403 56.4495C3.78454 56.3856 3.81858 56.2818 3.79816 56.2109C3.7403 55.9948 3.63309 55.7908 3.58204 55.573C3.40677 54.814 3.24511 54.0532 3.08005 53.2925C3.06303 53.296 3.04601 53.2977 3.0307 53.3012Z" fill="white"/>
<path d="M15.8137 22.5263C16.4689 22.1028 17.1257 21.6809 17.7707 21.2418C17.8421 21.1933 17.849 21.0412 17.8847 20.9375C17.7741 20.9357 17.6499 20.8994 17.558 20.9409C17.4627 20.9859 17.4099 21.1173 17.3197 21.1882C16.7122 21.6636 16.1013 22.1322 15.4904 22.6024C15.5023 22.6249 15.5125 22.6491 15.5245 22.6716C15.6214 22.6232 15.7235 22.5834 15.8137 22.5246V22.5263Z" fill="white"/>
<path d="M21.6811 29.8552C21.6999 29.812 21.6437 29.6962 21.591 29.6668C21.5263 29.6305 21.4259 29.6322 21.351 29.653C21.2268 29.6858 21.1145 29.7636 20.9903 29.7965C20.2653 29.9832 19.537 30.1613 18.8104 30.3428C18.8121 30.3618 18.8138 30.3808 18.8172 30.3999C18.8717 30.3999 18.9278 30.4068 18.9823 30.3999C19.8195 30.2771 20.6567 30.1561 21.4923 30.0212C21.5654 30.0091 21.6505 29.9261 21.6828 29.8552H21.6811Z" fill="white"/>
<path d="M2.30918 13.9699C2.41469 13.4685 2.55593 12.9741 2.66994 12.4727C2.68355 12.4104 2.65292 12.305 2.60528 12.2687C2.54402 12.222 2.43 12.1891 2.36704 12.2168C2.30748 12.2445 2.25303 12.3551 2.24962 12.4312C2.23601 12.6888 2.26834 12.9481 2.24452 13.204C2.17645 13.9267 2.08967 14.6459 2.00969 15.3686C2.02841 15.3686 2.04542 15.3721 2.06414 15.3738C2.14412 14.9053 2.21049 14.4333 2.30918 13.9699Z" fill="white"/>
<path d="M11.551 53.538C11.5885 53.6037 11.6838 53.6573 11.7603 53.6729C11.8029 53.6815 11.9033 53.6106 11.9101 53.5657C11.9203 53.4879 11.8965 53.3876 11.8505 53.3254C11.7535 53.1905 11.6174 53.085 11.5255 52.9485C11.0797 52.2897 10.644 51.6241 10.205 50.9602C10.1829 50.9758 10.1624 50.9913 10.1403 51.0086C10.1812 51.0881 10.222 51.1677 10.2646 51.2455C10.6917 52.0114 11.1171 52.7773 11.551 53.5398V53.538Z" fill="white"/>
<path d="M11.4642 15.379C11.4404 15.3167 11.3502 15.232 11.3009 15.2389C11.2294 15.2493 11.1426 15.3202 11.1069 15.3876C11.015 15.564 10.9639 15.7628 10.8635 15.934C10.4994 16.565 10.1216 17.1874 9.75064 17.8133C9.77106 17.8254 9.79318 17.8375 9.8136 17.8513C9.93442 17.6785 10.0535 17.5021 10.1778 17.3309C10.5964 16.75 11.0167 16.1726 11.4319 15.5899C11.4693 15.5363 11.4864 15.4378 11.4642 15.379Z" fill="white"/>
<path d="M22.0521 42.3346C22.11 42.2966 22.1474 42.1565 22.1236 42.0839C22.1015 42.0148 21.996 41.9542 21.9143 41.9318C21.7016 41.8713 21.4786 41.847 21.2676 41.7814C20.7571 41.6223 20.2534 41.4477 19.7463 41.28C19.7361 41.3059 19.7259 41.3318 19.7157 41.3578C19.988 41.4788 20.2619 41.5964 20.5308 41.7243C20.9494 41.9231 21.3629 42.1341 21.7832 42.3277C21.8615 42.364 21.9908 42.3761 22.0538 42.3329L22.0521 42.3346Z" fill="white"/>
<path d="M5.09994 9.40037C5.06761 9.35024 4.92467 9.31739 4.87192 9.34851C4.80215 9.38827 4.73919 9.49374 4.72727 9.58018C4.67282 9.97092 4.64219 10.3668 4.59114 10.7593C4.54349 11.1172 4.47883 11.4716 4.42097 11.8278C4.4482 11.8347 4.47372 11.8416 4.50095 11.8485C4.57583 11.5546 4.64219 11.2572 4.72727 10.9668C4.8532 10.5345 4.99784 10.1092 5.12377 9.677C5.14759 9.59229 5.14589 9.47126 5.10164 9.4021L5.09994 9.40037Z" fill="white"/>
<path d="M16.5353 47.8084C16.5948 47.7876 16.6697 47.6995 16.668 47.6441C16.6663 47.5698 16.6101 47.4764 16.5489 47.4315C16.4314 47.3485 16.2834 47.3104 16.1677 47.224C15.5908 46.79 15.0191 46.3492 14.4456 45.91C14.4303 45.929 14.415 45.9481 14.3996 45.9671C14.5647 46.1192 14.7315 46.2714 14.8948 46.4252C15.3713 46.8713 15.8461 47.3208 16.3276 47.7617C16.3753 47.8049 16.4757 47.8291 16.5336 47.8084H16.5353Z" fill="white"/>
<path d="M14.4013 50.1338C14.4609 50.1217 14.5494 50.0456 14.5528 49.992C14.5579 49.9159 14.5171 49.8139 14.4609 49.7603C14.369 49.6721 14.2329 49.6324 14.1444 49.5425C13.6169 48.9996 13.0962 48.4463 12.5737 47.8983C12.5601 47.9104 12.5482 47.9242 12.5363 47.9363C12.5261 47.9484 12.5159 47.9605 12.5057 47.9709C12.6469 48.1455 12.7881 48.3201 12.9294 48.4948C13.3531 49.0152 13.7751 49.539 14.2056 50.056C14.2465 50.1061 14.3401 50.1459 14.3996 50.1338H14.4013Z" fill="white"/>
<path d="M20.5648 28.6104C20.4985 28.5741 20.393 28.5724 20.3198 28.5983C20.2296 28.6294 20.1615 28.728 20.0696 28.7557C19.3856 28.9614 18.6998 29.1602 18.014 29.359C18.0174 29.3833 18.0208 29.4075 18.0242 29.4317C18.0838 29.4247 18.1416 29.4161 18.2012 29.404C18.9567 29.2588 19.7123 29.1135 20.4661 28.9579C20.5393 28.9424 20.6278 28.8715 20.655 28.8041C20.6737 28.7557 20.6193 28.6381 20.5665 28.607L20.5648 28.6104Z" fill="white"/>
<path d="M25.4861 31.515C25.3823 31.5323 25.2853 31.617 25.1815 31.6274C24.5927 31.6862 24.0022 31.7329 23.4135 31.783C23.4135 31.8141 23.4135 31.8452 23.4135 31.8746C23.7674 31.8746 24.1214 31.8694 24.4753 31.8746C24.8156 31.8815 25.1543 31.904 25.4946 31.9127C25.5848 31.9144 25.7328 31.9161 25.755 31.8694C25.7975 31.7778 25.8026 31.636 25.7584 31.5479C25.7345 31.4995 25.5763 31.4995 25.4844 31.515H25.4861Z" fill="white"/>
<path d="M5.65469 52.4246C5.70744 52.5975 5.7636 52.7687 5.81125 52.9415C6.01205 53.6694 6.20774 54.399 6.41364 55.1252C6.43406 55.1995 6.50213 55.286 6.5702 55.3119C6.62125 55.3326 6.73015 55.286 6.76589 55.2358C6.79992 55.1874 6.78971 55.0854 6.76249 55.0232C6.70293 54.89 6.60253 54.7759 6.55148 54.6411C6.2673 53.8907 5.99333 53.1352 5.71595 52.3814C5.69553 52.3952 5.67341 52.409 5.65299 52.4229L5.65469 52.4246Z" fill="white"/>
<path d="M1.14013 52.741C1.12141 52.741 1.10269 52.741 1.08567 52.741C1.1078 53.0539 1.13502 53.3686 1.14523 53.6815C1.16565 54.3005 1.16906 54.9194 1.19118 55.5384C1.19288 55.6058 1.24563 55.6974 1.30179 55.7268C1.35284 55.7545 1.45834 55.7389 1.50599 55.7009C1.55364 55.6629 1.58086 55.5678 1.57406 55.5021C1.56555 55.4174 1.49578 55.3396 1.48387 55.2531C1.36645 54.4163 1.25414 53.5778 1.14183 52.741H1.14013Z" fill="white"/>
<path d="M1.18948 10.0868C1.12651 10.1369 1.09078 10.2562 1.09078 10.3461C1.09078 10.7507 1.1078 11.1552 1.1163 11.5598C1.12141 11.8036 1.1163 12.0456 1.1163 12.2894C1.14693 12.2894 1.17756 12.2911 1.20819 12.2929C1.22351 12.2531 1.24733 12.2168 1.25244 12.1753C1.34263 11.5598 1.43622 10.9443 1.5162 10.3288C1.52641 10.251 1.49408 10.13 1.43792 10.0919C1.37836 10.0504 1.24223 10.0453 1.18948 10.0885V10.0868Z" fill="white"/>
<path d="M20.2738 13.1677C20.1871 13.1331 20.0526 13.1539 19.9624 13.2023C19.7514 13.3147 19.5591 13.4599 19.3532 13.5826C19.149 13.7054 18.938 13.8143 18.7304 13.9301C18.744 13.9682 18.7576 14.0062 18.7713 14.0425C18.8649 14.027 18.9601 14.0183 19.0503 13.9924C19.44 13.8766 19.8314 13.7624 20.216 13.6276C20.2943 13.5999 20.3828 13.4927 20.393 13.4132C20.4032 13.3337 20.3385 13.1936 20.2721 13.1677H20.2738Z" fill="white"/>
<path d="M4.48734 13.325C4.44309 13.2749 4.31377 13.2541 4.2508 13.2818C4.18954 13.3095 4.13679 13.4132 4.12318 13.491C4.06021 13.8904 4.01597 14.2932 3.95471 14.6926C3.90026 15.0349 3.839 15.3773 3.77944 15.7179C3.80496 15.723 3.83219 15.7265 3.85771 15.7317C3.87133 15.6919 3.88494 15.6539 3.89685 15.6141C4.10446 14.9347 4.31377 14.2552 4.51286 13.574C4.53498 13.4962 4.53328 13.3769 4.48734 13.325Z" fill="white"/>
<path d="M19.6629 39.3972C19.7191 39.3453 19.7736 39.2329 19.7548 39.169C19.7361 39.105 19.6289 39.0445 19.5523 39.0289C19.3566 38.9909 19.1541 38.9943 18.9584 38.9546C18.6504 38.8906 18.3424 38.8214 18.0344 38.7523C18.0208 38.7955 18.0089 38.8387 17.9953 38.882C18.482 39.0566 18.9653 39.2433 19.4519 39.4145C19.5149 39.4369 19.6221 39.4352 19.6646 39.3954L19.6629 39.3972Z" fill="white"/>
<path d="M22.1423 37.7253C22.2138 37.7443 22.3329 37.727 22.3737 37.6786C22.4265 37.6164 22.4639 37.4832 22.4316 37.4193C22.3958 37.3501 22.2784 37.2965 22.1899 37.2879C21.8853 37.2602 21.5773 37.2602 21.2727 37.2377C20.9307 37.2118 20.5904 37.172 20.2483 37.1375C20.2449 37.1565 20.2415 37.1738 20.2364 37.1928C20.4917 37.2585 20.7486 37.3173 21.0022 37.3899C21.3816 37.4988 21.7594 37.6216 22.1406 37.7253H22.1423Z" fill="white"/>
<path d="M20.7027 42.9708C20.735 42.9622 20.7741 42.8101 20.7469 42.7686C20.6874 42.6787 20.5955 42.5888 20.4985 42.5524C20.2926 42.4764 20.0713 42.447 19.862 42.3796C19.4911 42.2603 19.1252 42.1254 18.7577 41.9975C18.7525 42.0113 18.7491 42.0251 18.744 42.0372C19.2954 42.3484 19.8433 42.6666 20.3998 42.9674C20.4815 43.0123 20.6074 42.9968 20.7044 42.9708H20.7027Z" fill="white"/>
<path d="M18.6453 43.939C18.6998 43.9062 18.7542 43.7973 18.7389 43.742C18.7202 43.6728 18.6368 43.6054 18.5671 43.5742C18.4786 43.5345 18.3663 43.55 18.2795 43.5085C17.6805 43.2233 17.0832 42.9294 16.4859 42.6389C16.474 42.6648 16.4621 42.6925 16.4502 42.7202C16.474 42.7374 16.4978 42.7547 16.5233 42.7703C17.1581 43.1576 17.7945 43.5431 18.4326 43.9235C18.4905 43.9581 18.5943 43.9719 18.6436 43.9425L18.6453 43.939Z" fill="white"/>
<path d="M12.7745 18.2663C12.6554 18.4081 12.5771 18.5861 12.4648 18.7348C12.2249 19.0547 11.9815 19.3711 11.7365 19.6875L11.825 19.7583C12.2385 19.3417 12.6503 18.925 13.0536 18.4997C13.0962 18.4547 13.0332 18.3078 13.0196 18.2092C12.9345 18.2265 12.8154 18.2144 12.7711 18.2663H12.7745Z" fill="white"/>
<path d="M22.1627 33.1385C22.6018 33.1852 23.0408 33.2318 23.4798 33.2647C23.5564 33.2699 23.6772 33.2301 23.7044 33.1748C23.7419 33.097 23.7402 32.9673 23.6976 32.8912C23.6687 32.8376 23.5428 32.8152 23.4628 32.8204C23.3318 32.829 23.2041 32.8843 23.0731 32.8964C22.6562 32.9362 22.2393 32.9673 21.8207 33.0002C21.8173 33.0244 21.8122 33.0486 21.8088 33.0728C21.9262 33.0952 22.0419 33.1246 22.161 33.1385H22.1627Z" fill="white"/>
<path d="M8.56287 53.0366C8.54245 53.0453 8.52203 53.0539 8.50161 53.0626C8.52543 53.1559 8.54415 53.2528 8.57648 53.3444C8.74325 53.8198 8.90661 54.2987 9.08699 54.769C9.11762 54.8468 9.22823 54.9384 9.3014 54.9384C9.37968 54.9384 9.48348 54.8485 9.52432 54.7707C9.55155 54.7171 9.5039 54.6048 9.46306 54.5391C9.35926 54.3731 9.22482 54.2261 9.12613 54.0584C8.93043 53.723 8.75005 53.379 8.56287 53.0384V53.0366Z" fill="white"/>
<path d="M10.1437 52.5802C10.1676 52.5456 10.125 52.4402 10.0859 52.3866C9.98718 52.2517 9.85955 52.1359 9.77106 51.9958C9.45625 51.4979 9.15165 50.9948 8.84365 50.4934C8.81982 50.5055 8.796 50.5176 8.77217 50.528C8.87257 50.7268 8.97468 50.9239 9.07167 51.1244C9.3048 51.6085 9.53113 52.0961 9.76936 52.5785C9.79999 52.639 9.88167 52.7202 9.93102 52.7151C10.0076 52.7064 10.0978 52.6459 10.1437 52.5802Z" fill="white"/>
<path d="M8.11873 17.1719C8.46417 16.6186 8.80791 16.0654 9.14484 15.5069C9.18398 15.4412 9.17888 15.3202 9.14484 15.2476C9.12442 15.2044 8.9968 15.1784 8.93894 15.2009C8.87257 15.2251 8.80961 15.3046 8.78068 15.3755C8.71772 15.5294 8.6922 15.6971 8.62583 15.8493C8.43524 16.2798 8.23785 16.7051 8.04045 17.1321C8.06598 17.1442 8.0932 17.158 8.11873 17.1701V17.1719Z" fill="white"/>
<path d="M7.46869 14.1117C7.42104 14.0494 7.32064 13.9768 7.26108 13.9907C7.19812 14.0062 7.13345 14.1082 7.10963 14.186C7.00413 14.5163 6.92074 14.8534 6.81694 15.1819C6.69953 15.5553 6.56679 15.9236 6.44087 16.2936C6.4681 16.3005 6.49703 16.3057 6.52425 16.3126C6.60083 16.138 6.6723 15.9599 6.75568 15.7887C6.99562 15.2977 7.24577 14.8102 7.4823 14.3157C7.50953 14.2604 7.50442 14.1566 7.47039 14.11L7.46869 14.1117Z" fill="white"/>
<path d="M7.11474 11.6272C7.14877 11.5442 7.15728 11.4007 7.10963 11.342C7.06368 11.2849 6.92074 11.2728 6.83736 11.297C6.78291 11.3126 6.74207 11.4284 6.72505 11.5045C6.67911 11.7102 6.66209 11.9246 6.61104 12.1303C6.50894 12.5436 6.39322 12.9533 6.28431 13.3648C6.30814 13.3734 6.33026 13.3804 6.35408 13.389C6.42045 13.2282 6.48341 13.0657 6.55488 12.9049C6.74207 12.4796 6.93776 12.056 7.11644 11.6272H7.11474Z" fill="white"/>
<path d="M15.9499 21.1778C15.9329 21.1 15.8699 21.0101 15.8001 20.972C15.7593 20.9496 15.6521 20.998 15.6061 21.0464C15.4836 21.1726 15.39 21.3299 15.2607 21.4492C14.9816 21.7068 14.6991 21.9575 14.415 22.2065C14.4405 22.2359 14.4643 22.2653 14.4898 22.2964C14.9442 21.9869 15.3985 21.6792 15.8512 21.3645C15.9039 21.3282 15.9618 21.2314 15.9499 21.1778Z" fill="white"/>
<path d="M2.2224 54.7068C2.28196 54.7275 2.38576 54.7016 2.4283 54.6566C2.46914 54.6134 2.48446 54.5097 2.46574 54.4474C2.43 54.3316 2.3296 54.233 2.30918 54.1172C2.2224 53.6435 2.14412 53.1698 2.06584 52.6943C2.03351 52.6978 2.00118 52.6995 1.96885 52.7012C2.00969 53.3133 2.05053 53.927 2.09817 54.5391C2.10328 54.6013 2.16794 54.6895 2.2224 54.7085V54.7068Z" fill="white"/>
<path d="M18.9601 36.4874C18.8206 36.4787 18.6777 36.5202 18.5398 36.5081C18.5296 36.5081 18.5211 36.5064 18.5109 36.5047C18.5007 36.5877 18.4888 36.6724 18.4769 36.7554C18.6249 36.7986 18.773 36.8401 18.921 36.8764C18.9925 36.8937 19.1065 36.8729 19.149 36.8228C19.195 36.7709 19.2137 36.643 19.1814 36.5859C19.1473 36.5272 19.0384 36.4926 18.9601 36.4874Z" fill="white"/>
<path d="M7.79201 52.8862C7.83114 52.9001 7.93665 52.8447 7.94856 52.8015C7.97068 52.7237 7.96728 52.6217 7.93495 52.5491C7.8856 52.4419 7.7886 52.3572 7.73245 52.2517C7.54526 51.8938 7.36148 51.5325 7.1777 51.1711C7.13686 51.1919 7.09602 51.2126 7.05518 51.2334C7.23215 51.733 7.40742 52.231 7.59291 52.7272C7.62014 52.798 7.71373 52.8586 7.7903 52.8862H7.79201Z" fill="white"/>
<path d="M13.8126 47.7202C13.7122 47.6389 13.6118 47.5594 13.5131 47.4781C13.4161 47.3969 13.3208 47.3156 13.2255 47.2344C13.2017 47.2569 13.1778 47.2811 13.154 47.3035C13.1251 47.3346 13.0962 47.364 13.0672 47.3952C13.2374 47.5957 13.4093 47.798 13.5862 48.0072C13.6458 47.9311 13.7292 47.8257 13.8126 47.7202Z" fill="white"/>
<path d="M22.1134 43.8422C22.1968 43.8941 22.3431 43.965 22.3856 43.9304C22.4639 43.8664 22.5269 43.7298 22.5184 43.6278C22.5133 43.5535 22.3941 43.4567 22.3074 43.429C22.0776 43.3564 21.836 43.3218 21.6029 43.2613C21.448 43.2198 21.2966 43.1576 21.1451 43.104C21.1332 43.1282 21.1213 43.1541 21.1094 43.1783C21.2149 43.2458 21.3204 43.3114 21.4259 43.3806C21.6556 43.5345 21.8802 43.6953 22.1134 43.8405V43.8422Z" fill="white"/>
<path d="M0.190588 52.7393C0.190588 52.9139 0.190588 53.0816 0.183782 53.2441C0.165063 53.704 0.124223 54.1622 0.105504 54.6221C0.102101 54.6895 0.149748 54.7828 0.2025 54.8209C0.255252 54.8589 0.377774 54.8745 0.413509 54.8399C0.466261 54.7863 0.498593 54.6791 0.490085 54.6013C0.420316 53.9996 0.34374 53.3911 0.263761 52.741C0.239937 52.741 0.216114 52.741 0.190588 52.741V52.7393Z" fill="white"/>
<path d="M17.2789 40.7025C17.2415 40.7803 17.2023 40.8581 17.1632 40.9359C17.2891 40.9999 17.4133 41.0638 17.5409 41.1261C17.6039 41.1572 17.7094 41.133 17.7792 41.1002C17.8217 41.0794 17.8694 40.9705 17.8524 40.9411C17.8115 40.8702 17.7383 40.7976 17.6635 40.7717C17.5512 40.7319 17.4201 40.7475 17.3061 40.7112C17.2976 40.7077 17.2891 40.706 17.2806 40.7025H17.2789Z" fill="white"/>
<path d="M14.4881 20.7265C14.3384 20.8821 14.2108 21.0602 14.0593 21.2141C13.9708 21.3057 13.8789 21.3956 13.7887 21.4873C13.8313 21.5322 13.8704 21.5806 13.913 21.6256C14.1988 21.406 14.4847 21.1864 14.7672 20.9634C14.8166 20.9236 14.854 20.8268 14.8438 20.7646C14.8336 20.7041 14.7553 20.609 14.7093 20.6107C14.6328 20.6142 14.546 20.6678 14.4881 20.7265Z" fill="white"/>
<path d="M1.20819 15.4153C1.27796 15.0712 1.35964 14.7289 1.42771 14.3831C1.43962 14.3209 1.40899 14.2223 1.36305 14.186C1.3103 14.1463 1.19628 14.1255 1.15034 14.1566C1.09248 14.1964 1.04653 14.2984 1.04653 14.3728C1.04313 14.5647 1.08567 14.7566 1.07887 14.9485C1.07376 15.1006 1.06696 15.2545 1.06015 15.4066C1.1095 15.4084 1.16055 15.4118 1.2099 15.4136L1.20819 15.4153Z" fill="white"/>
<path d="M4.53669 52.2396C4.57923 52.4523 4.62177 52.6649 4.66942 52.8776C4.68303 52.9398 4.83788 52.9692 4.92807 53.0124C4.9587 52.9173 5.03698 52.805 5.00975 52.7323C4.94169 52.5422 4.86171 52.3554 4.78173 52.1687C4.70005 52.1929 4.61837 52.2171 4.53669 52.2396Z" fill="white"/>
<path d="M14.1716 48.5881C13.9725 48.4308 13.787 48.2562 13.5964 48.0885C13.5794 48.1006 13.5641 48.1144 13.5471 48.1265C13.8143 48.5017 14.0746 48.8838 14.3605 49.2468C14.3979 49.2935 14.5613 49.2365 14.6668 49.2278C14.6498 49.1103 14.6719 48.9564 14.6072 48.8855C14.4898 48.761 14.3112 48.697 14.1733 48.5881H14.1716Z" fill="white"/>
<path d="M2.43341 52.6545C2.45893 52.9104 2.48446 53.1663 2.51509 53.4205C2.52189 53.481 2.6291 53.5294 2.69036 53.583C2.7346 53.5052 2.81799 53.4256 2.81458 53.3496C2.81118 53.2458 2.72269 53.149 2.70397 53.0418C2.67845 52.9052 2.65463 52.7687 2.6308 52.6321C2.56614 52.6407 2.49977 52.6476 2.43511 52.6563L2.43341 52.6545Z" fill="white"/>
<path d="M20.8865 36.209C20.8592 36.1139 20.752 35.9808 20.672 35.9756C20.2653 35.9514 19.8586 35.9653 19.4502 35.9653C19.4417 35.9912 19.4349 36.0189 19.4264 36.0448C19.8467 36.1693 20.2636 36.3041 20.6891 36.4079C20.7401 36.42 20.9001 36.2557 20.8865 36.209Z" fill="white"/>
<path d="M10.8857 17.6594C10.8244 17.6663 10.7529 17.7269 10.7189 17.7839C10.6185 17.9551 10.5419 18.1418 10.4415 18.313C10.3939 18.3942 10.3445 18.4738 10.2952 18.5533C10.3428 18.5913 10.3922 18.6294 10.4398 18.6674C10.644 18.4305 10.8482 18.1937 11.0507 17.9551C11.0899 17.9067 11.1035 17.7943 11.0763 17.7424C11.049 17.6923 10.9486 17.6525 10.8857 17.6594Z" fill="white"/>
<path d="M19.6 34.0029C19.6085 34.0479 19.617 34.0911 19.6255 34.1361C20.085 34.0842 20.5512 33.9078 20.9971 34.1914C21.0226 34.2069 21.1502 34.0565 21.2302 33.9822C21.1587 33.913 21.0821 33.7782 21.0192 33.7868C20.5444 33.8439 20.0731 33.9269 19.6017 34.0029H19.6Z" fill="white"/>
<path d="M21.4582 32.4348C21.2625 32.4625 21.077 32.5697 20.8831 32.5887C20.3742 32.6371 19.862 32.6561 19.3515 32.6855C19.3549 32.7218 19.3566 32.7564 19.36 32.7927C20.2602 32.7114 21.1604 32.6302 22.0606 32.5489C22.0606 32.5091 22.0606 32.4694 22.0606 32.4296C21.8598 32.4296 21.6556 32.4089 21.4582 32.4365V32.4348Z" fill="white"/>
<path d="M6.25198 53.3962C6.2673 53.474 6.37791 53.564 6.45959 53.5864C6.51574 53.602 6.61784 53.5225 6.66719 53.4585C6.70463 53.4101 6.72165 53.2977 6.69102 53.251C6.52085 52.9848 6.33366 52.7289 6.12946 52.4367C6.1703 52.7842 6.19413 53.0937 6.25198 53.3962Z" fill="white"/>
</svg>
