<svg width="35" height="62" viewBox="0 0 35 62" fill="none" xmlns="http://www.w3.org/2000/svg">
<path d="M4.26473 11.7726C4.26643 11.3526 3.87626 10.9292 3.481 10.9223C3.09253 10.917 2.682 11.3422 2.67691 11.7535C2.67182 12.2307 2.98226 12.5466 3.46234 12.5501C3.96787 12.5535 4.26134 12.2672 4.26304 11.7726H4.26473Z" fill="white"/>
<path d="M17.4237 25.2288C17.4152 25.6332 17.785 26.0236 18.1803 26.0288C18.5789 26.034 18.9453 25.6505 18.9419 25.2323C18.9385 24.8245 18.606 24.4757 18.2091 24.4618C17.802 24.4479 17.4304 24.8106 17.4237 25.2288Z" fill="white"/>
<path d="M12.2056 15.521C12.2123 15.0577 11.907 14.728 11.4693 14.7262C11.0724 14.7228 10.6992 15.1063 10.7042 15.5106C10.711 15.9167 11.0978 16.3002 11.4897 16.2881C11.9002 16.2759 12.1988 15.9566 12.2056 15.5228V15.521Z" fill="white"/>
<path d="M19.763 32.2172C19.7511 31.8424 19.3117 31.4259 18.9538 31.4502C18.6111 31.4745 18.2227 31.9049 18.2311 32.2485C18.2413 32.6164 18.6909 33.045 19.0369 33.0172C19.3813 32.9895 19.7732 32.5556 19.763 32.2172Z" fill="white"/>
<path d="M19.2337 44.6045C19.2388 44.1845 18.9368 43.8374 18.5501 43.8183C18.1124 43.7958 17.768 44.1029 17.7392 44.5437C17.7137 44.9359 18.0853 45.3646 18.4669 45.3802C18.8469 45.3975 19.2286 45.0123 19.2337 44.6045Z" fill="white"/>
<path d="M3.7185 8.55692C3.27913 8.54477 2.98396 8.8259 2.96699 9.2719C2.94833 9.7526 3.23842 10.0875 3.67609 10.0962C4.07643 10.1031 4.45303 9.7231 4.45134 9.31355C4.44794 8.90226 4.12563 8.56906 3.7185 8.55865V8.55692Z" fill="white"/>
<path d="M22.1566 38.1002C22.1634 38.482 22.5383 38.8863 22.8911 38.8898C23.2677 38.8933 23.6257 38.4959 23.6206 38.0742C23.6155 37.6299 23.3271 37.3123 22.9183 37.3054C22.5128 37.2985 22.1481 37.6785 22.1549 38.1002H22.1566Z" fill="white"/>
<path d="M20.9013 41.2951C20.8911 40.8508 20.5586 40.5384 20.1108 40.5541C19.7053 40.5697 19.4135 40.8959 19.4186 41.3263C19.4237 41.7306 19.7545 42.0777 20.1396 42.0829C20.5399 42.0881 20.9114 41.7029 20.9013 41.2933V41.2951Z" fill="white"/>
<path d="M11.6152 54.0953C11.9562 53.927 12.3175 53.6354 12.477 53.2988C12.6127 53.0124 12.1139 52.6063 11.7306 52.6029C11.3183 52.5994 10.94 52.9586 10.9367 53.3543C10.935 53.71 11.354 54.2237 11.6152 54.0953Z" fill="white"/>
<path d="M1.82362 53.0124C2.24433 53.0124 2.54968 52.7052 2.55816 52.2766C2.56664 51.841 2.22567 51.4783 1.81175 51.4818C1.39783 51.4853 1.09417 51.7994 1.08569 52.2315C1.07721 52.6896 1.38256 53.0124 1.82362 53.0107V53.0124Z" fill="white"/>
<path d="M21.8869 19.5732C21.5357 19.5697 21.1303 19.9532 21.1099 20.3072C21.0896 20.6751 21.4967 21.0899 21.8767 21.0916C22.2567 21.0916 22.6282 20.7428 22.6435 20.3697C22.6604 19.9706 22.2855 19.5766 21.8852 19.5732H21.8869Z" fill="white"/>
<path d="M10.4413 10.3149C10.4277 10.7071 10.7721 11.0854 11.1538 11.0958C11.5711 11.1079 11.8798 10.799 11.8883 10.3635C11.8968 9.90184 11.6322 9.60336 11.2047 9.59295C10.784 9.58427 10.4566 9.89317 10.4396 10.3149H10.4413Z" fill="white"/>
<path d="M11.6339 7.51221C11.2199 7.51568 10.9129 7.84194 10.9146 8.27578C10.9163 8.70442 11.2284 9.02027 11.6474 9.01679C12.0597 9.01332 12.3769 8.68186 12.3718 8.26016C12.3667 7.86102 12.019 7.50874 11.6339 7.51048V7.51221Z" fill="white"/>
<path d="M8.07483 9.59989C7.70163 9.59294 7.35387 9.95217 7.34708 10.353C7.3386 10.7557 7.6694 11.1114 8.05448 11.1184C8.43277 11.1253 8.78053 10.7695 8.78053 10.3756C8.78053 9.97473 8.44635 9.60683 8.07483 9.60162V9.59989Z" fill="white"/>
<path d="M17.9614 19.8977C17.5221 19.8786 17.2082 20.2083 17.215 20.6804C17.2218 21.1316 17.5102 21.4283 17.9411 21.4266C18.3261 21.4266 18.679 21.0673 18.6807 20.6734C18.6841 20.2899 18.3346 19.915 17.9597 19.8994L17.9614 19.8977Z" fill="white"/>
<path d="M15.8341 41.2256C15.4796 41.2031 15.0725 41.5849 15.0538 41.958C15.0334 42.3415 15.3863 42.7233 15.7731 42.7389C16.148 42.7528 16.4839 42.4369 16.5093 42.043C16.5364 41.6387 16.2158 41.2499 15.8358 41.2256H15.8341Z" fill="white"/>
<path d="M30.5775 24.2466C30.5843 23.8336 30.2552 23.4795 29.8582 23.4726C29.4782 23.4674 29.1186 23.8336 29.1203 24.2223C29.122 24.6214 29.4206 24.9286 29.8158 24.939C30.2705 24.9512 30.569 24.6804 30.5758 24.2466H30.5775Z" fill="white"/>
<path d="M24.5587 30.0376C24.9421 30.0463 25.3153 29.6836 25.2864 29.2879C25.2559 28.8697 25.0337 28.5781 24.613 28.5226C24.2449 28.474 23.8886 28.8471 23.8767 29.2549C23.8632 29.6766 24.1685 30.0272 24.5587 30.0358V30.0376Z" fill="white"/>
<path d="M12.3481 14.7071C12.3141 15.115 12.6517 15.4603 13.0554 15.4638C13.4711 15.469 13.7764 15.1583 13.7747 14.7314C13.7747 14.3132 13.4473 13.9644 13.0487 13.9939C12.6297 14.0251 12.3837 14.2785 12.3481 14.7071Z" fill="white"/>
<path d="M3.13833 49.5399C2.79057 49.5399 2.40379 49.9009 2.38683 50.2445C2.36817 50.602 2.74816 50.9942 3.11967 50.9976C3.51832 51.0028 3.86439 50.6575 3.8559 50.2636C3.84742 49.8991 3.49288 49.5416 3.13833 49.5399Z" fill="white"/>
<path d="M22.0769 27.405C22.4433 27.4137 22.7911 27.0735 22.8029 26.697C22.8131 26.3395 22.4653 25.9386 22.1278 25.9178C21.7783 25.8969 21.3847 26.2943 21.383 26.6709C21.383 27.0649 21.6952 27.3946 22.0769 27.4033V27.405Z" fill="white"/>
<path d="M19.2999 19.7276C19.7104 19.7276 20.0395 19.391 20.0208 18.9918C20.0039 18.6222 19.6561 18.2873 19.2948 18.2925C18.947 18.2977 18.5653 18.6638 18.5552 19.0005C18.545 19.3649 18.9148 19.7276 19.2999 19.7276Z" fill="white"/>
<path d="M9.66266 10.3687C9.25044 10.4034 8.97732 10.6134 8.99258 11.0871C8.99089 11.5036 9.3149 11.8646 9.68641 11.8576C10.024 11.8524 10.3718 11.4776 10.3819 11.1114C10.3921 10.7105 10.0511 10.3357 9.66436 10.3687H9.66266Z" fill="white"/>
<path d="M1.92371 54.9387C1.58613 54.9595 1.24346 55.3552 1.25364 55.7144C1.26551 56.091 1.60988 56.4259 1.9746 56.4155C2.34442 56.4051 2.67521 56.0615 2.67182 55.6884C2.66843 55.324 2.26299 54.9179 1.92201 54.9387H1.92371Z" fill="white"/>
<path d="M20.3991 11.5574C20.031 11.547 19.6663 11.9375 19.6799 12.3262C19.6934 12.6976 20.0361 13.036 20.3924 13.0255C20.7757 13.0151 21.0709 12.6993 21.0709 12.2949C21.0709 11.901 20.7673 11.5661 20.3991 11.5557V11.5574Z" fill="white"/>
<path d="M8.25805 48.0544C7.86788 48.0527 7.55065 48.365 7.54726 48.7572C7.54217 49.1321 7.88145 49.4844 8.24617 49.4844C8.58206 49.4844 8.9841 49.0939 8.9841 48.7659C8.9841 48.431 8.60241 48.0561 8.25805 48.0544Z" fill="white"/>
<path d="M17.5356 11.6181C17.9495 11.6147 18.2227 11.3301 18.221 10.9032C18.221 10.4815 17.9428 10.2003 17.5288 10.2003C17.1183 10.2003 16.8248 10.4971 16.8282 10.9084C16.8316 11.3058 17.1455 11.6199 17.5373 11.6181H17.5356Z" fill="white"/>
<path d="M16.6993 41.2135C17.0844 41.2187 17.4084 40.8959 17.4135 40.5037C17.4186 40.1445 17.0708 39.7801 16.7197 39.7749C16.3583 39.7696 16.0004 40.1237 15.997 40.4898C15.9936 40.8647 16.3278 41.21 16.6993 41.2152V41.2135Z" fill="white"/>
<path d="M25.6155 26.0063C25.9854 25.9941 26.3043 25.6453 26.2924 25.267C26.2788 24.8644 25.9701 24.5746 25.5647 24.5833C25.1881 24.5919 24.8657 24.9338 24.8759 25.3104C24.8861 25.6731 25.2525 26.0167 25.6155 26.0045V26.0063Z" fill="white"/>
<path d="M11.4897 55.7942C11.4642 55.3569 11.1334 55.0081 10.7025 55.022C10.3582 55.0827 10.1003 55.3031 10.1003 55.7283C10.1003 56.1604 10.3684 56.3877 10.767 56.419C11.1199 56.4468 11.5066 56.0875 11.4897 55.7942Z" fill="white"/>
<path d="M5.52007 51.8723C5.53703 51.5096 5.19266 51.1417 4.82624 51.1313C4.45812 51.1208 4.09849 51.4662 4.12224 51.8428C4.14768 52.2541 4.38857 52.5109 4.77535 52.5751C5.08749 52.6272 5.5031 52.2089 5.52007 51.8723Z" fill="white"/>
<path d="M15.8189 19.3597C15.7816 18.9658 15.5983 18.6847 15.1539 18.6864C14.7451 18.6864 14.4261 18.9693 14.4177 19.3545C14.4092 19.7363 14.7247 20.0504 15.1234 20.0521C15.5288 20.0556 15.8562 19.7502 15.8189 19.358V19.3597Z" fill="white"/>
<path d="M4.05099 54.2497C4.02724 53.8506 3.85081 53.5677 3.40466 53.5625C2.97887 53.5573 2.68878 53.8107 2.67691 54.2202C2.66503 54.635 2.93815 54.9248 3.34868 54.9335C3.77957 54.9422 4.07643 54.6732 4.05099 54.2497Z" fill="white"/>
<path d="M6.42085 53.1686C6.42764 53.5834 6.65495 53.8471 7.057 53.8975C7.39288 53.9391 7.75422 53.5469 7.75591 53.1807C7.75591 52.7677 7.45056 52.4363 7.06548 52.4692C6.66344 52.5039 6.41576 52.74 6.42255 53.1686H6.42085Z" fill="white"/>
<path d="M13.5135 48.0318C13.8426 48.0423 14.226 47.6362 14.1954 47.2804C14.1615 46.8709 13.9291 46.6401 13.5457 46.5984C13.1878 46.5967 12.8434 46.9264 12.8281 47.2717C12.8129 47.6067 13.1861 48.0232 13.5118 48.0318H13.5135Z" fill="white"/>
<path d="M20.4331 30.1955C20.4314 30.5738 20.7808 30.933 21.1506 30.9018C21.5561 30.8671 21.8139 30.6155 21.8004 30.2024C21.7885 29.812 21.573 29.5187 21.1506 29.4875C20.7842 29.4597 20.4348 29.8155 20.4331 30.1955Z" fill="white"/>
<path d="M11.7323 57.0871C11.3217 57.1097 11.1351 57.337 11.1555 57.8229C11.1894 58.1353 11.281 58.4841 11.7374 58.5084C12.1089 58.5292 12.4414 58.1613 12.4312 57.7761C12.4193 57.3422 12.1377 57.0663 11.7306 57.0871H11.7323Z" fill="white"/>
<path d="M3.6235 56.5491C3.23163 56.5873 2.99244 56.8112 2.97887 57.2468C2.9653 57.7049 3.22484 57.9288 3.61671 57.9375C4.00349 57.9461 4.29188 57.7483 4.28 57.2797C4.28848 56.8633 3.99331 56.5127 3.6218 56.5474L3.6235 56.5491Z" fill="white"/>
<path d="M1.84398 7.88358C1.48265 7.8645 1.10605 8.23587 1.11623 8.58121C1.12641 8.92655 1.50809 9.28231 1.85077 9.2719C2.29013 9.25628 2.43941 8.95606 2.51066 8.58815C2.45299 8.16992 2.2596 7.90614 1.84228 7.88532L1.84398 7.88358Z" fill="white"/>
<path d="M26.4112 41.4738C26.3196 41.1823 26.0481 40.9497 25.9209 40.7814C25.3136 40.8196 25.0659 41.0695 25.0676 41.4721C25.0676 41.8643 25.2898 42.1523 25.7122 42.1836C26.0481 42.2079 26.5095 41.7862 26.4112 41.4738Z" fill="white"/>
<path d="M8.71947 5.72129C9.15205 5.72823 9.41159 5.46966 9.41159 5.03407C9.41159 4.6037 9.14696 4.33992 8.71607 4.3538C8.30554 4.36595 8.06975 4.5742 8.05787 5.01151C8.046 5.45577 8.28858 5.71435 8.71947 5.72129Z" fill="white"/>
<path d="M16.9181 21.4526C16.472 21.4856 16.2328 21.7303 16.2345 22.1433C16.2345 22.5563 16.4754 22.8305 16.891 22.8201C17.2896 22.8097 17.5594 22.5563 17.5628 22.1398C17.5679 21.7112 17.2727 21.5185 16.9181 21.4526Z" fill="white"/>
<path d="M22.6282 48.1915C22.2346 48.1794 21.9157 48.4969 21.9361 48.8718C21.9581 49.2865 22.1787 49.5503 22.5943 49.5434C23.0014 49.5364 23.2593 49.2726 23.2694 48.8683C23.2796 48.4379 22.9675 48.2574 22.6282 48.1932V48.1915Z" fill="white"/>
<path d="M18.5585 37.38C18.5518 37.0277 18.2311 36.6789 17.9139 36.6789C17.5797 36.6789 17.2523 37.052 17.2506 37.4182C17.2472 37.8729 17.5187 38.0638 17.9003 38.0985C18.2973 38.1332 18.567 37.8156 18.5585 37.38Z" fill="white"/>
<path d="M12.0342 47.5321C11.6288 47.5494 11.3658 47.7819 11.3574 48.2036C11.3489 48.6253 11.605 48.8527 11.9494 48.9047C12.3616 48.9152 12.6822 48.5993 12.6907 48.2314C12.6992 47.8687 12.3854 47.5164 12.0325 47.5303L12.0342 47.5321Z" fill="white"/>
<path d="M9.15713 58.7722C9.18088 59.1522 9.34713 59.4698 9.74748 59.4472C10.1987 59.4212 10.2954 59.0255 10.3751 58.4581C10.2208 58.3366 10.024 58.0745 9.77971 58.0155C9.43365 57.934 9.12999 58.3453 9.15713 58.7722Z" fill="white"/>
<path d="M21.4221 35.0251C21.0115 35.0164 20.7706 35.2594 20.752 35.6828C20.7316 36.1253 20.981 36.3544 21.3915 36.3718C21.8071 36.3891 22.0616 36.1878 22.0531 35.7227C22.0463 35.2976 21.8445 35.0338 21.4221 35.0251Z" fill="white"/>
<path d="M18.6858 26.2353C18.3618 26.2267 18.0225 26.5824 18.0225 26.933C18.0225 27.2957 18.3312 27.6063 18.6926 27.5907C19.0844 27.5733 19.2948 27.3425 19.3253 26.9538C19.3542 26.598 19.0251 26.244 18.6858 26.2353Z" fill="white"/>
<path d="M8.12742 52.6011C8.20376 52.9742 8.41581 53.2797 8.83312 53.2588C9.25044 53.238 9.42177 52.9343 9.47097 52.5612C9.4065 52.1291 9.18597 51.8931 8.77036 51.9C8.43277 51.907 8.06296 52.2888 8.12573 52.6011H8.12742Z" fill="white"/>
<path d="M13.2777 45.703C13.2353 45.2865 13.0063 45.0539 12.5822 45.0747C12.1801 45.0956 11.9884 45.3524 11.9647 45.7342C11.9443 46.0865 12.3022 46.4301 12.6398 46.4214C12.9825 46.4127 13.3133 46.057 13.2777 45.703Z" fill="white"/>
<path d="M13.9138 53.7048C14.2667 53.6719 14.6993 53.7031 14.7196 53.1443C14.7332 52.7764 14.4244 52.4345 14.0631 52.4467C13.6543 52.4606 13.4219 52.6862 13.3947 53.1374C13.4185 53.4515 13.5203 53.7413 13.9138 53.7048Z" fill="white"/>
<path d="M10.1529 13.8377C9.74578 13.8603 9.53882 14.1362 9.54222 14.5093C9.54561 14.8807 9.73391 15.1653 10.1648 15.1462C10.594 15.1757 10.7619 14.8928 10.806 14.5267C10.8484 14.1692 10.499 13.8186 10.1529 13.8377Z" fill="white"/>
<path d="M24.194 17.8985C24.5502 17.9436 24.8725 17.6035 24.8708 17.2373C24.8708 16.866 24.5485 16.5328 24.1923 16.5779C23.8309 16.623 23.5867 16.8035 23.585 17.2391C23.585 17.6781 23.836 17.8534 24.194 17.9003V17.8985Z" fill="white"/>
<path d="M5.5506 8.81202C5.94247 8.81376 6.2105 8.60204 6.18336 8.14216C6.17827 7.76558 5.92211 7.49486 5.56756 7.49139C5.20793 7.48792 4.87713 7.81591 4.90258 8.17513C4.93142 8.57601 5.18079 8.81028 5.5489 8.81202H5.5506Z" fill="white"/>
<path d="M11.2844 47.5008C11.6542 47.473 11.9189 47.296 11.9036 46.9264C11.9087 46.4873 11.5609 46.0535 11.2793 46.1715C11.0147 46.2826 10.7433 46.5585 10.6347 46.8292C10.5159 47.1242 10.9383 47.5268 11.2844 47.5008Z" fill="white"/>
<path d="M26.7436 30.2007C26.6402 29.9317 26.3671 29.6575 26.1041 29.5447C25.8259 29.4267 25.4832 29.8623 25.4798 30.225C25.4747 30.6606 25.7207 30.8272 26.0973 30.8706C26.4536 30.8706 26.8624 30.5061 26.7453 30.2007H26.7436Z" fill="white"/>
<path d="M1.54711 5.76294C1.56577 6.15514 1.78291 6.3738 2.18665 6.41718C2.50727 6.42933 2.80244 6.16208 2.82959 5.81326C2.85673 5.46792 2.5395 5.08787 2.2104 5.07052C1.88639 5.0549 1.53015 5.41065 1.54711 5.76294Z" fill="white"/>
<path d="M9.00446 9.25107C8.99937 9.6693 9.24365 9.85152 9.76444 9.96258C9.90864 9.76995 10.1682 9.5513 10.2564 9.27537C10.3616 8.94738 9.98497 8.60551 9.61686 8.61071C9.21142 8.61765 9.01124 8.83805 9.00616 9.25107H9.00446Z" fill="white"/>
<path d="M8.046 13.6607C8.02225 14.0824 8.29876 14.249 8.6567 14.2872C8.99258 14.3236 9.35392 13.9488 9.32168 13.6121C9.28606 13.2234 9.04348 12.977 8.67536 12.977C8.28858 12.977 8.01885 13.1835 8.046 13.6607Z" fill="white"/>
<path d="M19.1879 22.9884C18.8809 22.9884 18.506 23.3876 18.5365 23.7051C18.5738 24.113 18.8232 24.316 19.2066 24.3073C19.6001 24.2986 19.8258 24.0869 19.8071 23.6566C19.8037 23.3286 19.4865 22.9867 19.1896 22.9867L19.1879 22.9884Z" fill="white"/>
<path d="M0.631059 2.09432C0.281601 2.09606 0.0780341 2.27133 0 2.53164V3.01408C0.0712485 3.23274 0.24937 3.38372 0.54115 3.40628C0.926231 3.43404 1.24346 3.14944 1.21801 2.76592C1.19426 2.39107 1.01275 2.12556 0.629362 2.09606L0.631059 2.09432Z" fill="white"/>
<path d="M2.95173 4.5499C3.30458 4.6037 3.63537 4.26703 3.62519 3.89913C3.61332 3.48437 3.35377 3.26571 2.99074 3.26398C2.6345 3.26224 2.36477 3.45834 2.34781 4.03622C2.32915 4.31909 2.60227 4.4961 2.95173 4.5499Z" fill="white"/>
<path d="M13.9359 58.144C13.5712 58.137 13.2895 58.3973 13.2743 58.7566C13.259 59.1245 13.5762 59.4802 13.9257 59.4577C14.321 59.4316 14.5534 59.173 14.55 58.7913C14.5466 58.4268 14.3702 58.1301 13.9376 58.1457L13.9359 58.144Z" fill="white"/>
<path d="M17.863 35.7783C17.8478 36.2017 18.0666 36.4134 18.4398 36.4655C18.7808 36.5123 19.21 36.1462 19.1251 35.8251C19.0505 35.5457 18.7977 35.3184 18.6637 35.124C18.1446 35.2073 17.8783 35.3444 17.863 35.78V35.7783Z" fill="white"/>
<path d="M1.0348 53.271C0.642933 53.2988 0.444455 53.5226 0.449544 53.9322C0.45633 54.3521 0.715878 54.5118 1.2214 54.6211C1.3656 54.4146 1.61497 54.1873 1.6947 53.9096C1.7863 53.5886 1.39104 53.2467 1.0348 53.2727V53.271Z" fill="white"/>
<path d="M10.6635 49.9807C11.0316 49.9425 11.2658 49.7221 11.2725 49.3143C11.2793 48.903 11.0927 48.6739 10.7195 48.6757C10.2751 48.6635 10.0647 48.9065 10.0053 49.2744C9.95614 49.5746 10.3633 50.0119 10.6635 49.9807Z" fill="white"/>
<path d="M16.0852 15.849C15.8358 15.8994 15.5152 16.2378 15.4643 16.4981C15.3982 16.8382 15.6526 17.1141 16.0733 17.1211C16.5025 17.128 16.6688 16.892 16.6993 16.4859C16.662 16.1076 16.4398 15.7779 16.0852 15.849Z" fill="white"/>
<path d="M16.0632 14.5249C16.0038 14.8512 16.2548 15.1618 16.6756 15.1497C17.0895 15.1566 17.288 14.9397 17.288 14.5232C17.288 14.1136 17.0403 13.8099 16.6925 13.8811C16.4398 13.9332 16.109 14.2681 16.0632 14.5232V14.5249Z" fill="white"/>
<path d="M13.6136 55.2303C13.6051 54.8398 13.3981 54.6124 13.0283 54.6194C12.6619 54.6263 12.3616 54.8259 12.3735 55.2407C12.3837 55.6051 12.5669 55.9036 12.9774 55.9296C13.3557 55.9539 13.617 55.6554 13.6119 55.232L13.6136 55.2303Z" fill="white"/>
<path d="M24.3449 32.1166C24.3619 31.7348 24.1516 31.4745 23.7461 31.4276C23.3475 31.4554 23.1252 31.707 23.1235 32.0853C23.1235 32.4619 23.3322 32.7344 23.7427 32.7361C24.1329 32.7361 24.328 32.4671 24.3433 32.1183L24.3449 32.1166Z" fill="white"/>
<path d="M26.8047 34.9834C27.1677 35.0824 27.39 34.7717 27.4256 34.4403C27.4256 33.9682 27.2305 33.7409 26.8336 33.7149C26.4129 33.6888 26.1618 34.0099 26.2025 34.3292C26.2347 34.5808 26.5537 34.9158 26.8047 34.9834Z" fill="white"/>
<path d="M15.1946 48.3546C15.5525 48.3512 15.7799 48.0839 15.7866 47.7281C15.7934 47.355 15.6119 47.0774 15.0877 47.0704C14.7586 47.0531 14.5839 47.3498 14.5737 47.7073C14.5618 48.0926 14.8146 48.3564 15.1946 48.3546Z" fill="white"/>
<path d="M10.5414 47.7889C10.5142 47.4245 10.2615 47.152 9.86623 47.185C9.48454 47.2179 9.28267 47.4557 9.30302 47.8757C9.32338 48.2939 9.56936 48.4275 9.91712 48.4501C10.3124 48.4067 10.5702 48.1741 10.5414 47.7889Z" fill="white"/>
<path d="M13.7662 16.0052C13.7442 16.4234 14.0326 16.597 14.382 16.6039C14.7586 16.6109 15.0097 16.3401 15.0029 15.9566C14.9944 15.5974 14.7332 15.3562 14.3871 15.3544C14.0258 15.3544 13.7544 15.5419 13.7662 16.0052Z" fill="white"/>
<path d="M17.5068 22.9902C17.2591 23.0873 17.064 23.3303 16.8452 23.509C16.9792 24.0088 17.2218 24.2882 17.5373 24.2188C17.7765 24.1668 18.0344 23.8613 18.1412 23.6045C18.2447 23.3546 17.7629 22.8895 17.5068 22.9902Z" fill="white"/>
<path d="M25.9921 23.3997C26.3654 23.3997 26.6215 23.1689 26.6249 22.7698C26.6283 22.3724 26.3874 22.1572 26.0108 22.1051C25.6172 22.145 25.3831 22.3741 25.3764 22.7576C25.3696 23.1481 25.6155 23.398 25.9921 23.3997Z" fill="white"/>
<path d="M3.73207 8.05192C4.08152 8.03283 4.31902 7.83152 4.27831 7.44106C4.29697 7.00721 4.04081 6.82847 3.70323 6.81458C3.31306 6.79897 3.07047 7.06622 3.07556 7.448C3.08065 7.8402 3.35377 8.07448 3.73207 8.05192Z" fill="white"/>
<path d="M22.5586 29.2636C22.808 29.2098 23.0099 28.9269 23.3848 28.6215C22.9895 28.3404 22.7707 28.0696 22.5162 28.0315C22.1379 27.9759 21.8971 28.2796 21.9089 28.6701C21.9208 29.0606 22.1837 29.3452 22.5569 29.2619L22.5586 29.2636Z" fill="white"/>
<path d="M19.0454 10.0008C19.0217 10.3912 19.2575 10.6255 19.6476 10.6637C20.0327 10.6272 20.2838 10.4277 20.2719 10.0199C20.2617 9.64848 20.0395 9.40726 19.668 9.39685C19.2897 9.38643 19.0675 9.64501 19.0454 9.99903V10.0008Z" fill="white"/>
<path d="M17.254 42.7701C17.4881 42.8934 17.9071 42.4526 17.8902 42.1471C17.8698 41.774 17.6612 41.5693 17.4525 41.5415C16.8944 41.5085 16.6586 41.8105 16.6942 42.1142C16.7231 42.3589 17.0114 42.6417 17.254 42.7701Z" fill="white"/>
<path d="M13.2743 49.0696C13.203 49.4202 13.4354 49.7082 13.8629 49.6961C14.2548 49.6857 14.4227 49.4635 14.5228 48.9551C14.3006 48.7833 14.0597 48.4518 13.8629 48.4796C13.6356 48.5108 13.3218 48.8284 13.2726 49.0696H13.2743Z" fill="white"/>
<path d="M22.0938 25.5412C22.3381 25.4995 22.5468 25.2358 22.7724 25.0709C22.7724 24.9876 22.7758 24.9043 22.7775 24.821C22.562 24.6388 22.3703 24.3837 22.1227 24.2969C21.8394 24.1963 21.473 24.6041 21.5052 24.9373C21.5391 25.2896 21.7291 25.6054 22.0955 25.5429L22.0938 25.5412Z" fill="white"/>
<path d="M7.05361 51.1625C7.05361 50.7963 6.78897 50.5516 6.43103 50.5603C6.08666 50.569 5.82711 50.7529 5.84408 51.1677C5.83729 51.5911 6.10193 51.7681 6.4429 51.7768C6.80763 51.7855 7.05361 51.52 7.05361 51.1625Z" fill="white"/>
<path d="M27.0015 38.2616C26.6012 38.2495 26.4264 38.4594 26.3874 38.8707C26.4061 39.2109 26.5825 39.466 26.9557 39.4764C27.3221 39.4868 27.5664 39.256 27.5681 38.8829C27.5681 38.5358 27.4052 38.2755 27.0015 38.2616Z" fill="white"/>
<path d="M6.70415 54.6576C6.36148 54.7044 6.12568 54.8936 6.13755 55.2962C6.14943 55.6849 6.32755 55.8966 6.74995 55.8949C7.12146 55.9209 7.28432 55.6641 7.32333 55.3101C7.35896 54.9803 7.01459 54.6159 6.70415 54.6576Z" fill="white"/>
<path d="M21.8546 16.0885C21.4577 16.059 21.2728 16.3211 21.2609 16.6733C21.2507 17.036 21.4696 17.2981 21.8394 17.312C22.2448 17.3276 22.467 17.0326 22.4738 16.6664C22.4823 16.3054 22.2533 16.0694 21.8529 16.0902L21.8546 16.0885Z" fill="white"/>
<path d="M11.8103 3.9859C12.0257 3.9564 12.3633 3.60238 12.3514 3.41495C12.3362 3.18415 12.041 2.84228 11.8154 2.78848C11.4863 2.71212 11.2556 2.99673 11.2335 3.26745C11.225 3.78633 11.5066 4.02755 11.8103 3.9859Z" fill="white"/>
<path d="M20.316 49.4913C20.5671 49.4358 20.7723 49.1616 20.998 48.9846C20.998 48.903 20.9946 48.8214 20.9929 48.7399C20.7588 48.5785 20.5382 48.3147 20.2872 48.2817C19.9072 48.2314 19.6765 48.5334 19.6968 48.9256C19.7172 49.2917 19.9632 49.5694 20.3143 49.4913H20.316Z" fill="white"/>
<path d="M0 55.796C0.0814269 55.6936 0.12214 55.5617 0.0966945 55.4107C0.0848197 55.3361 0.047499 55.2649 0 55.1955V55.7977V55.796Z" fill="white"/>
<path d="M25.8904 36.5279C25.6495 36.37 25.395 36.0715 25.1694 36.0924C24.9658 36.1114 24.6435 36.4828 24.6486 36.6911C24.6537 36.8958 25.0015 37.2395 25.2101 37.2481C25.434 37.2568 25.6698 36.9479 25.9005 36.7778L25.8904 36.5279Z" fill="white"/>
<path d="M14.9045 13.659C14.5568 13.6624 14.3515 13.888 14.3447 14.2421C14.3379 14.6186 14.5093 14.8651 14.8112 14.8581C15.3015 14.8616 15.5169 14.6412 15.5118 14.2698C15.5067 13.9002 15.2794 13.6572 14.9045 13.6607V13.659Z" fill="white"/>
<path d="M18.9385 28.002C18.5738 27.9881 18.3431 28.2293 18.3533 28.6076C18.3618 28.9356 18.5246 29.1786 18.8995 29.1786C19.271 29.1786 19.4967 29.0241 19.4967 28.5903C19.5289 28.1998 19.2778 28.0141 18.9385 28.002Z" fill="white"/>
<path d="M15.4643 12.4407C15.5 12.6646 15.79 12.9579 16.0123 13.0099C16.3363 13.0846 16.5907 12.8433 16.6348 12.4581C16.5992 12.0815 16.4211 11.8663 16.0394 11.8542C15.6408 11.842 15.4117 12.1127 15.4626 12.4407H15.4643Z" fill="white"/>
<path d="M15.1895 46.0813C15.1895 46.2878 15.4983 46.6331 15.7103 46.6696C16.019 46.7199 16.2888 46.4717 16.3295 45.8973C16.17 45.7863 15.9291 45.4878 15.7086 45.5034C15.5101 45.5173 15.1895 45.8765 15.1912 46.0813H15.1895Z" fill="white"/>
<path d="M13.3896 8.10224C13.0724 8.05539 12.7942 8.28099 12.8213 8.69748C12.8468 9.08447 13.0639 9.26496 13.4185 9.28231C13.8222 9.25281 14.036 8.97341 13.9596 8.64542C13.907 8.42156 13.6102 8.13522 13.3896 8.10224Z" fill="white"/>
<path d="M22.9488 29.9664C22.7469 29.9716 22.4212 30.2875 22.3839 30.5079C22.3313 30.8359 22.5909 31.0858 23.0048 31.1222C23.3254 31.0649 23.5884 30.8185 23.5239 30.4888C23.4815 30.2701 23.1456 29.9612 22.9471 29.9647L22.9488 29.9664Z" fill="white"/>
<path d="M6.46665 13.0377C6.42255 13.4264 6.69567 13.6 7.03325 13.6052C7.3844 13.6104 7.68127 13.3639 7.60324 12.9995C7.55404 12.767 7.27244 12.4668 7.05191 12.4234C6.73977 12.3626 6.44969 12.5709 6.46665 13.0377Z" fill="white"/>
<path d="M14.9792 7.09745C15.3032 7.1044 15.5508 6.88921 15.5593 6.52825C15.5678 6.14125 15.3252 5.91565 14.969 5.92086C14.6518 5.92433 14.3973 6.09266 14.4041 6.50221C14.3769 6.9083 14.6416 7.09225 14.9792 7.09919V7.09745Z" fill="white"/>
<path d="M8.94169 6.99159C8.57527 7.01762 8.39376 7.2467 8.3734 7.61286C8.40394 8.01894 8.67366 8.24281 8.99089 8.16645C9.20803 8.11439 9.48623 7.80549 9.51677 7.57989C9.56088 7.25711 9.33695 6.96209 8.94 6.98986L8.94169 6.99159Z" fill="white"/>
<path d="M23.1269 40.7154C23.3746 40.679 23.5918 40.417 23.7817 40.2851C23.6681 39.7905 23.5375 39.5371 23.1337 39.5458C22.7605 39.5545 22.5824 39.7697 22.5705 40.1063C22.557 40.4725 22.7707 40.7692 23.1269 40.7154Z" fill="white"/>
<path d="M27.6122 35.6273C27.2577 35.6325 27.049 35.7991 27.0609 36.1618C27.0388 36.5922 27.2729 36.849 27.6139 36.7796C27.8378 36.7345 28.1279 36.4446 28.1771 36.2156C28.2517 35.8668 28.0007 35.6203 27.6139 35.6273H27.6122Z" fill="white"/>
<path d="M23.3933 9.25107C23.3984 8.89358 23.1897 8.58468 22.8199 8.64889C22.5909 8.68881 22.3975 8.95259 22.0395 9.23372C22.3992 9.50791 22.5926 9.76301 22.825 9.8064C23.1626 9.87061 23.3882 9.59121 23.3933 9.25107Z" fill="white"/>
<path d="M11.0028 11.8837C11.1996 12.078 11.3862 12.4112 11.5932 12.4251C11.8018 12.439 12.0291 12.1336 12.3922 11.8628C12.0342 11.5869 11.7882 11.2554 11.605 11.2902C11.376 11.3318 11.1996 11.6737 11.0011 11.8854L11.0028 11.8837Z" fill="white"/>
<path d="M21.4204 47.0357C21.6952 46.9819 21.9327 46.7251 22.1854 46.5516C22.1837 46.4752 22.182 46.3971 22.1787 46.3208C21.9564 46.1715 21.7444 45.9233 21.5086 45.8956C21.1557 45.8539 20.8894 46.1437 20.9471 46.5012C20.981 46.7129 21.2914 47.0618 21.4204 47.0375V47.0357Z" fill="white"/>
<path d="M1.27399 11.521C1.2689 11.7188 1.58613 12.0572 1.79648 12.0884C1.98987 12.1179 2.23076 11.8229 2.44959 11.6702V11.4116C2.23754 11.2485 2.00683 10.9396 1.81345 10.9622C1.6014 10.9865 1.27908 11.3162 1.27399 11.5192V11.521Z" fill="white"/>
<path d="M10.5821 5.57552C10.3565 5.62931 10.063 5.93127 10.0376 6.15167C10.0155 6.34429 10.3243 6.57684 10.6025 6.94821C10.8824 6.57857 11.1572 6.37553 11.1809 6.14472C11.2183 5.7907 10.9265 5.49395 10.5821 5.57552Z" fill="white"/>
<path d="M21.2779 50.5794C20.9505 50.5933 20.7028 50.7564 20.7401 51.1538C20.7147 51.5703 20.9725 51.7196 21.2982 51.7213C21.6392 51.7213 21.8614 51.4974 21.8529 51.1417C21.8462 50.7877 21.6205 50.5655 21.2779 50.5794Z" fill="white"/>
<path d="M13.1521 12.8052C13.3421 13.003 13.5118 13.3275 13.7255 13.3639C13.9155 13.3952 14.1564 13.1054 14.3735 12.9579C14.3752 12.878 14.3786 12.7982 14.3803 12.7184C14.1666 12.5535 13.9393 12.2429 13.7425 12.262C13.5304 12.2828 13.3472 12.6108 13.1504 12.8052H13.1521Z" fill="white"/>
<path d="M9.86792 54.2393C9.86283 54.038 9.51847 53.6701 9.37088 53.6927C9.14526 53.7274 8.82464 54.0155 8.79411 54.2341C8.76527 54.4354 9.06553 54.6853 9.32847 55.0723C9.59311 54.6905 9.87471 54.4615 9.86962 54.2411L9.86792 54.2393Z" fill="white"/>
<path d="M21.5323 15.1445C21.7461 15.0976 21.9225 14.872 22.2601 14.6204C21.9293 14.3184 21.7563 14.0338 21.5391 13.9922C21.1795 13.9227 20.9505 14.2247 20.9488 14.5787C20.9488 14.9258 21.1422 15.2312 21.5306 15.1462L21.5323 15.1445Z" fill="white"/>
<path d="M19.8291 28.6128C19.858 28.8471 20.1124 29.0519 20.2651 29.2688C20.3465 29.2688 20.428 29.2705 20.5111 29.2723C20.6655 29.0606 20.9081 28.8662 20.9522 28.6319C21.0166 28.2918 20.7706 28.0471 20.4297 28.0384C20.0785 28.0297 19.7833 28.2415 19.8291 28.6128Z" fill="white"/>
<path d="M18.9776 17.0725C19.0081 17.3068 19.2727 17.6521 19.4729 17.6764C19.6765 17.7024 19.9208 17.4005 20.3007 17.1367C19.9377 16.8694 19.7223 16.5883 19.5017 16.5848C19.3168 16.5814 18.9589 16.925 18.9793 17.0725H18.9776Z" fill="white"/>
<path d="M6.69397 3.38025C7.05021 3.43578 7.23173 3.12167 7.22664 2.79889C7.21985 2.46917 7.00441 2.17936 6.65835 2.25224C6.43273 2.2991 6.24782 2.54726 6.04425 2.70692C6.04595 2.79195 6.04764 2.87872 6.04934 2.96375C6.26309 3.10953 6.46326 3.3438 6.69397 3.38025Z" fill="white"/>
<path d="M0.276512 4.37463C0.166247 4.36768 0.0746413 4.39024 0 4.43189V5.44883C0.0763377 5.49222 0.166247 5.51998 0.274816 5.52519C0.622577 5.53907 0.832929 5.32215 0.836322 4.96986C0.839715 4.63493 0.702307 4.3781 0.278209 4.37463H0.276512Z" fill="white"/>
<path d="M29.636 27.3043C29.4562 27.4883 29.1525 27.6601 29.1339 27.8614C29.1152 28.0662 29.3782 28.297 29.6072 28.6597C29.8786 28.3143 30.1907 28.087 30.167 27.903C30.1398 27.6844 29.826 27.5022 29.636 27.3043Z" fill="white"/>
<path d="M20.5416 21.8274C20.3347 21.8778 20.0717 22.1641 20.0378 22.3793C19.9903 22.6882 20.2125 23.011 20.5705 22.9364C20.7978 22.8895 20.9844 22.6379 21.1897 22.4782C21.0981 21.968 20.8487 21.7528 20.5399 21.8274H20.5416Z" fill="white"/>
<path d="M15.9359 52.2818C16.1056 52.084 16.4041 51.8879 16.4075 51.6866C16.4109 51.4714 16.1361 51.251 15.9817 51.0323C15.8986 51.0358 15.8172 51.0375 15.7341 51.041C15.6068 51.2683 15.3473 51.5234 15.3863 51.7143C15.4321 51.933 15.7408 52.0961 15.9342 52.2836L15.9359 52.2818Z" fill="white"/>
<path d="M19.6001 39.2039C19.8258 39.1744 20.0208 38.9054 20.2295 38.744C20.1379 38.2338 19.8987 38.0048 19.5849 38.0759C19.3779 38.1228 19.1167 38.4074 19.0743 38.6243C19.0115 38.9523 19.2761 39.2456 19.6001 39.2039Z" fill="white"/>
<path d="M11.6661 13.0481C11.3234 13.0481 11.1012 13.2807 11.1114 13.6312C11.1216 13.9627 11.2929 14.1987 11.6746 14.1865C12.0461 14.1761 12.2191 13.9904 12.2123 13.6138C12.2293 13.2216 11.9918 13.0498 11.6661 13.0481Z" fill="white"/>
<path d="M20.5586 35.0077C20.3499 34.8585 20.1532 34.6173 19.9275 34.5843C19.595 34.5357 19.3762 34.803 19.3813 35.1483C19.3864 35.4832 19.556 35.7123 19.936 35.7054C20.3109 35.6984 20.4721 35.5041 20.5569 35.0077H20.5586Z" fill="white"/>
<path d="M26.7012 46.345C26.5621 46.5741 26.3026 46.8153 26.3196 47.0323C26.3348 47.2266 26.6605 47.539 26.842 47.5338C27.032 47.5286 27.351 47.2127 27.3594 47.0201C27.3696 46.8015 27.0982 46.5706 26.9506 46.3433C26.8675 46.3433 26.7844 46.3433 26.7012 46.345Z" fill="white"/>
<path d="M29.7327 42.6591C29.7327 42.3328 29.5274 42.1159 29.2119 42.109C28.8845 42.102 28.6317 42.2495 28.647 42.6539C28.6233 43.0443 28.8285 43.2231 29.1814 43.2283C29.541 43.2335 29.731 43.0062 29.731 42.6591H29.7327Z" fill="white"/>
<path d="M15.9105 18.4903C16.1174 18.4538 16.3906 18.171 16.433 17.9558C16.4923 17.6469 16.3006 17.3727 15.9919 17.3987C15.5525 17.3987 15.3575 17.5619 15.3524 17.9489C15.3473 18.3515 15.6204 18.5424 15.9122 18.4903H15.9105Z" fill="white"/>
<path d="M20.1481 52.8649C19.9445 52.9083 19.685 53.1998 19.6544 53.4133C19.6273 53.592 19.8919 53.8176 20.0276 54.0242L20.2634 54.0189C20.4178 53.8176 20.6706 53.6285 20.7011 53.4098C20.7486 53.0662 20.467 52.7972 20.1481 52.8649Z" fill="white"/>
<path d="M17.4016 46.5793C17.6272 46.5429 17.8206 46.2982 18.0276 46.1455C18.0276 46.0587 18.0242 45.9719 18.0242 45.8852C17.8087 45.7411 17.6052 45.5069 17.3762 45.4773C17.0488 45.4357 16.8978 45.722 16.8961 46.0448C16.8944 46.385 17.0963 46.6297 17.4033 46.5793H17.4016Z" fill="white"/>
<path d="M6.57692 11.9878C6.76352 12.0121 6.98575 11.7396 7.19101 11.5973C7.19441 11.5158 7.1961 11.4342 7.1995 11.3526C6.98066 11.2034 6.75504 10.9292 6.54638 10.9413C6.36317 10.9535 6.06122 11.2902 6.06461 11.4776C6.068 11.6633 6.37505 11.9618 6.57692 11.9878Z" fill="white"/>
<path d="M15.6051 55.8324C15.6798 55.5218 15.2184 55.0133 14.9469 55.0966C14.7875 55.1452 14.5856 55.3743 14.5737 55.5374C14.5466 55.8966 14.6908 56.2055 15.2658 56.2194C15.3439 56.1361 15.5644 56.0077 15.6051 55.8324Z" fill="white"/>
<path d="M18.7893 43.2873C18.8707 43.2873 18.9521 43.2856 19.0318 43.2838C19.1777 43.079 19.4186 42.8864 19.4458 42.6643C19.4899 42.3085 19.2134 42.1176 18.8724 42.128C18.5433 42.1385 18.3228 42.3658 18.3804 42.6851C18.4194 42.9038 18.6451 43.0877 18.7876 43.2873H18.7893Z" fill="white"/>
<path d="M22.8945 11.4481C22.7079 11.4568 22.406 11.7761 22.3924 11.9756C22.3788 12.1717 22.6672 12.3887 22.9302 12.7409C23.1643 12.3817 23.434 12.1509 23.4102 11.9565C23.3865 11.7552 23.0727 11.4429 22.8962 11.4498L22.8945 11.4481Z" fill="white"/>
<path d="M19.6867 25.1334C19.4712 25.1559 19.2761 25.3694 19.0726 25.4978C19.1506 25.9976 19.3117 26.2093 19.6748 26.218C20.0293 26.2267 20.1718 25.9837 20.1854 25.6713C20.199 25.3399 19.9937 25.1004 19.6867 25.1334Z" fill="white"/>
<path d="M28.2093 21.8344C28.1805 22.1728 28.4112 22.4157 28.7149 22.3828C28.9405 22.3585 29.1474 22.1329 29.3612 21.9958C29.3646 21.9194 29.368 21.8431 29.3714 21.7667C29.1661 21.6192 28.9812 21.4023 28.7539 21.3398C28.4078 21.2444 28.2365 21.529 28.2093 21.8327V21.8344Z" fill="white"/>
<path d="M17.4457 38.423C17.1302 38.4178 16.9164 38.5861 16.8299 39.0651C17.0233 39.2265 17.2303 39.5284 17.4067 39.5093C17.6001 39.4885 17.8579 39.2022 17.919 38.98C18.0072 38.6642 17.7782 38.4265 17.4474 38.4213L17.4457 38.423Z" fill="white"/>
<path d="M24.0939 19.9983C24.3059 19.9636 24.4841 19.7172 24.6774 19.5662C24.6774 19.4829 24.6757 19.3996 24.674 19.3181C24.479 19.1775 24.2941 18.9467 24.0837 18.9155C23.7885 18.8721 23.5629 19.0734 23.5663 19.4291C23.5697 19.7866 23.7461 20.0539 24.0939 19.9966V19.9983Z" fill="white"/>
<path d="M22.9777 5.31694C23.1134 5.3343 23.4221 4.98895 23.4204 4.80674C23.4204 4.59849 23.1609 4.39198 23.0133 4.18373C22.9386 4.1872 22.864 4.18894 22.7894 4.19241C22.6553 4.41107 22.3907 4.65402 22.4229 4.83971C22.4586 5.03928 22.7639 5.28918 22.976 5.31694H22.9777Z" fill="white"/>
<path d="M14.1513 45.0019C13.8986 45.342 13.622 45.5554 13.6475 45.7203C13.6797 45.932 13.9376 46.2236 14.1327 46.2565C14.287 46.2808 14.6314 45.9719 14.6399 45.7984C14.6501 45.5901 14.3922 45.368 14.1513 45.0019Z" fill="white"/>
<path d="M21.7664 34.062C21.7766 34.2372 22.1261 34.5444 22.2787 34.5184C22.4755 34.4837 22.73 34.1886 22.7605 33.9752C22.7843 33.8103 22.5044 33.5969 22.2465 33.255C22.009 33.6281 21.7529 33.8537 21.7647 34.0637L21.7664 34.062Z" fill="white"/>
<path d="M7.6677 8.31396C7.49128 8.48577 7.18762 8.64889 7.17575 8.83111C7.16218 9.03241 7.41833 9.25281 7.65752 9.61724C7.9052 9.2719 8.17662 9.05497 8.14948 8.89358C8.11216 8.67839 7.84073 8.50485 7.6694 8.31396H7.6677Z" fill="white"/>
<path d="M26.3263 19.4899C26.1075 19.5107 25.9056 19.7363 25.697 19.8699C25.6936 19.9532 25.6902 20.0348 25.6868 20.1181C25.8802 20.2795 26.0838 20.5797 26.2653 20.5658C26.4587 20.5502 26.7284 20.2708 26.7911 20.0539C26.8828 19.738 26.6436 19.4604 26.3246 19.4899H26.3263Z" fill="white"/>
<path d="M21.1981 37.9024C21.3881 37.8833 21.6341 37.6021 21.702 37.3835C21.8071 37.0468 21.534 36.8212 21.2389 36.8473C21.0285 36.8663 20.8351 37.0885 20.6332 37.2186C20.6315 37.3037 20.6281 37.387 20.6265 37.472C20.8181 37.6282 21.0234 37.9215 21.1981 37.9024Z" fill="white"/>
<path d="M29.1712 32.3214C29.1949 32.1235 28.9557 31.8927 28.8302 31.6775C28.7437 31.6741 28.6572 31.6706 28.569 31.6671C28.4333 31.8736 28.1839 32.0888 28.1958 32.2866C28.2076 32.4723 28.4943 32.7726 28.6657 32.7778C28.8421 32.783 29.1491 32.5053 29.1712 32.3231V32.3214Z" fill="white"/>
<path d="M14.8587 42.8569C14.5093 42.7493 14.3243 43.0443 14.3498 43.3515C14.3668 43.5545 14.5669 43.742 14.6857 43.9363C14.7705 43.9415 14.8553 43.945 14.9401 43.9502C15.0809 43.7506 15.3354 43.5459 15.3269 43.3532C15.3201 43.1762 15.0572 42.9194 14.8604 42.8586L14.8587 42.8569Z" fill="white"/>
<path d="M27.6631 25.5221C27.8124 25.5533 28.0278 25.2566 28.3552 24.9928C28.0159 24.7637 27.8073 24.5121 27.6376 24.5381C27.4426 24.5676 27.2831 24.8418 27.1084 25.0084C27.2916 25.1906 27.4544 25.4787 27.6631 25.5221Z" fill="white"/>
<path d="M16.1768 53.7829C16.1768 54.0762 16.3397 54.2845 16.6671 54.2879C17.0013 54.2897 17.2489 54.1057 17.2201 53.7881C17.1997 53.5695 16.9589 53.3734 16.818 53.1669C16.3312 53.2328 16.1785 53.4706 16.1768 53.7847V53.7829Z" fill="white"/>
<path d="M20.0107 31.9326C20.0242 32.1357 20.2363 32.3266 20.3601 32.5227C20.4398 32.5279 20.5196 32.5331 20.5993 32.5383C20.7503 32.3387 21.0166 32.1374 21.0149 31.9396C21.0149 31.766 20.735 31.5109 20.5315 31.445C20.1837 31.3339 19.9903 31.6324 20.009 31.9344L20.0107 31.9326Z" fill="white"/>
<path d="M17.8953 8.3452C17.9987 8.01721 17.7646 7.77078 17.4474 7.79508C17.2455 7.8107 17.0572 8.01547 16.8639 8.13522L16.8367 8.37817C17.025 8.52915 17.2116 8.7964 17.4016 8.79987C17.5712 8.80161 17.8342 8.54303 17.8953 8.3452Z" fill="white"/>
<path d="M20.9861 27.0423C21.0251 26.8792 20.7825 26.6432 20.5705 26.2753C20.2974 26.5807 20.0056 26.7733 20.0276 26.9173C20.0582 27.136 20.3075 27.3217 20.4636 27.5195C20.6485 27.3633 20.9403 27.2332 20.9861 27.0406V27.0423Z" fill="white"/>
<path d="M1.3622 51.0618C1.56916 51.0375 1.75407 50.8189 2.10692 50.5777C1.75916 50.3191 1.55729 50.0518 1.35881 50.0536C1.18408 50.0553 0.907571 50.3364 0.865161 50.536C0.797305 50.8519 1.05685 51.0965 1.3622 51.0601V51.0618Z" fill="white"/>
<path d="M16.4601 19.3788C16.4822 19.5662 16.7587 19.7224 16.9249 19.8925C17.0946 19.7085 17.366 19.5419 17.3999 19.3354C17.4254 19.1758 17.1522 18.9658 16.9063 18.6343C16.6823 18.9849 16.4398 19.1983 16.4601 19.3788Z" fill="white"/>
<path d="M14.8723 11.4706C15.0657 11.4724 15.2608 11.2017 15.6051 10.9327C15.2557 10.6862 15.0775 10.4676 14.8791 10.445C14.5754 10.4103 14.3125 10.6255 14.4075 10.9691C14.4652 11.1774 14.7094 11.4706 14.8723 11.4724V11.4706Z" fill="white"/>
<path d="M0.110266 10.629C0.0729449 10.6776 0.0373207 10.7227 0 10.7643V11.8004C0.0407135 11.8195 0.0797305 11.8368 0.118748 11.8437C0.240888 11.8698 0.54115 11.5453 0.566596 11.3526C0.588649 11.1826 0.342672 10.9743 0.110266 10.6272V10.629Z" fill="white"/>
<path d="M19.3881 15.6078C19.5594 15.6286 19.7613 15.3666 19.9513 15.2295C19.9513 15.1531 19.9479 15.0768 19.9462 15.0004C19.7528 14.872 19.5391 14.6221 19.3694 14.6499C19.1794 14.6811 19.0285 14.964 18.8605 15.1375C19.0352 15.3059 19.1981 15.5852 19.3898 15.6078H19.3881Z" fill="white"/>
<path d="M16.0801 21.1854C16.2667 21.1958 16.4686 20.9372 16.7875 20.7064C16.4754 20.4686 16.2633 20.184 16.1005 20.2118C15.8986 20.2448 15.7391 20.5381 15.561 20.7185C15.7341 20.8851 15.8986 21.1732 16.0801 21.1854Z" fill="white"/>
<path d="M22.6519 42.1159C22.825 42.279 22.9794 42.5341 23.1761 42.5775C23.3169 42.6088 23.5154 42.3554 23.8292 42.1246C23.512 41.8712 23.3085 41.5866 23.149 41.6109C22.9641 41.6387 22.8165 41.9354 22.6519 42.1159Z" fill="white"/>
<path d="M18.6077 40.9827C18.7842 40.9757 19.0793 40.6738 19.0861 40.4916C19.0912 40.2972 18.8198 40.0942 18.5721 39.7644C18.3567 40.0959 18.1039 40.3146 18.1243 40.5037C18.1446 40.6911 18.4415 40.9879 18.6077 40.9827Z" fill="white"/>
<path d="M24.5027 44.1012C24.5078 44.2678 24.8115 44.5784 24.9302 44.5541C25.1321 44.5125 25.4205 44.2695 25.4357 44.089C25.451 43.9051 25.183 43.6951 24.9319 43.3463C24.7199 43.6951 24.4976 43.9016 24.5044 44.0994L24.5027 44.1012Z" fill="white"/>
<path d="M12.7247 6.21587C12.8688 6.24364 13.0707 5.9521 13.3964 5.6779C13.0453 5.4523 12.8349 5.21108 12.6704 5.24059C12.4872 5.27356 12.1903 5.59287 12.2208 5.71608C12.2717 5.92433 12.5228 6.17596 12.7247 6.21587Z" fill="white"/>
<path d="M3.1536 51.5477C3.0128 51.7369 2.74646 51.9399 2.76512 52.1083C2.78548 52.2957 3.04163 52.5404 3.24181 52.6046C3.56921 52.7105 3.73716 52.3981 3.72019 52.1343C3.70662 51.933 3.49796 51.7438 3.37752 51.5512C3.30288 51.5512 3.22824 51.5495 3.1536 51.5477Z" fill="white"/>
<path d="M3.30966 10.2472C2.94833 10.0146 2.7295 9.76301 2.55986 9.79425C2.36817 9.83069 2.22228 10.1222 2.05773 10.3027C2.23924 10.4693 2.40888 10.747 2.60396 10.7661C2.7736 10.7834 2.97208 10.511 3.31136 10.2472H3.30966Z" fill="white"/>
<path d="M18.3584 34.0724C18.3889 34.2823 18.6162 34.5826 18.7977 34.6155C18.964 34.645 19.1811 34.3691 19.517 34.1262C19.1964 33.8884 19.0064 33.6403 18.8147 33.6385C18.6519 33.6385 18.338 33.9439 18.3567 34.0724H18.3584Z" fill="white"/>
<path d="M19.1506 20.6977C19.1777 20.9077 19.4034 21.0916 19.5442 21.286C19.7257 21.1211 20.0158 20.9823 20.0582 20.7862C20.0938 20.6231 19.8376 20.394 19.612 20.0383C19.3745 20.3593 19.1302 20.5485 19.1506 20.6994V20.6977Z" fill="white"/>
<path d="M20.9912 18.617C20.9606 18.7749 21.2083 18.9901 21.3322 19.1792C21.4136 19.1775 21.4933 19.174 21.5747 19.1723C21.6969 18.9762 21.931 18.768 21.9123 18.5857C21.8937 18.4053 21.6222 18.2508 21.4611 18.0859C21.2948 18.2595 21.0302 18.4139 20.9912 18.6152V18.617Z" fill="white"/>
<path d="M2.32915 57.9635C2.3512 57.842 2.05942 57.5487 1.89148 57.5348C1.71336 57.5192 1.51488 57.7414 1.32488 57.8594C1.32488 57.9461 1.32488 58.0346 1.32319 58.1214C1.51318 58.2446 1.72354 58.4876 1.88639 58.4581C2.0679 58.4251 2.29692 58.1596 2.33085 57.9635H2.32915Z" fill="white"/>
<path d="M6.90263 9.96605C6.90772 9.88623 6.91281 9.8064 6.91959 9.72657C6.73808 9.5808 6.55147 9.31702 6.37674 9.3257C6.20202 9.33264 6.04086 9.61377 5.87292 9.77516C6.03747 9.94523 6.17996 10.1951 6.37674 10.2541C6.51246 10.2958 6.72451 10.0719 6.90263 9.96605Z" fill="white"/>
<path d="M4.50902 5.22844C4.38518 5.41933 4.1375 5.63625 4.16804 5.79591C4.20706 5.99548 4.47339 6.14993 4.64303 6.32347C4.8008 6.15687 5.06543 6.00069 5.08409 5.82021C5.10106 5.63799 4.87204 5.42974 4.7516 5.23191C4.67017 5.23191 4.59044 5.23017 4.50902 5.22844Z" fill="white"/>
<path d="M19.3067 47.3811C19.4814 47.3915 19.6697 47.1641 19.9767 46.9559C19.6748 46.7182 19.478 46.4474 19.3236 46.4717C19.1421 46.4995 18.9267 46.7633 18.8724 46.9663C18.8452 47.067 19.1438 47.3707 19.3067 47.3811Z" fill="white"/>
<path d="M13.9461 0.862195C13.9427 0.707745 13.6441 0.44223 13.4778 0.44223C13.3218 0.44223 13.0368 0.72857 13.0402 0.88302C13.0453 1.0878 13.2743 1.2891 13.5067 1.64312C13.7272 1.27869 13.9511 1.06871 13.9461 0.862195Z" fill="white"/>
<path d="M22.6961 45.0869C22.8996 45.0452 23.0625 44.7919 23.244 44.6287C23.0845 44.4656 22.9454 44.2122 22.7605 44.1706C22.6112 44.1359 22.406 44.3563 22.0735 44.5541C22.3771 44.8266 22.5671 45.1147 22.6961 45.0886V45.0869Z" fill="white"/>
<path d="M1.96612 60.8061C1.79987 60.9883 1.54541 61.1479 1.49792 61.3579C1.46738 61.4898 1.74559 61.6963 1.99157 62C2.20022 61.6998 2.4479 61.4933 2.41566 61.3544C2.36817 61.1462 2.12558 60.9865 1.96612 60.8061Z" fill="white"/>
<path d="M21.1014 40.2295C21.2609 40.0525 21.5103 39.8946 21.551 39.6916C21.5798 39.5475 21.3271 39.3445 21.1031 39.0338C20.8792 39.341 20.6265 39.5441 20.6553 39.6829C20.6994 39.8894 20.9437 40.049 21.1014 40.2295Z" fill="white"/>
<path d="M8.37849 50.7338C8.40563 50.5933 8.16474 50.3989 7.94591 50.0935C7.70672 50.4215 7.44378 50.6367 7.4794 50.7686C7.53369 50.9751 7.78984 51.1243 7.96118 51.2979C8.11046 51.1122 8.33947 50.9421 8.38019 50.7356L8.37849 50.7338Z" fill="white"/>
<path d="M12.1021 49.5885C11.8815 49.9078 11.6203 50.1299 11.6576 50.2722C11.7068 50.4649 11.985 50.5933 12.1648 50.7495C12.3022 50.5794 12.5448 50.4111 12.5482 50.2375C12.5533 50.064 12.3192 49.8852 12.1021 49.5885Z" fill="white"/>
<path d="M23.2559 35.6151C23.0811 35.6307 22.9268 35.8928 22.7622 36.0472C22.9268 36.2225 23.071 36.4984 23.2643 36.5401C23.4051 36.5713 23.6087 36.2937 23.9022 36.0577C23.607 35.8425 23.4204 35.5978 23.2559 35.6134V35.6151Z" fill="white"/>
<path d="M4.8449 11.0194C5.01624 10.8511 5.28087 10.7071 5.32668 10.5092C5.3606 10.3635 5.10784 10.1465 4.88561 9.81681C4.65999 10.1379 4.41911 10.3305 4.4208 10.5214C4.4208 10.688 4.69392 10.8528 4.8449 11.0194Z" fill="white"/>
<path d="M24.0837 27.2176C24.2347 27.3842 24.3738 27.674 24.5366 27.6861C24.7232 27.7017 24.9268 27.4727 25.2627 27.261C24.9506 27.0059 24.7572 26.7317 24.613 26.756C24.4162 26.7889 24.2584 27.0527 24.0837 27.2176Z" fill="white"/>
<path d="M21.9768 31.4398C21.8258 31.6064 21.5798 31.7608 21.5544 31.9448C21.5323 32.1062 21.7596 32.304 21.9717 32.6337C22.2041 32.3144 22.4586 32.1114 22.428 31.9743C22.3839 31.7712 22.1362 31.6151 21.9768 31.4398Z" fill="white"/>
<path d="M30.0194 37.6195C30.1687 37.4512 30.4163 37.2967 30.4384 37.111C30.4588 36.9479 30.2297 36.7518 30.0109 36.4203C29.7836 36.7466 29.5376 36.9514 29.5681 37.0867C29.6139 37.2898 29.8582 37.4425 30.0177 37.6178L30.0194 37.6195Z" fill="white"/>
<path d="M14.9435 9.16604C14.9198 9.31875 15.1573 9.51312 15.3761 9.83069C15.6034 9.51485 15.8562 9.30834 15.824 9.17298C15.7748 8.96994 15.5271 8.81549 15.3625 8.64195C15.2133 8.81549 14.9724 8.97341 14.9435 9.16604Z" fill="white"/>
<path d="M1.23837 9.87581C1.21292 9.70227 0.934713 9.43849 0.782038 9.44891C0.622577 9.45932 0.369814 9.74392 0.363028 9.91746C0.356243 10.0893 0.605613 10.2732 0.841411 10.5786C1.03819 10.2507 1.26381 10.0424 1.23837 9.87408V9.87581Z" fill="white"/>
<path d="M24.1159 21.3537C23.9378 21.3676 23.7767 21.6088 23.607 21.7494C23.7665 21.9298 23.9005 22.2058 24.0922 22.2596C24.2279 22.296 24.4416 22.0305 24.7572 21.7997C24.4535 21.5758 24.2754 21.3415 24.1142 21.3537H24.1159Z" fill="white"/>
<path d="M24.9794 39.5371C25.1694 39.5163 25.3373 39.2837 25.6274 39.0512C25.3238 38.8516 25.127 38.6208 24.954 38.6382C24.803 38.6538 24.5841 38.9453 24.5757 39.1224C24.5689 39.2629 24.8505 39.551 24.9794 39.5354V39.5371Z" fill="white"/>
<path d="M10.2072 0.915992C10.3344 0.9507 10.5363 0.685185 10.8366 0.452643C10.5312 0.225306 10.3412 -0.021119 10.1919 0.0014411C10.0053 0.0292073 9.85266 0.282574 9.68471 0.43876C9.85605 0.608828 10.0053 0.862195 10.2072 0.915992Z" fill="white"/>
<path d="M14.5449 17.9384C14.511 17.7493 14.2582 17.6035 14.1004 17.4386C13.9494 17.6104 13.7052 17.7684 13.6746 17.961C13.6509 18.112 13.8935 18.3063 14.1242 18.6326C14.3396 18.2977 14.572 18.0929 14.5449 17.9402V17.9384Z" fill="white"/>
<path d="M10.745 52.3165C10.9163 52.3391 11.1131 52.143 11.298 52.0423C11.3014 51.9695 11.3065 51.8966 11.3099 51.8237C11.1368 51.6953 10.9502 51.4506 10.7959 51.4697C10.616 51.4922 10.4634 51.7473 10.3005 51.9018C10.4481 52.0493 10.5838 52.2957 10.7467 52.3165H10.745Z" fill="white"/>
<path d="M18.6722 30.4454C18.6502 30.5686 18.9148 30.8602 19.0675 30.874C19.2371 30.8897 19.4254 30.6727 19.7528 30.4645C19.4441 30.2215 19.2592 29.9682 19.1048 29.9855C18.9352 30.0046 18.7061 30.2597 18.6722 30.4454Z" fill="white"/>
<path d="M29.5274 47.565C29.5512 47.7438 29.8107 48.0058 29.977 48.0128C30.1398 48.0197 30.3129 47.7507 30.6046 47.4956C30.2959 47.3047 30.0957 47.0826 29.9363 47.1104C29.7683 47.1399 29.5088 47.4262 29.5274 47.5668V47.565Z" fill="white"/>
<path d="M18.2396 22.0548C18.2854 22.2491 18.4907 22.5251 18.6468 22.5372C18.8181 22.5511 19.0098 22.3047 19.3304 22.0704C19.0081 21.8708 18.8232 21.6695 18.64 21.6713C18.4958 21.6713 18.2159 21.9576 18.2396 22.0548Z" fill="white"/>
<path d="M5.77622 12.3418C5.62355 12.1839 5.49292 11.9479 5.31141 11.8941C5.18248 11.8559 4.9857 12.0676 4.68714 12.2481C4.96534 12.5119 5.13668 12.7965 5.27918 12.7809C5.459 12.7618 5.61167 12.498 5.77792 12.3401L5.77622 12.3418Z" fill="white"/>
<path d="M30.1364 16.4009C30.2806 16.4165 30.4537 16.1579 30.7013 15.9462C30.4367 15.7449 30.2433 15.4881 30.1042 15.5176C29.9244 15.554 29.7887 15.8178 29.6343 15.9844C29.8006 16.1336 29.9566 16.3818 30.1364 16.4009Z" fill="white"/>
<path d="M5.62694 57.5262C5.44203 57.5765 5.29105 57.7639 5.00606 57.986C5.29275 58.2203 5.45051 58.3487 5.60828 58.4772C5.74399 58.255 5.90345 58.0416 5.99675 57.8021C6.01372 57.7604 5.72703 57.4984 5.62863 57.5244L5.62694 57.5262Z" fill="white"/>
<path d="M19.1693 59.8429C19.0183 60.013 18.7927 60.1657 18.7452 60.3618C18.7146 60.4919 18.9402 60.688 19.1489 61.0004C19.3779 60.6915 19.6256 60.4989 19.6001 60.3531C19.5679 60.164 19.3219 60.0112 19.1676 59.8429H19.1693Z" fill="white"/>
<path d="M0.308744 7.3647C0.281601 7.47577 0.553024 7.78467 0.700611 7.79161C0.873643 7.80029 1.05855 7.57989 1.3639 7.37512C1.07551 7.14778 0.892303 6.89788 0.761681 6.92391C0.580167 6.96036 0.354546 7.18075 0.308744 7.3647Z" fill="white"/>
<path d="M30.189 34.35C30.2043 34.5236 30.4469 34.7578 30.6284 34.803C30.7353 34.829 31.027 34.5496 31.0372 34.3917C31.0491 34.2112 30.8438 34.0151 30.6487 33.6819C30.418 33.996 30.1738 34.1834 30.1873 34.3483L30.189 34.35Z" fill="white"/>
<path d="M26.1889 8.92655C26.3348 8.77384 26.5774 8.63327 26.5995 8.46321C26.6198 8.30008 26.4129 8.10571 26.2127 7.76731C26.0108 8.0953 25.8089 8.27752 25.8225 8.43891C25.8378 8.61071 26.0583 8.76516 26.1889 8.92655Z" fill="white"/>
<path d="M20.5857 23.9741C20.4415 24.132 20.1956 24.2796 20.182 24.4496C20.1684 24.6093 20.3974 24.7915 20.5959 25.0726C20.7995 24.8002 21.0489 24.6075 21.0217 24.4704C20.9861 24.283 20.7401 24.139 20.584 23.9759L20.5857 23.9741Z" fill="white"/>
<path d="M3.98483 2.26613C3.9509 2.40496 4.19349 2.6132 4.38179 2.89434C4.59383 2.63229 4.83642 2.46396 4.83472 2.30083C4.83133 2.13077 4.59044 1.96417 4.45473 1.79757C4.28848 1.95202 4.03063 2.08217 3.98653 2.26786L3.98483 2.26613Z" fill="white"/>
<path d="M17.6527 18.7818C17.8528 18.4365 18.0581 18.2387 18.0428 18.0599C18.031 17.9072 17.7663 17.666 17.6137 17.6677C17.4712 17.6677 17.2184 17.935 17.2167 18.0842C17.2167 18.2664 17.4288 18.4486 17.651 18.7818H17.6527Z" fill="white"/>
<path d="M16.6891 48.0197C16.701 48.1637 16.9775 48.3893 17.1353 48.3859C17.2812 48.3841 17.5339 48.129 17.5373 47.9833C17.5407 47.8236 17.3083 47.6587 17.0997 47.3967C16.9012 47.6761 16.6756 47.8583 16.6891 48.018V48.0197Z" fill="white"/>
<path d="M13.8188 51.3881C13.8154 51.2319 13.5864 51.0809 13.4558 50.9282C13.2963 51.0775 13.0487 51.2024 13.0046 51.3811C12.9723 51.5148 13.203 51.7143 13.4015 52.0146C13.6102 51.7196 13.8222 51.5512 13.8188 51.3881Z" fill="white"/>
<path d="M24.3365 24.7707C24.3297 24.6006 24.1024 24.4392 23.9717 24.2726C23.814 24.4305 23.5663 24.5676 23.529 24.7498C23.4984 24.8974 23.7241 25.1004 23.9175 25.411C24.1244 25.1125 24.3433 24.9355 24.3365 24.7689V24.7707Z" fill="white"/>
<path d="M17.7748 16.6612C17.8936 16.6733 18.1514 16.3887 18.1446 16.2464C18.1361 16.0712 17.919 15.9046 17.7087 15.6217C17.517 15.9236 17.293 16.1197 17.3168 16.2777C17.3405 16.4373 17.6018 16.6456 17.7748 16.6629V16.6612Z" fill="white"/>
<path d="M9.68132 12.7583C9.67114 12.8919 9.91033 13.1731 10.0172 13.1609C10.1919 13.1436 10.4498 12.9631 10.482 12.8104C10.5126 12.6611 10.3022 12.4598 10.1173 12.144C9.89846 12.4338 9.6932 12.5882 9.68132 12.76V12.7583Z" fill="white"/>
<path d="M9.53543 49.9217C9.33186 50.1959 9.10115 50.3711 9.11133 50.5308C9.12151 50.6922 9.36579 50.949 9.51507 50.956C9.65927 50.9612 9.91542 50.7113 9.93239 50.5499C9.94935 50.3937 9.72882 50.2098 9.53373 49.9217H9.53543Z" fill="white"/>
<path d="M27.9617 29.9456C27.9718 30.1191 28.1652 30.3829 28.3179 30.4159C28.4536 30.4454 28.6419 30.2111 28.9167 30.0168C28.6606 29.7981 28.5113 29.5725 28.3467 29.5621C28.2161 29.5534 27.9532 29.8172 27.9617 29.9473V29.9456Z" fill="white"/>
<path d="M24.6469 46.9594C24.6724 46.7962 24.4688 46.5967 24.2941 46.2843C24.0939 46.555 23.8818 46.7164 23.892 46.8622C23.9039 47.0427 24.099 47.211 24.216 47.3845C24.3704 47.244 24.6232 47.1208 24.6486 46.9594H24.6469Z" fill="white"/>
<path d="M28.3773 19.3424C28.5232 19.3493 28.6809 19.1046 28.9252 18.8877C28.6657 18.7037 28.4825 18.4799 28.362 18.5111C28.1958 18.5545 27.9684 18.7888 27.9684 18.9415C27.9684 19.0838 28.2263 19.3337 28.379 19.3406L28.3773 19.3424Z" fill="white"/>
<path d="M26.1414 16.2204C26.2924 16.3592 26.4332 16.5866 26.5995 16.6091C26.7301 16.6282 26.8946 16.3957 27.1644 16.1788C26.8658 15.9983 26.6877 15.8056 26.5214 15.8143C26.3874 15.823 26.267 16.0746 26.1397 16.2204H26.1414Z" fill="white"/>
<path d="M16.969 44.2088C17.0674 44.0352 17.2642 43.8426 17.2388 43.6916C17.2116 43.5302 16.9724 43.4088 16.8248 43.2699C16.6976 43.4157 16.472 43.558 16.4669 43.7073C16.4618 43.8721 16.6586 44.0439 16.7672 44.2123C16.8333 44.2105 16.9012 44.2088 16.9673 44.207L16.969 44.2088Z" fill="white"/>
<path d="M27.1135 26.9486C26.9048 27.2748 26.708 27.4466 26.7216 27.5994C26.7335 27.7538 26.9795 28.0245 27.0761 28.0054C27.2475 27.9707 27.4748 27.7746 27.5104 27.608C27.5393 27.4709 27.3255 27.2783 27.1152 26.9486H27.1135Z" fill="white"/>
<path d="M17.9377 51.7681C17.9343 51.8983 18.1904 52.1343 18.3312 52.1343C18.4652 52.1343 18.6926 51.9018 18.7095 51.7508C18.7265 51.6033 18.5297 51.4315 18.3414 51.1365C18.1446 51.4245 17.9411 51.5946 17.9377 51.7681Z" fill="white"/>
<path d="M7.63717 58.0312C7.45904 58.0745 7.32333 58.2967 7.17066 58.4442C7.30806 58.5778 7.45056 58.826 7.57949 58.8173C7.76779 58.8051 7.94421 58.6108 8.26992 58.4025C7.951 58.2047 7.76779 57.9999 7.63717 58.0329V58.0312Z" fill="white"/>
<path d="M22.6078 22.5355C22.445 22.558 22.2346 22.775 22.1888 22.9485C22.1617 23.0509 22.4009 23.3234 22.5485 23.3494C22.6961 23.3754 22.8793 23.188 23.2033 23.0075C22.9064 22.7594 22.7402 22.5181 22.6078 22.5372V22.5355Z" fill="white"/>
<path d="M20.5535 7.95994C20.6807 7.8159 20.8962 7.67881 20.9098 7.52436C20.9216 7.37685 20.7215 7.21199 20.5365 6.9378C20.3432 7.21025 20.1209 7.39073 20.1481 7.51395C20.1871 7.68575 20.411 7.81417 20.5552 7.95994H20.5535Z" fill="white"/>
<path d="M19.9666 36.9167C19.6442 36.7275 19.4576 36.5314 19.288 36.5453C19.1438 36.5557 19.0166 36.8091 18.8809 36.9548C19.042 37.0833 19.1947 37.2933 19.3694 37.3158C19.5085 37.3332 19.6748 37.1232 19.9666 36.9167Z" fill="white"/>
<path d="M5.18418 55.6624C5.18418 55.4958 4.98231 55.3309 4.78044 55.0359C4.59892 55.3465 4.41062 55.5253 4.43268 55.671C4.45473 55.822 4.68035 56.0459 4.81606 56.0459C4.94838 56.0459 5.18588 55.8012 5.18588 55.6641L5.18418 55.6624Z" fill="white"/>
<path d="M25.8547 12.9284C25.9769 12.9457 26.1346 12.701 26.3687 12.4928C26.1143 12.3106 25.9311 12.085 25.8123 12.1162C25.6427 12.1613 25.5205 12.3939 25.3797 12.5483C25.5375 12.6854 25.6817 12.9041 25.8547 12.9301V12.9284Z" fill="white"/>
<path d="M13.6492 10.9743C13.6492 10.8355 13.4066 10.5665 13.3031 10.5821C13.1318 10.6081 12.9045 10.7938 12.8604 10.957C12.8298 11.0732 13.0605 11.2641 13.2488 11.5227C13.4388 11.2797 13.6492 11.1288 13.6509 10.9743H13.6492Z" fill="white"/>
<path d="M0.0746413 51.6432C0.0491954 51.6762 0.0237495 51.7091 0 51.7386V52.6011C0.0220531 52.6115 0.0441062 52.6202 0.0661594 52.6272C0.159461 52.6532 0.43258 52.4068 0.434277 52.2801C0.43767 52.1117 0.254459 51.9399 0.0746413 51.6432Z" fill="white"/>
<path d="M18.3516 13.6746C18.4924 13.6746 18.7265 13.4438 18.7435 13.2928C18.7604 13.1436 18.5552 12.97 18.3652 12.6854C18.1667 12.9631 17.9597 13.1314 17.9546 13.3049C17.9495 13.4334 18.2108 13.6746 18.3516 13.6746Z" fill="white"/>
<path d="M21.3254 43.3237C21.4594 43.3411 21.6205 43.1346 21.9038 42.9315C21.6256 42.7302 21.4526 42.5133 21.3389 42.5428C21.1744 42.5862 21.0522 42.8066 20.9131 42.9506C21.0489 43.0842 21.1761 43.3064 21.3254 43.3255V43.3237Z" fill="white"/>
<path d="M6.40049 5.53734C6.53281 5.38462 6.74317 5.24579 6.772 5.07399C6.79236 4.95078 6.57353 4.78418 6.36826 4.51519C6.19184 4.81194 6.00354 4.98722 6.02389 5.12778C6.04764 5.2805 6.26648 5.40198 6.40049 5.5356V5.53734Z" fill="white"/>
<path d="M6.74147 49.8748C6.87548 49.7221 7.08244 49.5868 7.11977 49.4132C7.14521 49.29 6.94164 49.1165 6.74486 48.8249C6.54978 49.1321 6.35639 49.3056 6.37505 49.4479C6.39541 49.6041 6.61254 49.7343 6.74317 49.8766L6.74147 49.8748Z" fill="white"/>
<path d="M24.3958 14.6048C24.3687 14.4486 24.1431 14.3288 24.004 14.1917C23.8734 14.3427 23.6528 14.4867 23.6409 14.6481C23.6308 14.7887 23.853 14.9484 24.065 15.2156C24.2296 14.9293 24.4196 14.7471 24.3958 14.6048Z" fill="white"/>
<path d="M18.2328 49.9755C18.3686 49.9842 18.5178 49.7534 18.7536 49.5468C18.5161 49.3733 18.3533 49.1685 18.243 49.1963C18.0903 49.2327 17.8732 49.4462 17.8766 49.5798C17.88 49.7256 18.0971 49.9703 18.2311 49.9772L18.2328 49.9755Z" fill="white"/>
<path d="M34.4589 30.0948C34.6013 30.0983 34.7489 29.8797 35 29.6679C34.7337 29.4927 34.564 29.2931 34.4232 29.3139C34.2841 29.3347 34.0789 29.5829 34.0839 29.7217C34.0907 29.8606 34.3214 30.0914 34.4572 30.0948H34.4589Z" fill="white"/>
<path d="M26.6639 32.396C26.3586 32.1825 26.2059 31.9951 26.0532 31.9934C25.9226 31.9934 25.792 32.2068 25.6614 32.3248C25.7835 32.4654 25.8887 32.6927 26.0329 32.7222C26.1703 32.75 26.3467 32.5713 26.6639 32.396Z" fill="white"/>
<path d="M0.337582 59.0308C0.186603 59.2789 0.0254459 59.4386 0 59.5913V59.6555C0.0254459 59.7856 0.251066 60.0026 0.340975 59.9835C0.49874 59.9505 0.726057 59.7492 0.732842 59.6104C0.741324 59.4594 0.529275 59.2963 0.335886 59.0325L0.337582 59.0308Z" fill="white"/>
<path d="M8.71098 11.9288C8.42938 11.7344 8.27331 11.5401 8.12742 11.5487C7.99341 11.5557 7.761 11.7865 7.76779 11.9062C7.77627 12.0537 7.97644 12.2897 8.11216 12.3054C8.25635 12.321 8.4226 12.1231 8.71098 11.9305V11.9288Z" fill="white"/>
<path d="M15.2574 44.5264C15.2879 44.6843 15.5067 44.8058 15.6441 44.9429C15.7697 44.8005 15.9715 44.6704 15.997 44.5107C16.0174 44.3806 15.8291 44.214 15.6357 43.9068C15.4338 44.2192 15.2336 44.3945 15.2591 44.5264H15.2574Z" fill="white"/>
<path d="M19.9462 44.6426C19.9343 44.804 20.0989 44.9793 20.2516 45.2691C20.4551 44.9984 20.6502 44.8491 20.6621 44.686C20.6706 44.5645 20.4517 44.3355 20.316 44.3198C20.1973 44.306 19.9547 44.5159 19.9462 44.6409V44.6426Z" fill="white"/>
<path d="M8.43786 56.5162C8.58036 56.5353 8.7483 56.3444 9.05026 56.1552C8.75 55.9556 8.59224 55.7734 8.43277 55.7717C8.31063 55.7717 8.07823 56.0129 8.0901 56.1222C8.10876 56.2749 8.29876 56.4971 8.43617 56.5162H8.43786Z" fill="white"/>
<path d="M12.4855 16.6247C12.5126 16.7896 12.6975 16.9284 12.8146 17.0777C12.935 16.9319 13.1233 16.8 13.1555 16.6369C13.1793 16.5137 13.0012 16.3506 12.8281 16.0625C12.6466 16.3436 12.4651 16.5015 12.4855 16.6247Z" fill="white"/>
<path d="M24.384 34.4576C24.4841 34.4715 24.7131 34.2199 24.7131 34.0862C24.7131 33.937 24.5248 33.7843 24.3195 33.4927C24.1295 33.7982 23.9276 33.9856 23.9599 34.1071C24.0006 34.2615 24.2211 34.4351 24.384 34.4594V34.4576Z" fill="white"/>
<path d="M13.4151 44.4951C13.3981 44.5715 13.6475 44.7988 13.7764 44.7988C13.9223 44.7988 14.0682 44.6218 14.3532 44.4257C14.0546 44.2313 13.8765 44.0266 13.7493 44.0561C13.6051 44.0908 13.4541 44.3216 13.4168 44.4934L13.4151 44.4951Z" fill="white"/>
<path d="M6.80933 7.24496C6.92807 7.37685 7.03834 7.60419 7.16896 7.61807C7.31994 7.63369 7.48958 7.46189 7.77457 7.30223C7.51842 7.09051 7.36744 6.87359 7.25208 6.89094C7.09093 6.91697 6.95521 7.11828 6.80933 7.24323V7.24496Z" fill="white"/>
<path d="M20.64 33.2776C20.5416 33.2602 20.3058 33.498 20.2991 33.6316C20.2906 33.7843 20.4687 33.9457 20.6536 34.2459C20.8521 33.9509 21.0539 33.7808 21.0336 33.6455C21.0115 33.498 20.7961 33.3088 20.64 33.2793V33.2776Z" fill="white"/>
<path d="M15.6899 50.156C15.8138 50.1646 16.0479 49.9633 16.0598 49.8366C16.075 49.6753 15.9156 49.4965 15.8324 49.3264C15.7714 49.3212 15.7103 49.316 15.6492 49.3108C15.5508 49.467 15.3744 49.6249 15.3761 49.7811C15.3761 49.9147 15.5712 50.149 15.6916 50.156H15.6899Z" fill="white"/>
<path d="M4.80588 53.5886C4.82794 53.7257 5.06204 53.8888 5.2232 53.9166C5.30971 53.9322 5.53024 53.6805 5.52516 53.5573C5.51837 53.3977 5.34534 53.245 5.15364 52.9482C4.97213 53.2606 4.78383 53.4411 4.80588 53.5886Z" fill="white"/>
<path d="M32.0449 43.4626C32.0517 43.5875 32.2756 43.7975 32.3994 43.794C32.5521 43.7906 32.6997 43.6031 32.9847 43.3984C32.6725 43.2283 32.5012 43.06 32.3468 43.0756C32.2264 43.086 32.0364 43.3307 32.0432 43.4626H32.0449Z" fill="white"/>
<path d="M11.3709 60.7349C11.2352 60.7609 11.1334 60.9692 11.0181 61.0993C11.1504 61.2121 11.2759 61.4013 11.415 61.4117C11.544 61.4221 11.6848 61.2382 11.9562 61.0438C11.6627 60.8789 11.4999 60.7106 11.3726 60.7349H11.3709Z" fill="white"/>
<path d="M4.8924 50.2861C4.96874 50.3191 5.15195 50.0935 5.38435 49.9061C5.16213 49.7238 5.02642 49.526 4.90258 49.533C4.77026 49.5416 4.53276 49.7672 4.54973 49.8575C4.58026 50.0241 4.73972 50.2202 4.8924 50.2861Z" fill="white"/>
<path d="M28.8506 39.971C28.8675 40.1046 29.0915 40.3163 29.2068 40.3042C29.3408 40.2903 29.5461 40.0768 29.5529 39.9415C29.5597 39.8096 29.3544 39.6673 29.1678 39.4399C29.0151 39.6794 28.8336 39.8373 28.8506 39.971Z" fill="white"/>
<path d="M19.2948 3.17894C19.4051 3.18588 19.6154 2.95334 19.6239 2.81624C19.6324 2.68088 19.4441 2.53164 19.2846 2.30604C19.1167 2.54032 18.9199 2.69477 18.9318 2.83186C18.9419 2.96549 19.1591 3.17026 19.2948 3.17894Z" fill="white"/>
<path d="M16.0241 57.9826C16.1582 58.0971 16.2803 58.2759 16.4296 58.3019C16.5297 58.3192 16.6654 58.1197 16.8486 57.9635C16.6535 57.809 16.5059 57.6095 16.4075 57.6338C16.2616 57.6685 16.1514 57.8594 16.0241 57.9843V57.9826Z" fill="white"/>
<path d="M32.0076 18.8825C31.8651 19.0612 31.692 19.1879 31.709 19.2782C31.7361 19.4222 31.8888 19.5419 31.9872 19.6704C32.1009 19.5385 32.2552 19.4205 32.3112 19.266C32.335 19.2001 32.1518 19.056 32.0076 18.8825Z" fill="white"/>
<path d="M33.7752 34.6624C33.8125 34.7978 33.9516 34.9696 34.0738 34.9939C34.1739 35.0129 34.3096 34.8411 34.542 34.6728C34.3062 34.5236 34.1772 34.3795 34.0602 34.3882C33.9533 34.3951 33.7582 34.5965 33.7752 34.6607V34.6624Z" fill="white"/>
<path d="M24.0481 56.1691C24.0684 56.301 24.2432 56.4086 24.3517 56.5266C24.4637 56.4138 24.6435 56.3131 24.6639 56.1847C24.6808 56.0754 24.5129 55.9348 24.3585 55.7092C24.2025 55.9279 24.0311 56.0632 24.0481 56.1691Z" fill="white"/>
<path d="M31.0898 31.1986C31.1916 31.2957 31.2798 31.445 31.3969 31.4745C31.48 31.497 31.6021 31.3599 31.8023 31.2333C31.6004 31.0875 31.4868 30.9469 31.368 30.94C31.2798 30.9348 31.1831 31.1048 31.0898 31.1968V31.1986Z" fill="white"/>
</svg>
