<svg width="33" height="60" viewBox="0 0 33 60" fill="none" xmlns="http://www.w3.org/2000/svg">
<path d="M0.42435 6.94915C0.233898 6.91238 0.0985721 6.8823 0.00167545 6.84553V7.67949C0.12029 7.64105 0.277335 7.65108 0.42435 7.64774V6.94915Z" fill="white"/>
<path d="M1.22625 3.94085C0.038429 3.87567 0.618136 2.91637 0.399283 2.36485H0V4.48235H1.22625V3.94085Z" fill="white"/>
<path d="M28.952 29.2506V28.5253H27.6339C27.5805 28.8578 27.7475 29.2773 27.1912 29.3058C26.5313 29.3392 26.9523 28.7542 26.68 28.4969H25.2483V27.6813C25.6659 27.6813 26.0619 27.6813 26.4578 27.6813C26.6599 27.6813 26.807 27.6278 26.7969 27.3804C26.7886 27.1682 26.8036 26.9342 26.5079 26.9292C25.8363 26.9192 25.1647 26.9259 24.428 26.9259V28.4651H23.6762V26.9442C23.9301 26.9192 24.1573 26.8958 24.4263 26.8674C24.4096 26.6066 24.3946 26.366 24.3795 26.1253C24.6569 26.1069 24.9325 26.0886 25.2032 26.0685C25.2266 25.7978 25.2449 25.5705 25.27 25.283H26.7435C26.8972 24.8301 26.7134 24.6797 26.3509 24.6747C25.9934 24.6713 25.6358 24.678 25.2783 24.678C24.6318 24.678 23.9853 24.6747 23.3387 24.678C23.0347 24.678 22.8025 24.7449 22.8442 25.1443C22.876 25.4518 22.8509 25.766 22.8509 26.1654C22.5502 26.0969 22.1492 26.0835 22.1275 25.9866C22.0457 25.6206 22.0139 25.2061 22.1142 24.8518C22.1693 24.6579 22.5268 24.551 22.8275 24.3538C22.8309 24.3153 22.8409 24.1532 22.8509 24.0028C23.0113 23.9142 23.19 23.7337 23.3003 23.7688C23.7113 23.9025 23.6445 23.6218 23.6478 23.4162C23.6578 22.8012 23.6545 22.1861 23.6562 21.5711C23.2903 21.5644 22.9227 21.5444 22.5569 21.5544C22.2578 21.5611 22.0607 21.521 22.0624 21.1433C22.0624 20.7488 22.3046 20.7438 22.5786 20.7422C22.9294 20.7422 23.2786 20.7422 23.6595 20.7422C23.6445 20.4463 23.6328 20.2224 23.6211 19.9784C23.1967 19.9784 22.8258 19.975 22.455 19.9784C22.186 19.9817 22.0557 19.8831 22.0657 19.589C22.0841 19.1077 22.0791 18.6263 22.0657 18.145C22.0607 17.9678 21.9939 17.794 21.9521 17.5952C21.5328 17.8509 21.3691 17.7021 21.2354 17.0202C21.0817 17.0052 20.9213 16.9902 20.7476 16.9734C20.7259 16.9066 20.6975 16.8431 20.6874 16.7779C20.6373 16.4587 20.5454 16.1177 21.08 16.1478C21.1435 16.1512 21.2471 15.9991 21.2772 15.9005C21.3156 15.7751 21.3006 15.6331 21.3123 15.4359H22.8058V14.6387H20.7242C20.7025 14.3044 20.6724 13.9718 20.6607 13.6359C20.6423 13.1295 20.4435 12.9741 19.9306 13.0978C19.9156 13.3117 19.8989 13.5289 19.8805 13.7813C19.6283 13.8047 19.3877 13.8264 19.097 13.8515V15.3874H18.3218V13.8348C18.4755 13.8264 18.5975 13.8248 18.7194 13.8097C18.838 13.7964 18.955 13.7679 19.107 13.7412V13.0343H17.535V12.1936H19.1087V11.4415C19.3108 11.4415 19.4462 11.4415 19.5815 11.4415C19.8438 11.4382 20.1111 11.4649 20.3633 11.4165C20.4769 11.3947 20.5621 11.2192 20.6607 11.114C20.5621 11.0237 20.4769 10.9034 20.3617 10.8549C20.2598 10.8115 20.1228 10.8449 19.9774 10.8449C19.924 10.5975 19.9423 10.3067 19.807 10.168C19.6784 10.036 19.3877 10.0644 19.1672 10.0209C19.0686 10.8265 19.0034 10.7429 18.4037 10.89C18.3018 11.1039 18.235 11.4248 18.1297 11.4365C17.6753 11.4933 17.2092 11.4616 16.7431 11.4616C16.7214 11.2176 16.7063 11.0454 16.6913 10.8783C15.9779 10.8064 15.8626 10.6828 15.9529 10.0126C16.2736 10.0126 16.6061 10.0126 16.9385 10.0126C17.4865 10.0109 17.5968 9.84881 17.428 9.29896C17.2025 9.2672 16.977 9.23545 16.7364 9.20035V8.45497H18.265V7.66446C17.3178 7.66446 16.3989 7.65443 15.4784 7.6795C15.3765 7.68284 15.2295 7.87002 15.1944 7.99704C15.1443 8.17586 15.181 8.37976 15.1794 8.57196C15.176 8.95802 15.1877 9.34408 15.1593 9.72848C15.151 9.83711 15.0374 10.0143 14.9538 10.026C14.8269 10.0443 14.6364 9.98251 14.5596 9.88725C14.4476 9.74686 14.3658 9.54798 14.3541 9.36748C14.3257 8.94298 14.3591 8.51346 14.3441 8.08729C14.3324 7.78144 14.4794 7.66446 14.7567 7.6561C14.8653 7.65276 14.9739 7.6561 15.1426 7.6561C15.1426 7.35527 15.1426 7.08285 15.1426 6.81211C15.1404 6.34526 15.3615 6.09736 15.8059 6.06839C15.8292 6.06839 15.8493 6.04165 15.9044 6.00488C15.9044 5.684 15.9211 5.33972 15.8961 5.00045C15.8844 4.84502 15.7891 4.69461 15.7307 4.54252C15.5569 4.64447 15.2378 4.7414 15.2345 4.84836C15.2211 5.30963 14.9321 5.32133 14.5462 5.30295C14.5462 5.60545 14.5462 5.87787 14.5462 6.15028C14.5462 6.62047 14.3123 6.87172 13.8445 6.90403C13.8211 6.90403 13.7994 6.93077 13.761 6.95416C13.7443 7.16976 13.7276 7.39538 13.7092 7.63604H12.9324C13.0543 7.00932 12.7753 6.77033 12.199 6.88899V5.29626C12.9825 5.23108 13.0677 5.12245 12.914 4.18153C12.8388 3.71357 12.4646 3.95757 12.1906 3.92749C12.1722 4.1364 12.1572 4.30854 12.1371 4.51912C11.5825 4.4506 11.2467 4.62943 11.362 5.23443H8.35985C8.17775 4.93193 8.07082 4.57427 7.9355 4.56257C7.50782 4.52915 7.34912 4.34531 7.37752 3.96092C7.33241 3.93752 7.30902 3.91412 7.28396 3.91412C5.64507 3.90911 4.00618 3.90242 2.36729 3.91746C2.26873 3.91746 2.15846 4.09128 2.07994 4.20158C2.01311 4.2935 1.97971 4.50575 1.93961 4.50408C1.40835 4.48068 1.28472 4.83165 1.24964 5.25448H0.00334483V6.1085C0.494511 6.0099 0.551307 6.10014 0.708347 6.85556C0.87541 6.87227 1.04916 6.88899 1.25465 6.90904V7.63771C1.04248 7.6561 0.868731 7.66947 0.701668 7.68451C0.646537 8.01375 0.593074 8.21263 0.511213 8.32795C0.34415 8.20929 0.177093 8.08729 0.0167127 7.96027V8.46834C0.0167127 8.46834 0.00835836 8.46834 0.0050171 8.46667V10.0193C0.0050171 10.0193 0.0133715 10.0193 0.0167127 10.0193V11.6454C10.0171 11.6454 18.123 19.7544 18.123 29.7587C18.123 39.7629 10.0171 47.8719 0.0167127 47.8719V49.2658H0.0050171V56.992H0.449401V55.4729H1.25465C1.36658 56.1614 1.49689 56.2751 2.05154 56.1347V54.6723C2.21526 54.6523 2.32218 54.6389 2.43077 54.6272C2.55105 54.6138 2.67134 54.5988 2.79163 54.5854C2.81168 54.6874 2.84509 54.7893 2.84676 54.8929C2.85345 55.4361 2.85177 55.4361 3.40308 55.4361C3.73887 55.4361 4.07634 55.4361 4.49233 55.4361V56.9803C4.90219 57.0138 5.16281 56.7737 5.27419 56.26C5.75978 56.172 6.00258 55.8667 6.00258 55.3442C6.00258 54.8528 6.00258 54.3598 6.00258 53.9052C6.09279 53.8567 6.11619 53.8333 6.14124 53.8317C6.43026 53.8266 6.71928 53.8233 7.00663 53.8233C7.42596 53.8233 7.59803 53.9904 7.60138 54.4066C7.60472 54.7442 7.60138 55.0818 7.60138 55.411C8.00121 55.4411 8.20225 55.2812 8.20448 54.9314C8.20448 54.8077 8.20448 54.684 8.20448 54.5603C8.20448 54.1002 8.43168 53.8495 8.88609 53.8083C8.90781 53.8066 8.92786 53.7765 8.9479 53.7598C9.00972 53.0178 9.0849 52.9559 9.75984 53.1113C9.7732 53.3219 9.78656 53.5375 9.80327 53.8166H11.3352V54.5971H12.8956C12.9123 54.3966 12.904 54.2278 12.9474 54.0723C12.9741 53.9787 13.0861 53.8283 13.1462 53.835C13.6106 53.8868 13.756 53.6528 13.7476 53.24C13.7476 53.1799 13.7911 53.1197 13.8094 53.0712C13.9949 53.0512 14.1536 53.0345 14.3758 53.0094C14.329 52.7453 14.2906 52.5164 14.2622 52.3559C14.0483 52.3208 13.8379 52.3292 13.8195 52.274C13.761 52.0919 13.7242 51.8746 13.7744 51.6991C13.8011 51.6039 14.0149 51.5337 14.1553 51.5053C14.3273 51.4702 14.5111 51.4936 14.6915 51.4902C15.1693 51.4785 15.2128 51.41 15.0875 50.9872C14.8786 50.8902 14.6832 50.8484 14.5529 50.7315C14.1653 50.3822 14.3875 49.9092 14.3775 49.493C14.3775 49.4295 14.7266 49.3226 14.9204 49.3059C14.9973 49.2992 15.146 49.4713 15.1643 49.5799C15.2028 49.8072 15.1744 50.0462 15.1794 50.2802C15.1877 50.7047 15.3565 50.8718 15.7741 50.8735C16.0849 50.8735 16.3956 50.8735 16.7046 50.8735C16.7214 51.0924 16.7331 51.2429 16.7431 51.3866C17.4314 51.6089 17.4949 51.5671 17.4999 50.8735C17.5015 50.6161 17.4999 50.3604 17.4999 50.0947C17.7872 50.0713 18.0128 50.0546 18.2917 50.0312V46.9343C18.5874 46.9076 18.8297 46.8859 19.0786 46.8641C19.097 46.5967 19.1137 46.3561 19.1287 46.1321C19.3994 46.1087 19.6166 46.0903 19.8337 46.0719C19.8505 45.985 19.8705 45.9332 19.8705 45.8797C19.8672 45.5355 19.8972 45.2447 20.375 45.2948C20.4552 45.3032 20.6206 45.1076 20.639 44.989C20.6808 44.7015 20.7593 44.5394 21.0967 44.5511C21.785 44.5728 22.4733 44.5594 23.1633 44.5578C23.6962 44.5578 23.7146 44.5294 23.5977 43.9745C23.5492 43.9661 23.4974 43.9528 23.444 43.9511C22.8626 43.926 22.8492 43.9127 22.8409 43.3327C22.8409 43.2659 22.8375 43.2007 22.8342 43.1339C23.0848 43.1339 23.3354 43.1339 23.6194 43.1339V41.5729C23.3471 41.5578 23.1065 41.5445 22.8626 41.5311V40.8125C23.1232 40.7807 23.3638 40.7506 23.6528 40.7139V39.9935H22.9144C22.7423 39.2699 22.8041 39.203 23.6528 39.1529C23.6545 38.4977 23.6578 38.4961 24.3996 38.3356V37.027C24.1507 37.0086 23.9251 36.9903 23.6946 36.9735C23.6678 36.7028 23.6461 36.4755 23.6244 36.2582C23.1555 36.188 22.8799 35.9262 22.7974 35.4727C22.9278 35.456 23.0581 35.4259 23.1884 35.4259C23.8583 35.4209 24.5282 35.4243 25.2015 35.4243C25.2249 35.1151 25.2433 34.8744 25.2633 34.612C25.407 34.612 25.5156 34.6154 25.6242 34.612C25.7444 34.607 25.8647 34.592 25.98 34.582C26.0568 34.1998 25.8207 33.9313 25.2717 33.7764V33.031C25.417 33.031 25.5256 33.036 25.6358 33.031C25.7561 33.0243 25.8764 33.0059 25.9883 32.9926C26.0936 32.4294 26.0184 32.3491 25.2733 32.192V30.0394C26.122 30.0394 26.9356 30.0227 27.7459 30.0478C28.08 30.0578 28.2571 29.9525 28.2337 29.6216C28.2136 29.3475 28.374 29.2941 28.5762 29.2656C28.6931 29.2489 28.8134 29.2506 28.9621 29.2406L28.952 29.2506ZM5.22073 6.07173C4.94507 6.08677 4.72957 6.09847 4.47563 6.11184C4.45224 6.36253 4.43219 6.60153 4.40713 6.86893H3.67206V6.11686C3.89926 6.0968 4.13816 6.07675 4.37038 6.05669C4.48899 5.37816 4.42217 5.29626 3.78566 5.29794C3.74389 5.29794 3.7038 5.29794 3.66203 5.29794C3.15527 5.30239 2.86792 5.55865 2.79998 6.06672H2.09331C1.94629 5.37983 2.00476 5.31298 2.77326 5.2595C2.78829 5.2361 2.81335 5.21437 2.81502 5.19097C2.84843 4.7375 3.09123 4.51132 3.54341 4.51244C3.96943 4.51244 4.3971 4.51745 4.82311 4.51077C5.08707 4.50575 5.23409 4.58932 5.2224 4.88513C5.20736 5.26785 5.21905 5.65057 5.21905 6.0734L5.22073 6.07173ZM8.19279 7.66947C7.81188 7.66947 7.45604 7.65108 7.1052 7.67448C6.76439 7.69788 6.77275 7.48563 6.76105 7.25666C6.74769 7.00765 6.81451 6.85389 7.10353 6.88731C7.18205 6.89567 7.26392 6.87227 7.33742 6.86392C7.50783 6.06505 7.54124 6.03497 8.19279 6.12856V7.67114V7.66947ZM8.95627 6.89734C8.97464 6.58648 8.988 6.36086 9.00137 6.11017H10.5534C10.5651 6.22549 10.5684 6.30571 10.5818 6.38593C10.6403 6.7603 10.5317 6.94915 10.1023 6.90403C9.73979 6.86559 9.37058 6.89567 8.95459 6.89567L8.95627 6.89734ZM10.1892 9.27055C9.99038 9.25383 9.76484 9.26386 9.77152 8.95468C9.77988 8.54522 9.7732 8.13575 9.7732 7.69287H10.5734C10.5734 8.1391 10.5701 8.56026 10.5734 8.98309C10.5768 9.26052 10.393 9.28893 10.1875 9.27055H10.1892ZM13.7109 14.5818C13.4503 14.5935 13.2331 14.6036 12.934 14.6153C12.9457 14.3512 12.8689 14.027 12.9925 13.9067C13.1245 13.778 13.4436 13.8398 13.7126 13.8147V14.5802L13.7109 14.5818ZM13.2281 10.0527C12.8873 10.0594 12.5465 10.0527 12.1823 10.0527C12.1856 10.3769 12.1873 10.7195 11.8632 10.7881C11.5107 10.8616 11.113 10.8867 10.7739 10.7931C10.6352 10.7546 10.5968 10.3519 10.5183 10.1329C10.7956 10.0209 10.9827 9.97081 11.1398 9.87388C11.235 9.81538 11.3436 9.68168 11.3419 9.58475C11.3336 9.30397 11.4605 9.22208 11.7128 9.22542C12.2357 9.23044 12.7603 9.21205 13.2815 9.23044C13.4787 9.23712 13.7577 9.20704 13.7359 9.55132C13.7159 9.86552 13.5522 10.046 13.2281 10.051V10.0527ZM14.8118 10.6661C15.0992 10.5691 15.2078 10.8766 15.2178 11.0772C15.2278 11.2711 15.1543 11.5368 14.75 11.5635C14.6114 11.4198 14.334 11.2293 14.3641 11.144C14.4309 10.9518 14.6214 10.7312 14.8118 10.6677V10.6661ZM14.7934 14.6136C14.4844 14.5919 14.3691 14.3863 14.3457 14.144C14.3123 13.7847 14.6147 13.8431 14.8352 13.8181C15.1693 13.7796 15.176 14.0086 15.1744 14.2693C15.2078 14.5267 15.0841 14.6337 14.7934 14.6136ZM15.8727 13.0393C15.4801 13.0393 15.1125 13.0443 14.7467 13.0376C14.5295 13.0326 14.2789 12.9758 14.3557 12.7067C14.4092 12.5195 14.6013 12.2738 14.7717 12.2371C15.1092 12.1635 15.4751 12.2153 15.8727 12.2153V13.0409V13.0393ZM16.7431 13.8716C17.5149 13.7128 17.6185 13.8131 17.4531 14.5902H16.7431V13.8716ZM17.4798 17.5133C17.433 17.6252 17.251 17.774 17.1624 17.7556C17.0004 17.7222 16.7865 17.6069 16.7297 17.4698C16.5944 17.1406 16.8166 16.94 17.0989 16.803C17.398 16.9484 17.6318 17.1456 17.4798 17.5133ZM1.20453 53.7715C1.0358 53.8885 0.726729 53.8016 0.484488 53.8016C0.426016 53.1832 0.61647 53.0111 1.26969 53.1063C1.25465 53.3336 1.32314 53.6896 1.20286 53.7732L1.20453 53.7715ZM1.99808 52.2005C1.80095 52.3024 1.53197 52.264 1.32648 52.2791C1.14271 51.8111 1.38663 51.649 1.61551 51.5203C1.6957 51.4752 1.94629 51.5437 1.96299 51.6022C2.01812 51.8011 2.07493 52.1621 1.99808 52.2022V52.2005ZM3.61191 54.6573C3.33124 54.6339 3.05893 54.6105 2.78661 54.5871C2.81167 54.3615 2.83674 54.1375 2.86681 53.8718H3.61191V54.6573ZM3.60523 50.9002C3.18089 50.9002 2.79831 50.9069 2.41741 50.8986C2.07493 50.8919 2.05154 50.6412 2.03317 50.3805C2.02314 50.2451 2.05989 50.1699 2.12171 50.1281C2.14676 50.1281 2.17183 50.1265 2.19689 50.1248C2.247 50.1047 2.30715 50.0897 2.37397 50.0763C2.38232 50.0763 2.39067 50.0763 2.4007 50.0763C2.79497 50.0763 3.19091 50.0763 3.65534 50.0763C3.63697 50.3905 3.62193 50.6295 3.60523 50.9019V50.9002ZM8.10089 49.2758C8.07583 49.3326 7.73169 49.3476 7.65651 49.2674C7.50114 49.1003 7.4293 48.8563 7.32238 48.6457C7.36582 48.6089 7.41092 48.5738 7.45436 48.5371H8.25793C8.20948 48.8045 8.19612 49.0568 8.10257 49.2758H8.10089ZM9.73978 50.8434C9.10327 50.9905 8.91784 50.82 8.99636 50.1047H9.73978V50.8434ZM9.74814 49.2908C8.98634 49.3577 8.96294 49.3376 8.96294 48.6557C8.96294 48.5588 8.96294 48.4635 8.96294 48.3666C8.96294 48.1443 8.96461 47.9906 8.99134 47.8853C9.18012 47.8234 9.36891 47.7649 9.55936 47.7081C9.61783 47.7148 9.67798 47.7215 9.74814 47.7282V49.2908ZM12.1873 50.0613C12.4312 50.0914 12.6968 50.0763 12.9023 50.1783C12.9708 50.2117 12.9658 50.6195 12.8605 50.7264C12.7235 50.8685 12.4546 50.8852 12.1856 50.9738V50.0596L12.1873 50.0613ZM10.6002 49.3242H11.3269V50.0629H10.6002V49.3242ZM12.9491 52.8172C12.8605 53.3136 12.4663 52.976 12.1455 53.118C12.2992 52.5013 11.9601 52.3676 11.514 52.2673C11.4037 52.2423 11.3553 51.9481 11.2467 51.7091C10.7678 51.5933 10.5545 51.3281 10.6068 50.9136H11.3469C11.3119 51.298 11.4121 51.5236 11.8565 51.542C12.2608 51.5587 12.1305 51.9665 12.1823 52.2139C12.8522 52.3041 13.0176 52.4228 12.9474 52.8155L12.9491 52.8172ZM14.0417 47.7081C13.7693 47.7683 13.6892 47.6045 13.7075 47.3388C13.7209 47.1248 13.6791 46.8825 14.0266 46.9042C14.3056 46.921 14.5328 46.9544 14.5479 47.3204C14.5629 47.6897 14.3357 47.7031 14.0417 47.7081ZM15.8894 48.5454C15.6304 48.4936 15.3648 48.502 15.1894 48.3816C15.1025 48.3215 15.0992 47.9438 15.1944 47.8552C15.3397 47.7198 15.602 47.7115 15.8894 47.6262V48.5471V48.5454ZM16.7113 49.2457C16.7113 49.1003 16.7113 48.9649 16.7113 48.8295C16.7113 48.736 16.7197 48.644 16.7247 48.5287H17.4598C17.6151 49.3059 17.5149 49.4078 16.7113 49.244V49.2457ZM22.4784 34.6204C22.5819 34.6221 22.6855 34.6037 22.7891 34.5937C22.7891 34.8895 22.7874 35.1836 22.7858 35.4794C22.6822 35.4661 22.5769 35.4427 22.4733 35.4443C22.1392 35.451 22.0741 35.2471 22.0624 34.9663C22.049 34.6521 22.2344 34.6137 22.4767 34.6187L22.4784 34.6204ZM22.0958 38.9072C22.0841 39.0342 21.9204 39.1495 21.7433 39.3702C21.5278 39.1495 21.3056 39.0225 21.3106 38.9022C21.3189 38.6548 21.4459 38.4042 21.7717 38.4042C22.1259 38.4042 22.1142 38.6916 22.0958 38.9055V38.9072ZM22.308 22.3499C22.47 22.3499 22.6321 22.3499 22.8492 22.3499C22.8492 22.5538 22.8542 22.6909 22.8476 22.8262C22.8426 22.9198 22.8225 23.0117 22.8058 23.1187C22.6554 23.1271 22.5017 23.097 22.3898 23.1505C22.2846 23.2006 22.1843 23.3293 22.1509 23.4429C22.0858 23.6669 22.1008 23.9293 21.7683 23.941C21.4342 23.9543 21.3841 23.6836 21.2855 23.4613C21.2805 23.4496 21.2855 23.4346 21.2855 23.4195C21.3223 22.2379 21.0483 22.3616 22.3063 22.3499H22.308ZM20.6774 20.0352C21.3457 19.8865 21.4743 19.9851 21.4743 20.6101C21.4743 20.692 21.4743 20.7739 21.4743 20.8558C21.4743 21.5511 21.4108 21.6045 20.6774 21.5143V20.0335V20.0352ZM19.9073 14.5885C20.1946 14.6119 20.4519 14.632 20.7108 14.652C20.6991 14.7005 20.6791 14.749 20.6774 14.7991C20.6524 15.4325 20.5989 15.4777 19.9056 15.3924V14.5885H19.9073ZM18.2934 22.38H19.0452C19.2039 23.0368 19.1555 23.1454 18.4672 23.1304C18.4237 23.0117 18.3786 22.8931 18.3335 22.7744C18.3201 22.7377 18.3068 22.6992 18.2934 22.6608V22.38ZM19.0937 25.7359C19.097 25.7627 19.0987 25.7927 19.1003 25.8245C19.0018 25.4401 19.0452 25.5471 19.0937 25.7359ZM19.0786 40.0102V40.7456H18.3168V40.0102H19.0786ZM18.9316 44.6464C18.8614 44.7349 18.5173 44.7516 18.4638 44.6781C18.3352 44.5026 18.3051 44.2553 18.2132 43.9678H19.1738C19.087 44.2352 19.0602 44.4809 18.9299 44.6464H18.9316ZM19.8137 18.3288C19.6249 18.4024 19.2657 18.4592 19.2089 18.3706C19.0886 18.1834 19.117 17.901 19.0853 17.6587C19.1421 17.6119 19.1972 17.5634 19.254 17.5166C19.4662 17.6403 19.7085 17.7355 19.8772 17.9027C19.9423 17.9662 19.8855 18.3021 19.8137 18.3288ZM22.8225 42.3935V43.1389C22.729 43.1455 22.6354 43.1589 22.5435 43.1556C22.2662 43.1422 22.0924 43.2191 22.1091 43.5467C22.1158 43.677 22.0473 43.809 22.0106 43.9494H19.9557C19.9306 43.8408 19.8972 43.7372 19.8822 43.6319C19.8254 43.1974 19.8822 43.1355 20.3316 43.1355H22.0306C22.044 42.8915 22.0574 42.6676 22.0724 42.3935C21.4125 42.4988 21.2605 42.1144 21.2621 41.5629C21.0617 41.5779 20.8896 41.5913 20.7175 41.6046C20.6991 41.5729 20.6724 41.5411 20.6674 41.5077C20.5705 40.8359 20.5638 40.8275 19.8839 40.7339C19.8839 40.0587 19.8772 39.3752 19.8872 38.6933C19.8906 38.4794 20.0259 38.359 20.2447 38.4175C20.4686 38.4777 20.6841 38.5629 20.6791 38.8638C20.6724 39.2181 20.6791 39.5724 20.6791 39.9835C21.0366 39.9835 21.3524 40.0086 21.6614 39.9768C22.0206 39.9401 22.1208 40.1055 22.1158 40.4247C22.1091 40.8375 22.1175 41.2503 22.1225 41.6648C22.1292 42.2715 22.206 42.3534 22.8225 42.3968V42.3935ZM19.8672 41.5512C20.1896 41.5746 20.4519 41.5929 20.7142 41.6113C20.6908 41.8369 20.6691 42.0642 20.6423 42.3316C20.4118 42.3517 20.1863 42.3734 19.9073 42.3985C19.8939 42.1094 19.8822 41.8603 19.8672 41.5512ZM23.8683 25.3348C24.2459 25.1827 24.433 25.3214 24.4347 25.7326C24.4347 25.8613 24.3962 25.9883 24.3729 26.117H23.6595C23.6962 25.8078 23.4941 25.4869 23.8683 25.3348ZM23.6294 34.6338C23.3471 34.6171 23.0748 34.602 22.8008 34.5853C22.8242 34.3613 22.8476 34.1374 22.876 33.875C23.1182 33.86 23.3554 33.8466 23.6311 33.8299V34.6338H23.6294ZM24.418 31.2829C24.3929 31.4082 24.1507 31.5837 24.017 31.577C23.6445 31.5586 23.611 31.2528 23.6478 30.9235C22.8709 30.8199 22.8008 30.7447 22.8643 30.1314C23.5342 29.9325 23.6044 29.9726 23.7013 30.616C24.012 30.7664 24.5316 30.7146 24.418 31.2812V31.2829Z" fill="white"/>
<path d="M11.3737 55.4194C11.3536 55.1302 11.3352 54.8745 11.3169 54.6205C11.0913 54.6372 10.8658 54.6539 10.6185 54.6723C10.5935 54.9313 10.5701 55.172 10.545 55.4244C10.2777 55.4444 10.0388 55.4645 9.80661 55.4812C9.73978 56.1363 9.74145 56.1263 10.3362 56.2299C10.4281 56.2466 10.5584 56.382 10.5684 56.4739C10.5985 56.7597 10.5885 57.0505 10.5784 57.3396C10.5667 57.6421 10.7973 57.7608 11.0028 57.7892C11.2784 57.8277 11.3653 57.6054 11.3503 57.348C11.3453 57.2561 11.362 57.1608 11.3703 57.0371C11.5374 57.0271 11.6994 57.0555 11.8281 57.0004C11.955 56.9469 12.1271 56.8165 12.1371 56.7079C12.1739 56.3035 12.1522 55.894 12.1522 55.4795C11.8598 55.4561 11.6209 55.4361 11.3737 55.416V55.4194Z" fill="white"/>
<path d="M11.317 54.6055C11.317 54.6055 11.317 54.6165 11.317 54.622C11.3207 54.622 11.3262 54.622 11.3299 54.622L11.3152 54.6073L11.317 54.6055Z" fill="white"/>
<path d="M2.83172 2.54032C2.80165 2.88962 3.04055 3.05006 3.27277 3.06176C4.04126 3.10521 4.81309 3.10521 5.58158 3.06176C5.73027 3.0534 5.94912 2.78433 5.98253 2.6055C6.04434 2.28462 5.74196 2.35648 5.55151 2.34645C5.35939 2.33475 5.16726 2.34311 4.97347 2.34311C4.54078 2.34311 4.10808 2.34311 3.67706 2.34311C3.64866 2.02891 3.62694 1.80162 3.60689 1.5643C3.49663 1.55594 3.41644 1.5409 3.33625 1.54257C3.16251 1.54591 2.98709 1.55761 2.81334 1.56597C2.82337 1.89187 2.86012 2.21776 2.83339 2.54032H2.83172Z" fill="white"/>
<path d="M7.39256 56.1932C7.39256 55.9525 7.39256 55.7118 7.39256 55.4745H6.79948C6.79948 55.7553 6.79948 56.0127 6.79948 56.2701C6.79948 56.7558 6.55613 57.0165 6.06942 57.0522C5.96751 57.7374 6.00259 57.7826 6.62072 57.7842C6.94984 57.7842 7.27896 57.7792 7.60807 57.7792C8.1811 57.7792 8.28969 57.6288 8.12931 57.0589C7.47108 56.987 7.39256 56.8968 7.39256 56.1948V56.1932Z" fill="white"/>
<path d="M17.5383 51.908C17.4899 52.2874 17.3295 52.3058 17.0405 52.3242C16.7214 52.3442 16.3989 52.3927 16.0932 52.4796C16.008 52.503 15.9345 52.7069 15.9312 52.8289C15.9312 52.8991 16.0815 53.0311 16.1684 53.0328C16.8617 53.0495 17.555 53.0428 18.2684 53.0428V51.7142C17.9877 51.7158 17.6001 51.4351 17.54 51.908H17.5383Z" fill="white"/>
<path d="M23.2118 17.5768C23.3371 17.6068 23.6194 17.4965 23.6177 17.4581C23.5927 16.9049 23.9836 16.818 24.3845 16.7545V15.4659H23.6779C23.6595 15.7216 23.6428 15.9372 23.6277 16.1445C23.3471 16.1963 23.1015 16.2414 22.8492 16.2882C22.8492 16.6592 22.8175 16.9784 22.8659 17.286C22.8843 17.4029 23.0764 17.545 23.2118 17.5768Z" fill="white"/>
<path d="M19.1371 50.0496C19.67 50.098 19.8137 50.0061 19.8588 49.5532C19.8822 49.3209 19.9891 49.2825 20.1829 49.2975C20.4736 49.3209 20.6691 49.2307 20.654 48.8897C20.649 48.7727 20.6724 48.6541 20.6858 48.5371H19.1388V50.0479L19.1371 50.0496Z" fill="white"/>
<path d="M26.0836 39.9969C26.3158 39.9668 26.548 39.9367 26.7986 39.9049C26.7986 39.3668 26.7986 38.8871 26.7986 38.4058C26.7986 37.7724 26.7201 37.7156 26.0836 37.8727V39.9969Z" fill="white"/>
<path d="M26.0843 40.0109V39.9986C26.0843 39.9986 26.0755 39.9986 26.0702 39.9986L26.0843 40.0091V40.0109Z" fill="white"/>
<path d="M20.3633 9.23379C20.9726 9.23267 21.2794 8.91123 21.2839 8.26947C21.2839 8.22768 21.2855 8.18757 21.2855 8.14579C21.2855 7.80374 21.0951 7.65611 20.7142 7.7029C20.6507 8.17197 20.3929 8.44662 19.9407 8.52684C19.8471 9.15524 19.8939 9.23379 20.3633 9.23212V9.23379Z" fill="white"/>
<path d="M32.1496 30.9219H29.8058V31.3965H32.1496V30.9219Z" fill="white"/>
<path d="M22.8476 47.5661C22.8459 47.8769 22.8359 48.1878 22.8292 48.4986H23.6144V46.9761C23.0163 46.8691 22.8526 47.0045 22.8492 47.5661H22.8476Z" fill="white"/>
<path d="M2.17015 59.2098C2.01979 59.2098 1.83435 59.1563 1.72409 59.2232C1.55035 59.3301 1.40835 59.5056 1.29975 59.6828C1.27971 59.7145 1.47684 59.9669 1.5871 59.9786C1.98972 60.0154 2.39736 59.9936 2.79497 59.9936C2.86848 59.2198 2.86013 59.2098 2.16849 59.2115L2.17015 59.2098Z" fill="white"/>
<path d="M9.77052 3.13105V3.11693L9.75816 3.13105C9.75816 3.13105 9.76699 3.13105 9.77052 3.13105Z" fill="white"/>
<path d="M10.5668 3.92582C10.5534 3.10021 10.7706 3.09185 9.77153 3.13196V4.42051C10.4882 4.62942 10.5768 4.57761 10.5668 3.92582Z" fill="white"/>
<path d="M17.2693 53.8768C16.9603 53.7949 16.6011 53.7982 16.292 53.8768C16.1366 53.9152 15.9729 54.1876 15.9345 54.3798C15.8777 54.6706 16.1567 54.6288 16.3354 54.6339C16.703 54.6439 17.0705 54.6372 17.4698 54.6372C17.4447 54.3364 17.6703 53.9837 17.2693 53.8784V53.8768Z" fill="white"/>
<path d="M27.5955 23.9159C27.5955 23.7521 27.654 23.5432 27.5755 23.4346C27.4719 23.2925 27.2697 23.1922 27.091 23.1404C26.8771 23.0786 26.8153 23.2357 26.8187 23.4312C26.8253 23.7705 26.8203 24.1114 26.8203 24.4708C27.4836 24.5961 27.5955 24.5059 27.5938 23.9159H27.5955Z" fill="white"/>
<path d="M5.49972 58.5898C5.24746 58.5614 5.21404 58.7185 5.21905 58.924C5.22907 59.2616 5.22239 59.6009 5.22239 59.9636C5.97418 60.0371 5.99757 60.017 5.99757 59.3669C5.99757 59.2165 6.00592 59.0661 6.00425 58.9157C5.99757 58.563 5.72024 58.6132 5.50139 58.5881L5.49972 58.5898Z" fill="white"/>
<path d="M4.04795 58.6065C3.91764 58.6015 3.67539 58.7285 3.66537 58.8204C3.62193 59.1931 3.647 59.5741 3.647 59.9702H4.4205C4.4205 59.5641 4.44723 59.2048 4.4038 58.8572C4.39043 58.7552 4.17492 58.6132 4.04795 58.6081V58.6065Z" fill="white"/>
<path d="M27.263 18.3572C27.3817 18.3472 27.4852 18.1868 27.5955 18.0948C27.4986 17.9929 27.4067 17.8124 27.3015 17.804C26.8989 17.7689 26.4929 17.7907 26.0335 17.7907C26.0468 18.023 26.0552 18.1901 26.0652 18.3706C26.5012 18.3706 26.8838 18.3923 27.263 18.3572Z" fill="white"/>
<path d="M24.6535 23.7087C25.0962 23.7388 25.5423 23.722 25.9783 23.722C26.0969 23.3026 26.0151 23.1037 25.6024 23.1271C25.2884 23.1455 24.9726 23.1187 24.6602 23.1521C24.5767 23.1605 24.4447 23.3226 24.4497 23.4062C24.4581 23.5165 24.5733 23.7037 24.6518 23.7087H24.6535Z" fill="white"/>
<path d="M21.6932 11.4248C22.0507 11.485 22.4249 11.4466 22.8091 11.4466V10.875H21.5244C21.4827 10.9084 21.4409 10.9402 21.3991 10.9736C21.496 11.1307 21.5729 11.4048 21.6932 11.4248Z" fill="white"/>
<path d="M31.7704 39.1863C31.4079 39.1913 31.3193 39.4454 31.3745 39.7144C31.478 40.2091 31.8623 39.8849 32.143 39.9651C32.1931 39.2949 32.1313 39.1813 31.7704 39.1863Z" fill="white"/>
<path d="M25.9566 20.8524C25.8146 20.7238 25.5139 20.7689 25.2683 20.7371V21.531H26.0151C26.0017 21.2719 26.0735 20.9594 25.9566 20.8524Z" fill="white"/>
<path d="M32.0728 22.2697C32.1747 22.0775 32.1513 21.8168 32.1797 21.5744H31.2726C31.3795 21.8719 31.4096 22.1343 31.5549 22.2864C31.6401 22.3767 32.0277 22.3533 32.0728 22.2697Z" fill="white"/>
<path d="M3.6069 0H2.86347C2.84342 0.254033 2.82839 0.467956 2.81168 0.680208C3.07397 0.691907 3.33626 0.703605 3.6069 0.715304V0Z" fill="white"/>
<path d="M24.3628 39.1395C24.3628 39.1395 24.3628 39.1452 24.3628 39.1489C24.3666 39.1489 24.3703 39.1489 24.3741 39.1489L24.3628 39.1395Z" fill="white"/>
<path d="M23.6627 40.0014C23.6627 40.0014 23.6627 39.994 23.6627 39.9885C23.6572 39.9885 23.6516 39.9885 23.6461 39.9885L23.6627 39.9996V40.0014Z" fill="white"/>
<path d="M23.6461 39.1684C23.6461 39.1684 23.6567 39.1684 23.6602 39.1684V39.1596L23.6461 39.1684Z" fill="white"/>
<path d="M24.4363 39.9434C24.4096 39.6476 24.3862 39.3986 24.3645 39.1479C24.1306 39.1546 23.895 39.1612 23.6612 39.1679C23.6612 39.442 23.6612 39.7161 23.6612 39.9902C23.9051 39.9752 24.149 39.9601 24.4363 39.9434Z" fill="white"/>
<path d="M26.0702 40.0002C26.0702 40.0002 26.0702 40.0073 26.0702 40.0108C26.0755 40.0108 26.079 40.0109 26.0843 40.0109L26.072 40.0002H26.0702Z" fill="white"/>
<path d="M25.2566 40.7189H25.9867C26.0167 40.4565 26.0435 40.2325 26.0685 40.0102C25.8046 40.0102 25.5423 40.0102 25.2566 40.0102V40.7189Z" fill="white"/>
<path d="M18.8648 5.36645C18.7896 5.2879 18.4538 5.2996 18.4254 5.36144C18.3285 5.56366 18.3168 5.80767 18.2684 6.06003H19.2156C19.0719 5.75753 19.0101 5.52355 18.8648 5.36812V5.36645Z" fill="white"/>
<path d="M26.7435 7.81653C26.5631 7.70122 26.3141 7.69286 26.0635 7.63604V8.55858C26.3425 8.4583 26.5881 8.43323 26.7301 8.29953C26.8187 8.21597 26.8203 7.865 26.7435 7.81653Z" fill="white"/>
<path d="M26.812 41.5328C26.8337 41.862 26.8487 42.0977 26.8621 42.3083C27.2079 42.472 27.4117 42.325 27.5337 42.0793C27.5905 41.9656 27.5855 41.6949 27.5387 41.6782C27.3282 41.598 27.0926 41.5812 26.812 41.5328Z" fill="white"/>
<path d="M32.1146 28.5152C32.1797 28.7927 32.1814 29.0551 32.3084 29.2205C32.3735 29.3074 32.7594 29.2974 32.8279 29.2038C32.9515 29.035 32.9449 28.7726 33 28.5136H32.1146V28.5152Z" fill="white"/>
<path d="M10.1224 59.2382C9.91856 59.4003 9.62285 59.5541 9.85841 59.9886C10.0539 59.9669 10.3095 59.9736 10.5283 59.8867C10.5785 59.8666 10.5283 59.509 10.4598 59.3285C10.4348 59.2599 10.1808 59.1914 10.1224 59.2382Z" fill="white"/>
<path d="M24.3829 20.7472C24.1239 20.7622 23.9034 20.7739 23.6929 20.7873C23.6762 20.8825 23.6645 20.921 23.6645 20.9611C23.6628 21.16 23.6645 21.3588 23.6645 21.5594C23.8984 21.5594 24.134 21.5594 24.3829 21.5594V20.7472Z" fill="white"/>
<path d="M23.6658 21.5743V21.5577H23.6511L23.6658 21.5743Z" fill="white"/>
<path d="M25.8313 18.4676C25.7628 18.3923 25.4454 18.4057 25.3886 18.4859C25.27 18.6497 25.2499 18.8854 25.1764 19.1327H26.1253C26.0101 18.8503 25.9666 18.618 25.8313 18.4692V18.4676Z" fill="white"/>
<path d="M3.57182 57.0572H2.81836C2.86012 57.5352 3.06895 57.8511 3.33124 57.7942C3.71215 57.7107 3.64032 57.4032 3.62027 57.1307C3.62027 57.1073 3.59186 57.0873 3.57182 57.0555V57.0572Z" fill="white"/>
<path d="M2.80333 57.0586H2.81988C2.81988 57.0586 2.81989 57.0494 2.81805 57.0439L2.80333 57.0586Z" fill="white"/>
<path d="M11.1983 2.24453C11.3085 2.05902 11.3252 1.81668 11.3887 1.56098H10.5016C10.5985 1.84342 10.6353 2.08241 10.7622 2.25623C10.814 2.32809 11.1548 2.31639 11.1983 2.24453Z" fill="white"/>
<path d="M24.3879 14.5768V13.8298C24.144 13.8415 23.9134 13.8532 23.6562 13.8649C23.6695 14.1323 23.6796 14.3429 23.6912 14.5768H24.3896H24.3879Z" fill="white"/>
<path d="M6.77608 1.53256C6.77608 1.53256 6.77608 1.54315 6.77608 1.54668H6.7902L6.77608 1.53256Z" fill="white"/>
<path d="M6.26822 2.32641C6.57227 2.33978 6.72096 2.17933 6.76273 1.9019C6.7811 1.78658 6.77274 1.66534 6.77608 1.54668L6.04936 1.54759C6.04101 1.69132 6.02096 1.79995 6.03099 1.90524C6.04769 2.07571 5.95247 2.31471 6.26822 2.32808V2.32641Z" fill="white"/>
<path d="M16.6796 56.1631V55.401C16.4073 55.4578 16.17 55.4846 15.9545 55.5715C15.9144 55.5882 15.9228 55.8623 15.9863 55.9742C16.1316 56.2283 16.3722 56.2884 16.6796 56.1631Z" fill="white"/>
<path d="M19.1154 12.2103C19.1154 12.4827 19.1154 12.7551 19.1154 13.0259H19.8154C19.9139 12.3891 19.7903 12.2588 19.1154 12.2103Z" fill="white"/>
<path d="M19.102 12.2092C19.102 12.2092 19.1108 12.2092 19.1161 12.2092V12.1986L19.102 12.2092Z" fill="white"/>
<path d="M19.1169 13.0406V13.0259H19.1003L19.1169 13.0406Z" fill="white"/>
<path d="M24.4397 43.4063C24.3729 43.7054 24.59 43.8709 24.8289 43.926C25.0745 43.9829 25.2416 43.6419 25.1965 43.1506C24.9242 43.2525 24.5516 42.9183 24.4413 43.4063H24.4397Z" fill="white"/>
<path d="M2.5143 56.245C2.36896 56.2784 2.12839 56.3202 2.11001 56.3987C2.07994 56.5358 2.14343 56.7614 2.25035 56.8433C2.39736 56.9569 2.61455 56.9803 2.80333 57.0388C2.80333 56.7881 2.80333 56.5374 2.80333 56.2667C2.69641 56.2567 2.59951 56.2249 2.51264 56.245H2.5143Z" fill="white"/>
<path d="M2.80333 57.0586L2.81582 57.0441C2.81225 57.0441 2.8069 57.0423 2.80333 57.0405V57.0586Z" fill="white"/>
<path d="M26.0719 14.6403C26.3275 14.5885 26.5881 14.6036 26.7418 14.4816C26.8354 14.408 26.8387 14.0287 26.7468 13.9568C26.5914 13.8331 26.3308 13.8415 26.0702 13.7863V14.6403H26.0719Z" fill="white"/>
<path d="M2.81233 0.692562C2.81233 0.692562 2.81168 0.683739 2.81168 0.680208C2.80815 0.680208 2.80527 0.680202 2.79998 0.680202C2.79998 0.685499 2.79998 0.690797 2.79998 0.694328C2.80351 0.694328 2.80704 0.694328 2.81057 0.694328L2.81233 0.692562Z" fill="white"/>
<path d="M2.45583 1.52418C2.53268 1.58268 2.6797 1.55092 2.79998 1.55427C2.79998 1.26681 2.79998 0.981787 2.79998 0.694328C2.68637 0.70937 2.57111 0.725316 2.45583 0.733673C2.23197 0.750386 2.01311 0.827264 2.08662 1.08631C2.1334 1.25511 2.30548 1.40887 2.45583 1.52418Z" fill="white"/>
<path d="M2.80361 1.5631L2.79831 1.5684C2.80184 1.5684 2.80714 1.5684 2.81067 1.5684C2.81067 1.5631 2.81067 1.55957 2.81067 1.55427C2.80714 1.55427 2.80361 1.55427 2.79831 1.55427C2.79831 1.55957 2.79831 1.5631 2.79831 1.5684C2.79831 1.5684 2.80008 1.56663 2.80185 1.5631H2.80361Z" fill="white"/>
<path d="M23.1733 18.4475C23.013 18.6063 22.8994 18.8135 22.7674 19.0007C22.8091 19.0441 22.8509 19.0859 22.8927 19.1294H23.6929C23.6294 18.8804 23.5977 18.6581 23.5091 18.4609C23.4874 18.4124 23.2335 18.3907 23.175 18.4475H23.1733Z" fill="white"/>
<path d="M12.9507 56.1965C12.9675 56.5224 12.9808 56.748 12.9908 56.9385C13.3968 57.1826 13.5037 56.8567 13.6674 56.6962C13.7226 56.6411 13.6992 56.387 13.6541 56.3686C13.4536 56.2868 13.2297 56.2583 12.9507 56.1965Z" fill="white"/>
<path d="M12.9892 6.94914C13.2581 6.87561 13.4787 6.83716 13.6741 6.74357C13.7092 6.72686 13.6574 6.47617 13.6073 6.34915C13.4987 6.07339 13.2832 6.03161 12.9892 6.13857V6.94914Z" fill="white"/>
<path d="M8.93621 1.50415V0.658486C8.66557 0.758762 8.4534 0.813914 8.2713 0.922547C8.22954 0.947616 8.28133 1.16321 8.32309 1.2802C8.43001 1.58103 8.66223 1.56432 8.93621 1.50415Z" fill="white"/>
<path d="M19.7385 47.0847C19.5915 46.9661 19.356 46.956 19.1204 46.8892V47.7582C19.4027 47.683 19.64 47.653 19.8304 47.5443C19.8789 47.5159 19.8388 47.1649 19.7402 47.0847H19.7385Z" fill="white"/>
<path d="M22.2879 49.1387C22.3815 49.2574 22.6037 49.2741 22.8158 49.3527V48.5154C22.617 48.5505 22.3898 48.5454 22.2378 48.6507C22.1676 48.6992 22.1977 49.0234 22.2896 49.1387H22.2879Z" fill="white"/>
<path d="M22.8158 48.5165C22.8158 48.5165 22.8265 48.5165 22.8301 48.5147C22.8301 48.5147 22.8292 48.504 22.8292 48.4986L22.8158 48.4986V48.5165Z" fill="white"/>
<path d="M25.0611 38.5897C24.9425 38.5078 24.6518 38.5111 24.5533 38.603C24.4313 38.7167 24.4263 38.954 24.3728 39.1395C24.6518 39.1395 24.9325 39.1395 25.3017 39.1395C25.2098 38.9122 25.1864 38.6766 25.0595 38.5897H25.0611Z" fill="white"/>
<path d="M24.3628 39.1395L24.3735 39.1466C24.3735 39.1449 24.3735 39.1413 24.3753 39.1395H24.3628Z" fill="white"/>
<path d="M29.7857 21.5845C29.4131 21.5109 29.0974 21.5043 29.1024 21.9054C29.1041 22.0758 29.1742 22.4101 29.5067 22.3449C30.0112 22.2463 29.6688 21.8502 29.7857 21.5828V21.5845Z" fill="white"/>
<path d="M9.77066 3.11882C9.77066 3.11882 9.76173 3.11525 9.75816 3.11525C9.75816 3.12061 9.75816 3.12775 9.75816 3.1331L9.77066 3.11882Z" fill="white"/>
<path d="M9.19682 2.89465C9.3572 3.00662 9.56771 3.04673 9.75816 3.11525C9.75816 2.86623 9.75816 2.61889 9.75816 2.3448C9.59611 2.3448 9.47081 2.32307 9.35554 2.34981C9.23525 2.37822 9.03143 2.45343 9.0331 2.50524C9.03645 2.64061 9.09491 2.82445 9.19682 2.89465Z" fill="white"/>
<path d="M17.5533 5.24946C17.4681 4.99209 17.4197 4.77649 17.3194 4.58764C17.2961 4.54419 17.0822 4.55421 16.992 4.60435C16.7648 4.7297 16.6328 4.92356 16.7681 5.24779H17.5533V5.24946Z" fill="white"/>
<path d="M13.2632 3.0601C13.4085 3.06344 13.6975 2.74924 13.6791 2.61053C13.6257 2.19772 13.2665 2.37822 12.9574 2.35148C12.9992 2.66735 12.8154 3.05341 13.2632 3.0601Z" fill="white"/>
<path d="M20.6991 47.7766V48.522C20.8779 48.5087 21.0583 48.4953 21.2304 48.4819C21.3741 47.7215 21.2805 47.6012 20.6991 47.7766Z" fill="white"/>
<path d="M20.6859 48.5238C20.6859 48.5238 20.6859 48.5345 20.6841 48.5399H20.7002V48.522H20.6859V48.5238Z" fill="white"/>
<path d="M27.6506 26.1253V26.8757C28.2754 26.9392 28.354 26.8105 28.1268 26.1253H27.6506Z" fill="white"/>
<path d="M7.36415 0.780479C6.81451 0.695244 6.80616 0.701929 6.80449 1.17991C6.80449 1.2969 6.79613 1.41556 6.79112 1.53255H7.36415V0.780479Z" fill="white"/>
<path d="M6.77608 1.53256L6.7902 1.54668C6.7902 1.54116 6.79112 1.53623 6.79112 1.53255L6.77442 1.53256H6.77608Z" fill="white"/>
<path d="M22.8125 7.70958V6.82882C22.582 6.91572 22.3564 6.94079 22.2361 7.06614C22.1593 7.14636 22.1793 7.43716 22.2662 7.52406C22.3781 7.63771 22.5987 7.6444 22.8125 7.7079V7.70958Z" fill="white"/>
<path d="M14.5729 53.8902V54.6105H15.0758C15.2111 53.9119 15.1376 53.8033 14.5729 53.8902Z" fill="white"/>
<path d="M28.4425 42.3467H28.9587V41.5862H28.384C28.4041 41.8587 28.4241 42.1027 28.4425 42.3467Z" fill="white"/>
<path d="M12.1388 58.3257V57.8678H11.4088C11.3169 58.4711 11.4388 58.5463 12.1388 58.3257Z" fill="white"/>
<path d="M21.5378 16.1746C21.4977 16.2113 21.4576 16.2481 21.4158 16.2832C21.496 16.5038 21.5679 16.7278 21.6698 16.9383C21.6815 16.9634 21.9304 16.9333 21.9437 16.8899C22.0005 16.7027 22.0707 16.4804 22.0139 16.3133C21.9838 16.223 21.7048 16.218 21.5378 16.1746Z" fill="white"/>
<path d="M21.5061 46.1522C21.4927 46.3928 21.4793 46.6185 21.4643 46.8608C22.1175 46.951 22.191 46.824 21.9387 46.1522H21.5044H21.5061Z" fill="white"/>
<path d="M16.0381 58.329C16.2101 58.4026 16.4507 58.4377 16.6111 58.3675C16.7013 58.329 16.6913 58.0516 16.7381 57.826C16.4206 57.846 16.1851 57.8628 15.861 57.8828C15.9328 58.075 15.9479 58.2873 16.0381 58.3274V58.329Z" fill="white"/>
<path d="M22.0674 13.0109C22.044 12.7401 22.0239 12.4961 22.0022 12.2454H21.5077C21.496 12.5078 21.4843 12.7535 21.4726 13.0109H22.0674Z" fill="white"/>
<path d="M27.649 33.9051V34.602H28.1836C28.2871 33.8683 28.2186 33.7847 27.649 33.9051Z" fill="white"/>
<path d="M28.1385 19.9984H27.6506C27.6373 20.1372 27.6189 20.2575 27.6155 20.3795C27.6122 20.4864 27.6272 20.5934 27.6339 20.692C28.2654 20.8073 28.3439 20.697 28.1385 19.9984Z" fill="white"/>
<path d="M20.664 49.3058C20.6841 49.605 20.6991 49.8273 20.7142 50.0596H21.2404C21.2404 49.8206 21.2889 49.5799 21.217 49.3861C21.1886 49.3092 20.8896 49.3326 20.6657 49.3058H20.664Z" fill="white"/>
<path d="M28.4258 40.0102V40.7372H28.9437V40.0102H28.4258Z" fill="white"/>
<path d="M23.6762 45.2881H24.3879V44.7734H23.6762V45.2881Z" fill="white"/>
<path d="M15.6204 51.6557C15.3815 51.6557 15.1309 51.7142 15.1877 52.005C15.2646 52.4094 15.6054 52.2088 15.9211 52.254C15.8309 51.9916 16.0782 51.6523 15.6204 51.6557Z" fill="white"/>
<path d="M13.2247 58.5931C12.782 58.6082 13.0142 58.934 12.9491 59.2081C13.2682 59.1313 13.6491 59.3736 13.6942 58.909C13.7226 58.6165 13.4436 58.5864 13.2247 58.5931Z" fill="white"/>
<path d="M6.94817 3.03671C6.96654 3.07849 7.25055 3.07347 7.26893 3.03169C7.35079 2.83448 7.38253 2.61555 7.43933 2.3682H6.75939C6.82621 2.6239 6.86297 2.84117 6.94984 3.03671H6.94817Z" fill="white"/>
<path d="M1.92957 3.77206C1.97134 3.72861 2.01478 3.68515 2.05654 3.64337C2.01311 3.47457 2.00642 3.18879 1.91955 3.16037C1.75249 3.10689 1.53197 3.1821 1.3482 3.24561C1.30142 3.26232 1.27302 3.51301 1.30142 3.52805C1.5019 3.62833 1.7174 3.69518 1.92957 3.77206Z" fill="white"/>
<path d="M19.7185 51.7409C19.5681 51.664 19.3108 51.6323 19.1872 51.7142C19.0887 51.7793 19.1187 52.0434 19.0853 52.2657C19.3827 52.2473 19.6065 52.2339 19.9256 52.2155C19.8421 52.01 19.8221 51.7944 19.7185 51.7426V51.7409Z" fill="white"/>
<path d="M26.7585 10.8883C26.5346 10.8783 26.3041 10.8666 26.0752 10.8549V11.4131C26.7502 11.4933 26.8253 11.4365 26.7585 10.8883Z" fill="white"/>
<path d="M20.8077 45.4469C20.7259 45.6408 20.6941 45.8547 20.6373 46.0937H21.3373C21.2621 45.8413 21.2187 45.6291 21.1251 45.4402C21.1034 45.3968 20.8261 45.4034 20.8077 45.4469Z" fill="white"/>
<path d="M28.3389 37.7674C28.4141 38.0482 28.4208 38.2487 28.5227 38.3707C28.5745 38.4342 28.8518 38.4108 28.9253 38.3323C29.0038 38.2487 29.0239 37.9696 28.9621 37.9228C28.8335 37.8276 28.6313 37.8309 28.3406 37.7674H28.3389Z" fill="white"/>
<path d="M27.5855 36.9936C27.6824 37.2811 27.4351 37.6103 27.8879 37.6304C28.1702 37.6437 28.2571 37.5033 28.227 37.2543C28.1752 36.8114 27.8645 37.0839 27.5855 36.9936Z" fill="white"/>
<path d="M0.745105 58.6416C0.65489 58.7736 0.668258 58.9758 0.633175 59.1747H1.2914C1.24296 58.9608 1.24462 58.7586 1.14772 58.6316C1.09593 58.5647 0.793553 58.5714 0.745105 58.6416Z" fill="white"/>
<path d="M0.456089 57.7959C0.29905 57.8577 0.120285 57.8009 0 57.8394V58.4143C0.0451071 58.436 0.103582 58.4444 0.180431 58.4377C0.598089 58.3976 0.410981 58.1018 0.454417 57.7959H0.456089Z" fill="white"/>
<path d="M8.16271 3.60326C8.2262 3.55646 8.20948 3.28405 8.13263 3.19881C8.06079 3.11859 7.7985 3.08684 7.73502 3.14867C7.62643 3.25731 7.60806 3.45619 7.55125 3.61663C7.58801 3.65507 7.62477 3.69351 7.66152 3.73195C7.83193 3.69351 8.0324 3.69685 8.16271 3.60159V3.60326Z" fill="white"/>
</svg>
