<svg width="111" height="26" viewBox="0 0 111 26" fill="none" xmlns="http://www.w3.org/2000/svg">
<path d="M0 0.431213H9.24897C17.1573 0.431213 22.6293 5.6909 22.6293 12.7518C22.6293 19.8126 17.1573 25.1442 9.24897 25.1442H0V0.431213ZM7.37932 20.6259H9.25068C14.4059 20.6259 17.6179 17.378 17.6179 12.7535C17.6179 8.12899 14.4059 4.95126 9.25068 4.95126H4.94294V24.8977L7.37932 20.6259Z" fill="white"/>
<path d="M35.205 0.431274H51.3744V4.94961H40.1479V14.4109L42.5483 10.2093H50.8453V14.6574H40.1479V20.6242H51.5507V25.1426H35.205V0.431274Z" fill="white"/>
<path d="M64.5852 0.431274H69.5281V24.8977L71.9645 20.6259H80.7546V25.1443H64.5852V0.431274Z" fill="white"/>
<path d="M87.7522 0.431274H92.9776L99.4735 18.7888L105.723 0.431274H110.948L104.559 19.1775H99.5796L101.698 25.1443H96.4721L87.7522 0.431274Z" fill="white"/>
</svg>
