<svg width="340" height="122" viewBox="0 0 340 122" fill="none" xmlns="http://www.w3.org/2000/svg">
<path d="M303.079 117.941C295.826 117.941 289.524 114.552 283.935 107.966C278.347 101.38 275.256 92.4917 274.542 81.2378C273.71 69.2805 275.553 59.881 280.25 52.9752C284.946 46.1973 290.951 42.8723 298.382 42.8723C305.813 42.8723 312.65 46.0694 318.238 52.5276C323.827 59.1137 326.68 68.6411 326.918 81.2378C327.037 105.344 317.763 117.941 303.079 117.941ZM274.245 52.7194C266.1 61.032 261.998 70.4955 261.82 81.2378C261.701 92.108 265.387 101.316 273.234 109.181C281.082 116.982 290.059 121.01 300.225 121.01C310.391 121.01 319.606 117.046 327.751 109.181C335.895 101.38 339.878 92.172 339.997 81.2378C340.116 70.3676 336.311 60.8401 328.583 52.7194C320.735 44.5988 311.758 40.4425 301.592 40.4425C291.426 40.4425 282.33 44.5988 274.186 52.7194M178.351 12.3717V118.708H190.063V58.9858C196.068 51.6324 202.607 47.0286 209.92 45.0464C217.173 43.192 223.355 44.4069 228.349 48.5632C233.343 52.8473 235.9 59.4334 235.9 68.5132V118.708H247.314V65.7637C247.314 58.5382 245.293 52.5916 241.191 48.1156C237.089 43.6396 232.035 40.8901 226.209 40.1228C220.383 39.3555 214.081 40.4425 207.363 43.192C200.645 46.1334 194.819 50.5454 190.123 56.6839V0.98999L178.411 12.3717H178.351ZM159.268 47.0286C153.68 43.5117 148.27 41.3377 142.978 40.2507C137.687 39.1636 131.683 39.4834 124.727 41.018C116.166 43.4478 108.2 49.1387 104.038 54.0622C101.898 56.4921 100.055 59.1137 98.45 62.055C95.0019 67.7459 94.7641 69.2805 94.2885 70.4955C91.851 79.0637 91.3159 88.2715 95.0019 97.2234C96.8448 101.699 99.1634 105.664 101.839 109.181C107.427 116.086 116.523 120.818 126.808 120.818C137.093 120.818 146.367 118.069 154.512 112.506C159.089 109.564 162.954 105.728 164.916 103.17C165.926 101.763 166.759 100.421 167.472 99.0138C168.899 96.0724 168.899 95.6248 169.018 95.0494H168.72C165.57 101.188 161.17 105.92 155.463 109.309C149.637 112.825 144.346 114.552 139.471 114.552C126.748 114.552 115.81 107.646 110.102 97.671C107.249 92.7474 105.227 87.5681 103.979 81.8772C101.541 70.6873 103.86 58.9858 110.102 51.8243C113.55 47.3483 118.366 45.3661 124.489 45.6858C136.736 46.3252 150.053 52.7194 159.149 60.9041V47.0925L159.268 47.0286ZM0 118.708H55.5268L73.4808 80.6623C64.801 92.2998 57.4886 99.7172 47.6793 106.879C37.8105 114.104 26.1582 117.493 12.8413 116.854V66.8507H56.2402V64.5488H12.8413V14.354C20.6888 14.354 27.9417 14.9934 34.3624 16.3362C47.3226 19.0857 54.4566 22.9223 61.5907 29.2526C65.1577 32.4497 67.8924 35.2632 69.7354 37.693C71.5784 40.3146 73.5997 43.192 76.0372 46.581C78.2963 49.9699 80.0204 52.3997 81.3283 53.8065L61.7691 12.3717H0V118.708Z" fill="white"/>
</svg>
