<svg width="761" height="586" viewBox="0 0 761 586" fill="none" xmlns="http://www.w3.org/2000/svg">
<path d="M660.707 486.287C660.707 541.357 616.246 586 561.4 586C506.554 586 462.093 541.357 462.093 486.287C462.093 431.218 506.554 386.575 561.4 386.575C616.246 386.575 660.707 431.218 660.707 486.287Z" fill="#6292E8"/>
<path d="M607.199 397.858C593.463 390.65 577.839 386.575 561.268 386.575C506.422 386.575 461.961 431.218 461.961 486.287C461.961 489.676 462.129 493.025 462.458 496.327C524.075 486.762 576.621 449.621 607.199 397.858Z" fill="#78B8F1"/>
<path d="M411.677 305.16C411.677 418.705 319.52 510.75 205.838 510.75C92.157 510.75 0 418.705 0 305.16C0 191.616 92.157 99.5703 205.838 99.5703C319.52 99.5703 411.677 191.616 411.677 305.16Z" fill="#6292E8"/>
<path d="M327.645 471.055C378.641 433.636 411.742 373.309 411.742 305.261C411.742 229.086 370.263 162.587 308.633 127.066C257.637 164.485 224.537 224.812 224.537 292.86C224.537 369.035 266.016 435.534 327.645 471.055Z" fill="#78B8F1"/>
<path d="M761 143.29C761 222.427 696.769 286.58 617.537 286.58C538.304 286.58 474.074 222.427 474.074 143.29C474.074 64.1531 538.304 0 617.537 0C696.769 0 761 64.1531 761 143.29Z" fill="#6292E8"/>
<path d="M636.093 285.361C629.997 286.15 623.781 286.557 617.47 286.557C538.238 286.557 474.007 222.404 474.007 143.267C474.007 125.901 477.1 109.257 482.766 93.854C568.796 116.398 632.841 193.154 636.093 285.361Z" fill="#78B8F1"/>
</svg>
