<svg width="325" height="64" viewBox="0 0 325 64" fill="none" xmlns="http://www.w3.org/2000/svg">
<path d="M135.007 23.8763C136.568 22.9154 138.025 21.946 139.547 21.0966C144.393 18.3942 149.377 18.0553 154.473 20.4017C156.305 21.2425 157.526 22.3449 159.699 25.0946C162.311 23.5246 164.799 21.7487 167.524 20.4532C172.823 17.9395 178.113 18.1454 182.985 21.5942C186.662 24.198 188.258 28.0072 188.301 32.3913C188.383 41.0906 188.335 49.7943 188.318 58.4937C188.314 60.823 186.981 62.6847 184.899 63.444C183.019 64.126 180.725 63.4783 179.354 61.8782C178.315 60.66 178.126 59.2015 178.126 57.6787C178.13 49.8715 178.117 42.0601 178.134 34.253C178.139 31.7821 177.345 29.7317 174.996 28.6507C172.9 27.6855 170.714 27.9386 168.822 29.1225C166.528 30.5596 164.376 32.2325 162.225 33.8798C161.897 34.1328 161.777 34.8106 161.772 35.2953C161.746 43.0338 161.764 50.7724 161.746 58.5109C161.738 61.7495 159.142 64.0531 156.004 63.6584C153.762 63.3753 151.886 61.5007 151.705 59.2787C151.619 58.2149 151.632 57.1425 151.627 56.0743C151.623 48.9793 151.627 41.8842 151.627 34.7849C151.627 33.1634 151.472 31.5762 150.433 30.2293C148.812 28.1231 145.686 27.308 143.052 28.7751C140.418 30.2464 138.033 32.1682 135.585 33.957C135.313 34.1586 135.27 34.7849 135.27 35.2138C135.253 42.7722 135.248 50.3348 135.261 57.8932C135.261 59.9693 134.727 61.7753 132.834 62.9206C131.217 63.8987 129.527 64.0188 127.833 63.1222C125.987 62.1485 125.09 60.557 125.069 58.5109C125.039 55.551 125.06 52.5912 125.06 49.6313C125.06 41.2536 125.052 32.8717 125.065 24.494C125.069 21.0409 127.634 18.7202 130.842 19.2135C133.093 19.5567 134.593 21.2039 135.007 23.8763Z" fill="white"/>
<path d="M16.7339 53.8875C24.861 58.1214 34.6178 53.6559 36.6916 44.9007C37.4116 41.8551 39.8433 40.2336 42.5164 41.0186C44.6808 41.6535 46.0777 43.6567 45.8233 45.9174C45.3663 49.9754 43.4132 53.3599 40.7099 56.3069C30.7203 67.194 12.9355 66.2932 4.08412 54.4967C-1.93036 46.4793 -1.19741 34.2539 5.59313 26.6912C13.4227 17.9747 26.4606 16.7307 35.7345 21.874C37.0667 22.6118 38.2912 23.5984 39.4251 24.6236C41.2273 26.2537 41.3178 28.9304 39.7657 30.8093C39.4725 31.1653 39.1362 31.4956 38.8086 31.8216C31.7421 38.8738 24.6756 45.9217 17.6091 52.9738C17.3375 53.2441 17.0788 53.5315 16.7382 53.8875H16.7339ZM10.879 47.8692C17.2858 41.5162 23.5891 35.2662 29.9227 28.9862C25.5034 26.0606 18.2516 26.8885 14.0436 30.6591C9.21906 34.9788 7.82646 42.1382 10.879 47.8692Z" fill="white"/>
<path d="M212.93 54.0437C217.526 56.1456 222.097 56.2228 226.507 53.516C229.823 51.4785 231.922 48.51 232.798 44.6923C233.401 42.0584 235.686 40.467 238.079 40.9131C240.601 41.3806 242.222 43.6027 241.826 46.2923C241.153 50.8608 238.803 54.5842 235.458 57.647C226.261 66.0718 212.163 66.149 202.975 57.6899C197.388 52.5423 195.279 45.9834 196.262 38.4851C197.508 28.975 204.842 21.2622 214.625 19.3748C221.333 18.0793 227.697 19.0574 233.444 22.9524C234.212 23.4714 234.927 24.0848 235.583 24.7368C237.225 26.3712 237.329 28.9664 235.872 30.7767C235.583 31.137 235.246 31.4673 234.919 31.7933C227.852 38.8455 220.786 45.8976 213.706 52.9369C213.413 53.2286 212.969 53.3788 212.594 53.5933C212.706 53.7434 212.818 53.8978 212.93 54.048V54.0437ZM225.757 28.8549C221.502 26.2768 213.832 26.517 208.998 31.7461C204.187 36.9495 204.786 44.7738 206.886 47.6049C213.159 41.3721 219.441 35.1306 225.757 28.8549Z" fill="white"/>
<path d="M88.366 53.9226C93.2121 56.1231 97.834 56.1832 102.296 53.3649C105.56 51.3059 107.578 48.3289 108.449 44.5668C109.031 42.0488 111.23 40.496 113.571 40.8477C116.015 41.2124 117.693 43.2971 117.486 45.9009C117.214 49.2426 115.679 52.1123 113.692 54.7247C104.249 67.1475 84.8436 66.9287 75.6429 54.3215C69.2965 45.6221 70.6546 32.6116 78.6825 25.242C86.3957 18.1598 98.2134 16.7228 107.375 21.8275C108.707 22.5696 109.932 23.5519 111.07 24.5686C112.885 26.1857 113.006 28.8453 111.475 30.7499C111.187 31.1103 110.85 31.4406 110.523 31.7666C103.435 38.8402 96.3422 45.9095 89.2499 52.9831C88.9783 53.2534 88.7239 53.5365 88.366 53.9226ZM101.313 28.7938C97.7564 26.4732 90.2329 26.2244 85.1799 31.1317C80.0837 36.0819 80.0967 43.7604 82.4421 47.5396C88.7282 41.2939 95.0315 35.031 101.313 28.7896V28.7938Z" fill="white"/>
<path d="M259.353 24.0536C261.392 22.8739 263.264 21.5999 265.29 20.6562C270.972 18.0095 276.625 17.9752 281.954 21.5527C285.536 23.9592 287.541 27.5153 287.636 31.7492C287.843 40.6931 287.778 49.6456 287.735 58.598C287.722 61.545 285.355 63.7628 282.609 63.6941C279.751 63.6212 277.629 61.4078 277.603 58.3364C277.565 53.4891 277.595 48.6375 277.59 43.7902C277.59 40.4743 277.638 37.1584 277.539 33.8425C277.448 30.784 275.18 28.5105 272.141 28.1588C270.438 27.9614 268.791 28.2145 267.372 29.1025C264.863 30.6811 262.444 32.4055 260.03 34.1299C259.745 34.3316 259.633 34.9278 259.629 35.3439C259.607 42.795 259.62 50.2504 259.603 57.7015C259.603 58.4779 259.556 59.2844 259.362 60.0308C258.771 62.2657 256.52 63.84 254.27 63.6813C251.743 63.5011 249.799 61.6952 249.51 59.2458C249.458 58.7868 249.424 58.3235 249.424 57.8602C249.419 46.8401 249.428 35.8243 249.411 24.8043C249.411 22.5694 250.079 20.7334 252.183 19.6524C255.197 18.1081 258.801 19.9956 259.254 23.3329C259.284 23.5431 259.31 23.7533 259.344 24.0493L259.353 24.0536Z" fill="white"/>
<path d="M300.873 28.5752C299.256 28.5752 297.786 28.6095 296.324 28.5667C293.763 28.4894 291.832 26.6277 291.763 24.2255C291.694 21.8577 293.565 19.8801 296.113 19.7C297.256 19.6185 298.407 19.6656 299.558 19.6571C299.946 19.6571 300.338 19.6571 300.877 19.6571C300.877 19.0951 300.869 18.6104 300.877 18.1257C300.916 15.8136 300.778 13.48 301.05 11.1936C301.356 8.59838 303.654 6.8911 306.189 7.00692C308.72 7.12703 310.789 9.02305 310.97 11.6097C311.121 13.7374 311.048 15.8822 311.074 18.0227C311.078 18.516 311.074 19.0093 311.074 19.6571C311.544 19.6571 311.923 19.6571 312.307 19.6571C314.928 19.6571 317.55 19.6442 320.171 19.6571C322.879 19.6742 324.978 21.6131 325 24.084C325.021 26.5505 323.086 28.4766 320.365 28.5495C317.709 28.6224 315.053 28.5667 312.397 28.5667C312.009 28.5667 311.621 28.5667 311.246 28.5667C311.173 28.7511 311.104 28.8455 311.104 28.9398C311.126 35.0354 311.057 41.131 311.22 47.2266C311.328 51.2374 314.023 53.9613 318.002 54.5318C320.719 54.9222 322.456 56.5094 322.641 58.7743C322.866 61.4682 320.848 63.6387 318.054 63.7202C310.565 63.9304 304.051 59.3748 301.959 52.2283C301.317 50.032 300.998 47.6856 300.933 45.3992C300.787 40.1959 300.886 34.9882 300.886 29.7806V28.5709L300.873 28.5752Z" fill="white"/>
<path d="M63.5467 31.8417C63.5467 40.6097 63.551 49.3777 63.5467 58.15C63.5467 61.1056 61.9342 63.1475 59.2869 63.6236C56.6613 64.0955 54.0011 62.3024 53.5053 59.7029C53.4061 59.1796 53.363 58.6391 53.363 58.1114C53.3544 40.6097 53.3544 23.108 53.363 5.60625C53.363 2.59063 54.9841 0.527312 57.6745 0.0683208C60.3001 -0.382091 62.9431 1.4453 63.413 4.0534C63.5208 4.64537 63.551 5.25878 63.551 5.85933C63.5596 14.5201 63.5553 23.1852 63.5553 31.846L63.5467 31.8417Z" fill="white"/>
</svg>
