<svg width="340" height="262" viewBox="0 0 340 262" fill="none" xmlns="http://www.w3.org/2000/svg">
<path d="M295.405 217.389C295.405 242.015 275.442 261.978 250.816 261.978C226.19 261.978 206.227 242.015 206.227 217.389C206.227 192.763 226.19 172.8 250.816 172.8C275.442 172.8 295.405 192.763 295.405 217.389Z" fill="#6292E8"/>
<path d="M271.38 177.845C265.212 174.622 258.197 172.8 250.756 172.8C226.131 172.8 206.168 192.763 206.168 217.389C206.168 218.904 206.243 220.402 206.391 221.878C234.057 217.601 257.65 200.993 271.38 177.845Z" fill="#78B8F1"/>
<path d="M183.929 136.527C183.929 187.317 142.755 228.491 91.9646 228.491C41.1739 228.491 0 187.317 0 136.527C0 85.7361 41.1739 44.5621 91.9646 44.5621C142.755 44.5621 183.929 85.7361 183.929 136.527Z" fill="#6292E8"/>
<path d="M146.385 210.735C169.17 193.996 183.958 167.011 183.958 136.572C183.958 102.497 165.426 72.7507 137.891 56.8616C115.107 73.6 100.319 100.585 100.319 131.025C100.319 165.099 118.851 194.846 146.385 210.735Z" fill="#78B8F1"/>
<path d="M340 64.1189C340 99.5184 311.303 128.215 275.903 128.215C240.504 128.215 211.807 99.5184 211.807 64.1189C211.807 28.7193 240.504 0.0223389 275.903 0.0223389C311.303 0.0223389 340 28.7193 340 64.1189Z" fill="#6292E8"/>
<path d="M284.194 127.67C281.47 128.023 278.693 128.205 275.874 128.205C240.474 128.205 211.777 99.508 211.777 64.1084C211.777 56.3405 213.159 48.8952 215.69 42.0051C254.127 52.0893 282.741 86.424 284.194 127.67Z" fill="#78B8F1"/>
<g clip-path="url(#clip0_324_347)">
<g clip-path="url(#clip1_324_347)">
<path d="M146.235 119.119C147.339 118.454 148.37 117.783 149.447 117.196C152.874 115.325 156.4 115.091 160.005 116.715C161.301 117.296 162.164 118.059 163.701 119.962C165.549 118.876 167.309 117.647 169.236 116.75C172.985 115.011 176.727 115.153 180.173 117.54C182.774 119.342 183.903 121.978 183.933 125.012C183.991 131.032 183.958 137.055 183.945 143.075C183.942 144.687 183 145.975 181.527 146.501C180.197 146.973 178.575 146.524 177.605 145.417C176.87 144.574 176.736 143.565 176.736 142.511C176.739 137.108 176.73 131.703 176.742 126.3C176.745 124.59 176.184 123.171 174.522 122.423C173.04 121.755 171.493 121.93 170.154 122.75C168.532 123.744 167.01 124.902 165.488 126.042C165.257 126.217 165.171 126.686 165.168 127.021C165.15 132.377 165.162 137.732 165.15 143.087C165.144 145.328 163.308 146.922 161.087 146.649C159.502 146.453 158.175 145.156 158.047 143.618C157.986 142.882 157.995 142.14 157.992 141.401C157.989 136.491 157.992 131.581 157.992 126.668C157.992 125.546 157.882 124.448 157.147 123.516C156 122.058 153.789 121.494 151.926 122.509C150.063 123.527 148.376 124.857 146.644 126.095C146.452 126.235 146.421 126.668 146.421 126.965C146.409 132.195 146.406 137.429 146.415 142.659C146.415 144.096 146.037 145.346 144.698 146.139C143.554 146.815 142.359 146.898 141.16 146.278C139.855 145.604 139.221 144.503 139.205 143.087C139.184 141.039 139.199 138.99 139.199 136.942C139.199 131.145 139.193 125.344 139.202 119.547C139.205 117.157 141.02 115.551 143.289 115.892C144.881 116.13 145.942 117.27 146.235 119.119Z" fill="white"/>
<path d="M62.5731 139.887C68.3219 142.817 75.2236 139.727 76.6905 133.668C77.1998 131.561 78.9199 130.439 80.8107 130.982C82.3417 131.421 83.3298 132.808 83.1499 134.372C82.8266 137.18 81.4451 139.522 79.5329 141.562C72.4666 149.096 59.8863 148.472 53.6251 140.309C49.3707 134.761 49.8891 126.301 54.6925 121.067C60.2309 115.035 69.4534 114.174 76.0134 117.733C76.9558 118.244 77.822 118.927 78.624 119.636C79.8988 120.764 79.9629 122.617 78.865 123.917C78.6576 124.163 78.4197 124.392 78.1879 124.617C73.1894 129.498 68.1908 134.375 63.1922 139.255C63.0001 139.442 62.8171 139.641 62.5762 139.887H62.5731ZM58.4315 135.723C62.9635 131.326 67.4222 127.001 71.9024 122.655C68.7763 120.631 63.6466 121.204 60.6701 123.813C57.2574 126.802 56.2723 131.757 58.4315 135.723Z" fill="white"/>
<path d="M201.355 139.996C204.607 141.45 207.839 141.504 210.959 139.63C213.304 138.22 214.79 136.166 215.409 133.524C215.836 131.702 217.452 130.6 219.145 130.909C220.929 131.232 222.076 132.77 221.795 134.631C221.319 137.793 219.657 140.37 217.291 142.489C210.785 148.319 200.813 148.373 194.314 142.519C190.361 138.957 188.87 134.418 189.565 129.229C190.446 122.648 195.634 117.31 202.554 116.004C207.299 115.108 211.801 115.784 215.866 118.48C216.409 118.839 216.915 119.263 217.379 119.715C218.541 120.846 218.614 122.642 217.583 123.894C217.379 124.144 217.141 124.372 216.909 124.598C211.911 129.478 206.912 134.358 201.904 139.23C201.697 139.432 201.383 139.535 201.118 139.684C201.197 139.788 201.276 139.895 201.355 139.999V139.996ZM210.429 122.564C207.418 120.78 201.993 120.947 198.574 124.565C195.171 128.166 195.594 133.581 197.08 135.54C201.517 131.227 205.961 126.907 210.429 122.564Z" fill="white"/>
<path d="M113.243 139.912C116.671 141.435 119.94 141.476 123.097 139.526C125.406 138.101 126.833 136.041 127.449 133.437C127.861 131.695 129.416 130.62 131.072 130.864C132.801 131.116 133.988 132.559 133.841 134.361C133.649 136.673 132.563 138.659 131.157 140.467C124.478 149.064 110.751 148.912 104.243 140.188C99.7539 134.168 100.715 125.164 106.393 120.064C111.849 115.163 120.209 114.169 126.689 117.701C127.632 118.215 128.498 118.895 129.303 119.598C130.587 120.717 130.672 122.558 129.59 123.876C129.385 124.125 129.148 124.354 128.916 124.579C123.902 129.474 118.885 134.367 113.868 139.262C113.676 139.449 113.496 139.645 113.243 139.912ZM122.402 122.522C119.885 120.916 114.564 120.744 110.989 124.14C107.384 127.566 107.394 132.879 109.053 135.495C113.499 131.172 117.958 126.838 122.402 122.519V122.522Z" fill="white"/>
<path d="M234.193 119.242C235.636 118.425 236.959 117.544 238.393 116.891C242.412 115.059 246.411 115.035 250.18 117.511C252.714 119.177 254.133 121.637 254.2 124.567C254.346 130.757 254.3 136.952 254.27 143.147C254.261 145.187 252.586 146.721 250.644 146.674C248.622 146.623 247.121 145.092 247.103 142.966C247.075 139.612 247.097 136.254 247.094 132.9C247.094 130.605 247.127 128.311 247.057 126.016C246.993 123.899 245.389 122.326 243.239 122.083C242.034 121.946 240.869 122.121 239.866 122.736C238.091 123.828 236.38 125.022 234.672 126.215C234.471 126.354 234.391 126.767 234.388 127.055C234.373 132.211 234.382 137.371 234.37 142.527C234.37 143.064 234.337 143.622 234.199 144.139C233.781 145.685 232.189 146.775 230.597 146.665C228.81 146.54 227.435 145.291 227.231 143.595C227.194 143.278 227.17 142.957 227.17 142.637C227.167 135.011 227.173 127.387 227.16 119.761C227.16 118.215 227.633 116.944 229.121 116.196C231.253 115.127 233.803 116.434 234.123 118.743C234.144 118.889 234.163 119.034 234.187 119.239L234.193 119.242Z" fill="white"/>
<path d="M263.563 122.371C262.419 122.371 261.379 122.395 260.345 122.365C258.534 122.312 257.168 121.023 257.119 119.361C257.07 117.722 258.394 116.354 260.196 116.229C261.004 116.173 261.818 116.205 262.633 116.199C262.907 116.199 263.185 116.199 263.566 116.199C263.566 115.81 263.56 115.475 263.566 115.14C263.593 113.54 263.496 111.925 263.688 110.342C263.904 108.547 265.53 107.365 267.323 107.445C269.113 107.528 270.577 108.84 270.705 110.63C270.812 112.103 270.76 113.587 270.779 115.068C270.782 115.41 270.779 115.751 270.779 116.199C271.111 116.199 271.379 116.199 271.651 116.199C273.505 116.199 275.359 116.19 277.214 116.199C279.129 116.211 280.614 117.553 280.629 119.263C280.645 120.97 279.275 122.303 277.351 122.353C275.472 122.404 273.594 122.365 271.715 122.365C271.44 122.365 271.166 122.365 270.901 122.365C270.849 122.493 270.8 122.558 270.8 122.623C270.815 126.841 270.766 131.06 270.882 135.278C270.959 138.054 272.865 139.939 275.68 140.333C277.601 140.604 278.83 141.702 278.961 143.269C279.12 145.133 277.692 146.636 275.716 146.692C270.419 146.837 265.811 143.685 264.331 138.739C263.877 137.219 263.651 135.596 263.606 134.013C263.502 130.413 263.572 126.809 263.572 123.205V122.368L263.563 122.371Z" fill="white"/>
<path d="M95.6868 124.631C95.6868 130.699 95.6898 136.767 95.6868 142.837C95.6868 144.883 94.5462 146.296 92.6736 146.625C90.8163 146.952 88.9346 145.711 88.5839 143.912C88.5137 143.55 88.4832 143.176 88.4832 142.811C88.4771 130.699 88.4771 118.587 88.4832 106.476C88.4832 104.389 89.6299 102.961 91.533 102.644C93.3903 102.332 95.2598 103.596 95.5922 105.401C95.6685 105.811 95.6898 106.235 95.6898 106.651C95.6959 112.644 95.6929 118.641 95.6929 124.634L95.6868 124.631Z" fill="white"/>
</g>
</g>
<defs>
<clipPath id="clip0_324_347">
<rect width="238.93" height="46.0587" fill="white" transform="translate(50.7441 100.807)"/>
</clipPath>
<clipPath id="clip1_324_347">
<rect width="229.879" height="44.2872" fill="white" transform="translate(50.7401 102.594)"/>
</clipPath>
</defs>
</svg>
