<svg width="385" height="72" viewBox="0 0 385 72" fill="none" xmlns="http://www.w3.org/2000/svg">
<path d="M362.187 21.6527C366.541 21.6527 368.595 24.9047 368.595 28.0744C368.595 35.1959 364.364 38.242 354.876 38.242H349.865C350.769 29.4328 354.999 21.6527 362.187 21.6527ZM384.778 46.2692C383.381 54.6668 377.097 59.5242 369.088 59.5242C358.326 59.5242 349.783 52.3204 349.783 41.3294C349.783 40.6296 349.783 39.9298 349.865 39.2712H380.712C380.712 26.0161 370.443 20.2942 360.791 20.2942C346.703 20.2942 335.243 30.8735 335.243 45.981C335.243 61.0885 346.497 71.2562 360.955 71.2562C375.413 71.2562 384.696 59.483 384.901 46.2692H384.696H384.778ZM331.259 56.725C331.546 48.2451 326.043 43.47 314.994 38.6537C304.232 33.9197 300.618 30.5442 300.618 26.5101C300.618 23.2581 303.657 21.1587 308.504 21.982C315.692 23.1757 323.989 29.8856 327.521 39.8475H327.727L326.946 23.5462C323.578 21.982 317.663 20.5824 311.256 20.2942C299.714 19.8002 290.144 24.246 290.267 34.7019C290.35 43.7993 297.168 47.9569 309.284 53.8846C315.61 56.9308 320.703 59.6065 321.114 63.476C321.607 67.9218 318.074 70.1035 312.529 69.6919C304.848 69.1979 296.182 60.5945 289.857 50.1386H289.651L290.719 68.4158C294.744 69.8154 302.754 71.2973 311.995 71.2973C321.237 71.2973 330.807 66.8515 331.218 56.7662M247.099 29.6798C248.66 30.7501 251.822 34.6195 251.617 44.4991L251.042 70.474H271.045C268.786 68.5804 266.404 63.0644 266.404 53.1848V45.5694C266.404 35.1135 277.329 33.5081 283.86 34.9077L286.899 20.2942C274.495 21.488 268.58 28.2802 266.404 39.7651V20.2942L247.099 29.2681V29.6798ZM221.921 21.6938C226.275 21.6938 228.328 24.9458 228.328 28.1155C228.328 35.237 224.098 38.2832 214.61 38.2832H209.599C210.502 29.4739 214.733 21.6938 221.921 21.6938ZM244.511 46.3103C243.115 54.7079 236.831 59.5654 228.821 59.5654C218.06 59.5654 209.517 52.3615 209.517 41.3706C209.517 40.6708 209.517 39.971 209.599 39.3123H240.445C240.445 26.0573 230.177 20.3354 220.524 20.3354C206.436 20.3354 194.977 30.9147 194.977 46.0222C194.977 61.1296 206.231 71.2973 220.689 71.2973C235.147 71.2973 244.429 59.5242 244.635 46.3103H244.429H244.511ZM143.799 21.5292C145.195 22.3113 147.742 25.7691 151.767 35.5663L166.143 70.5564H176.083V58.7832L185.447 39.9298C191.28 28.1567 194.401 24.1225 196.496 21.5703V21.1587H181.997V21.5703C183.394 23.2581 184.955 26.9217 184.955 32.232C184.955 35.978 184.174 39.6416 182.203 43.6758L176.083 56.0252L166.225 31.738C164.952 28.486 164.541 26.3043 164.541 24.6165C164.541 22.7229 165.034 21.735 165.321 21.5703V21.1587H143.717V21.5703L143.799 21.5292ZM119.031 30.2149C120.592 31.2852 123.755 35.1547 123.549 45.0342L122.974 70.5152H142.977C140.718 68.6216 138.336 63.1055 138.336 53.226V20.3354L119.031 29.8033V30.2149ZM121.578 8.97391C121.578 13.9137 125.521 17.7832 130.532 17.7832C135.543 17.7832 139.322 13.9137 139.322 8.97391C139.322 4.03414 135.666 0 130.532 0C125.398 0 121.578 4.15764 121.578 8.97391ZM78.1631 24.493C86.7475 24.493 92.1692 29.4328 91.8817 41.4941L91.3066 70.5564H111.31C109.05 68.6628 106.668 63.1467 106.668 53.2672V24.6165H116.813V23.7109C100.959 23.7109 91.9638 15.3133 91.9638 6.4217C91.9638 4.03414 92.5389 2.46988 94.5104 2.46988C98.6588 2.46988 101.904 9.96187 116.772 19.9649V6.05122C115.704 6.13355 108.886 5.47491 103.259 3.58133C97.3445 1.60542 93.196 0.535142 88.6779 0.535142C84.1598 0.535142 78.122 2.30523 78.122 8.23295C78.122 15.9308 93.8943 21.7761 99.1106 23.6286H78.122V24.4107L78.1631 24.493ZM53.56 11.238C55.1208 12.3083 58.2013 16.1777 58.0781 26.0573L57.503 70.5152H77.5059C75.2469 68.6216 72.8646 63.1055 72.8646 53.226V1.31727L53.56 10.7852V11.1968V11.238ZM49.9866 70.5152L50.3973 52.4439C45.0577 59.9359 31.0927 67.963 20.4135 69.1568V21.6527C21.6047 21.6527 23.8637 21.9408 25.3424 22.5583C30.4766 24.5342 34.625 29.3916 42.5112 37.8716H42.5933V22.9699H34.2143C22.9601 22.9699 20.0028 17.4538 20.0028 11.8143C20.0028 6.17471 23.453 2.51105 28.6693 2.51105C37.5412 2.51105 43.4559 10.003 47.1936 17.742H47.3989L46.7007 1.35844H-6.10352e-05C2.5465 4.73394 4.51804 11.4438 4.51804 21.8173V50.0563C4.51804 60.4298 2.5465 67.1397 -6.10352e-05 70.5152H49.9866Z" fill="white"/>
</svg>
