<svg width="400" height="176" viewBox="0 0 400 176" fill="none" xmlns="http://www.w3.org/2000/svg">
<path fill-rule="evenodd" clip-rule="evenodd" d="M57.5051 132.983L57.4976 132.997V132.975L57.5051 132.983ZM57.905 133.383L57.5051 132.983C57.7321 132.556 57.9487 132.122 58.1653 131.688C58.6248 130.767 59.0843 129.846 59.6436 128.993C61.2797 126.492 62.9084 123.985 64.5371 121.479L64.5374 121.478L64.5378 121.478C69.3018 114.146 74.0662 106.814 79.0177 99.6112C84.2814 91.9529 89.6912 84.3963 95.1006 76.8403L95.1007 76.8402L95.1014 76.8392L95.1023 76.838C97.498 73.4916 99.8936 70.1453 102.276 66.7903C102.397 66.6195 102.497 66.4321 102.634 66.1759L102.634 66.1758L102.634 66.1757C102.719 66.0165 102.818 65.8308 102.945 65.6059C102.567 65.6722 102.208 65.7345 101.862 65.7943L101.862 65.7943L101.861 65.7944C100.877 65.9651 100.005 66.1161 99.1362 66.2851C96.2383 66.8447 93.3416 67.4104 90.445 67.9761L90.4418 67.9767L90.4413 67.9768C84.65 69.1078 78.8587 70.2388 73.0577 71.3215C68.6965 72.1352 64.3148 72.8567 59.9342 73.5781L59.9341 73.5781L59.934 73.5782C58.7866 73.7671 57.6393 73.9561 56.4925 74.1466C55.5091 74.3096 54.7865 74.6845 54.1454 75.5212C52.0697 78.2158 49.9967 80.9125 47.9237 83.6093L47.9219 83.6115L47.9147 83.621C40.1096 93.7744 32.3041 103.928 24.3562 113.971C19.3332 120.321 14.1205 126.523 8.90867 132.723L8.90316 132.73C7.2281 134.722 5.55314 136.715 3.8846 138.713C3.20657 139.522 2.4123 140.235 1.61934 140.948L1.61929 140.948L1.61899 140.948L1.61884 140.948C1.26192 141.269 0.905264 141.589 0.5596 141.918C0.374878 141.798 0.184722 141.679 0 141.565C0.073511 141.344 0.135187 141.117 0.196878 140.889C0.331242 140.394 0.465672 139.898 0.722591 139.473C1.34927 138.434 1.96737 137.389 2.5857 136.343L2.58593 136.342L2.58663 136.341L2.58674 136.341C4.38034 133.306 6.17582 130.269 8.18755 127.385C16.4089 115.591 24.6914 103.842 32.9733 92.0937L32.9753 92.0909C36.2683 87.4197 39.5612 82.7485 42.8502 78.0747C43.0521 77.7866 43.2521 77.4945 43.4759 77.1676C43.6193 76.9581 43.7725 76.7344 43.9422 76.4883C43.8166 76.4711 43.7103 76.4514 43.6173 76.434L43.6172 76.434C43.4448 76.4019 43.3179 76.3783 43.1979 76.3959C41.5798 76.617 39.9631 76.8468 38.3464 77.0765L38.3452 77.0767L38.344 77.0769C35.3526 77.502 32.3609 77.9272 29.36 78.2975C22.1395 79.1939 14.9082 80.0632 7.60622 79.835C6.97911 79.8162 6.3546 79.6703 5.73089 79.5245C5.4522 79.4594 5.17367 79.3943 4.89514 79.3406C4.87611 79.2536 4.85709 79.1653 4.83806 79.0769C4.81905 78.9887 4.80005 78.9005 4.78105 78.8136C5.01688 78.6906 5.24841 78.5503 5.47987 78.4101C5.98426 78.1046 6.48831 77.7993 7.03575 77.6727C8.08293 77.433 9.12961 77.1916 10.1762 76.9502L10.1787 76.9496L10.1813 76.949L10.182 76.9489C15.1608 75.8005 20.1374 74.6526 25.1548 73.7011C29.6731 72.8472 34.2091 72.0977 38.745 71.3482L38.7454 71.3482C41.7417 70.8531 44.7379 70.358 47.729 69.8328C48.3484 69.7242 49.0438 69.2406 49.435 68.7299C52.6594 64.5285 55.867 60.314 59.0747 56.0995L59.0758 56.0979C64.4291 49.0644 69.7825 42.0305 75.2146 35.0561L75.6481 34.5C80.1922 28.6692 84.7485 22.8227 90.1826 17.752C91.5354 16.4915 92.9045 15.2365 94.3497 14.0847C94.6733 13.825 95.1247 13.7244 95.5757 13.6238C95.7757 13.5792 95.9756 13.5346 96.1643 13.4762C96.1626 13.6857 96.1806 13.9038 96.1987 14.1219C96.2382 14.5994 96.2778 15.0768 96.11 15.4647C93.8498 20.7564 90.9649 25.7005 87.5801 30.3457C81.0432 39.3147 74.5004 48.2807 67.9582 57.246L67.9544 57.2512L67.9437 57.2659C65.5462 60.5512 63.1489 63.8365 60.7519 67.1217C60.6652 67.2425 60.5821 67.3668 60.4582 67.5519L60.4581 67.552C60.3646 67.6917 60.248 67.8661 60.0891 68.0997C60.7382 68.015 61.3575 67.9372 61.9562 67.862C63.2015 67.7056 64.3574 67.5604 65.5058 67.388C74.1334 66.1058 82.7556 64.8182 91.3832 63.5197L92.2381 63.3911L92.2382 63.3911L92.2382 63.3911C96.6467 62.728 101.05 62.0657 105.449 61.341C105.949 61.2595 106.487 60.8032 106.808 60.374C108.151 58.5744 109.475 56.7602 110.8 54.9459L110.8 54.9459C112.99 51.9454 115.181 48.9445 117.456 46.0091C125.589 35.5179 133.728 25.0268 142.068 14.6932C144.512 11.6654 147.231 8.85508 149.949 6.04625L149.949 6.04613L149.949 6.04592C150.976 4.98403 152.003 3.92236 153.015 2.84924C153.662 2.16468 154.433 1.57792 155.227 1.07265C155.478 0.911215 155.823 0.895057 156.166 0.878974C156.32 0.871782 156.473 0.864605 156.617 0.844459C156.628 0.989689 156.652 1.14017 156.677 1.29067L156.677 1.29082V1.29095C156.732 1.62457 156.787 1.95831 156.683 2.23531C156.275 3.33278 155.835 4.44111 155.221 5.42449C154.225 7.01641 153.243 8.61839 152.26 10.2205L152.26 10.2209L152.259 10.2214L152.259 10.222C149.56 14.6231 146.86 19.0252 143.877 23.223C137.983 31.5066 131.941 39.6867 125.899 47.8674L125.898 47.8689C123.409 51.2397 120.919 54.6106 118.44 57.9889C118.225 58.2831 118.02 58.5826 117.766 58.9546C117.654 59.1184 117.533 59.2962 117.397 59.4938C120.916 58.9685 124.355 58.4534 127.757 57.9441L127.769 57.9423L127.807 57.9367L127.833 57.9327C130.949 57.4661 134.034 57.0043 137.118 56.5437C137.151 56.636 137.182 56.727 137.213 56.818C137.245 56.909 137.276 57.0001 137.308 57.0924C137.166 57.1729 137.027 57.2654 136.887 57.3579L136.887 57.358C136.584 57.5589 136.28 57.7604 135.945 57.8422C133.348 58.484 130.749 59.1168 128.151 59.7495L128.15 59.7497C124.084 60.7397 120.019 61.7295 115.962 62.7536C115.164 62.9546 114.273 63.4599 113.784 64.0956C109.846 69.1821 105.929 74.2842 102.013 79.3859L102.013 79.387C96.1119 87.0744 90.2117 94.7611 84.2388 102.393C78.9663 109.131 73.5326 115.743 68.101 122.352L68.1007 122.353L68.1004 122.353C66.7656 123.977 65.4308 125.601 64.0987 127.227C62.8545 128.747 61.4875 130.168 60.1221 131.587L60.1218 131.587C59.7641 131.959 59.4066 132.33 59.0514 132.704C58.8515 132.915 58.5708 133.05 58.2902 133.185C58.159 133.249 58.0279 133.312 57.905 133.383ZM269.404 100.777L270.43 100.097L270.438 100.092L270.442 100.09C271.649 99.2897 272.855 98.4905 274.068 97.6946C280.925 93.1852 287.232 88.0021 292.948 82.1181C293.026 82.0375 293.105 81.9568 293.185 81.8758L293.192 81.8678C293.843 81.2041 294.51 80.5231 294.92 79.7222C295.474 78.641 295.827 77.4186 296.056 76.2179C296.201 75.4697 296.282 74.7044 296.364 73.9409V73.9406L296.364 73.9401C296.493 72.7302 296.621 71.5249 297.001 70.3991C297.376 69.2962 298.544 68.2911 299.598 67.6337C300.674 66.96 302.065 66.9329 303.146 67.9217C304.45 69.1169 304.949 70.6708 304.542 72.3496C304.249 73.5557 303.727 74.7618 303.07 75.8213C301.673 78.0597 301.88 80.184 302.901 82.5039C303.705 84.3294 304.433 86.2852 304.645 88.2466C304.786 89.5559 304.232 91.1261 303.521 92.2996C302.458 94.0438 301.242 95.6953 300.027 97.3468C299.527 98.0256 299.027 98.7044 298.538 99.3897C298.256 99.7863 297.99 100.194 297.908 100.846L298.003 100.787C298.088 100.734 298.172 100.682 298.257 100.63C298.563 100.442 298.87 100.253 299.169 100.052C300.211 99.36 301.254 98.6679 302.298 97.9758L302.301 97.9738L302.302 97.9732C306.372 95.2725 310.444 92.5709 314.495 89.8384C315.15 89.3959 315.714 88.8047 316.272 88.2209C316.372 88.1166 316.471 88.0126 316.571 87.9097C318.232 86.1981 319.89 84.4838 321.548 82.7696L321.627 82.6878L321.634 82.6813L321.644 82.671L321.648 82.6666C324.635 79.578 327.622 76.4901 330.626 73.4199C331.278 72.7516 332.076 72.1757 332.902 71.7411C333.203 71.5833 333.604 71.6229 334.005 71.6624C334.184 71.68 334.363 71.6976 334.532 71.6976C334.509 71.8586 334.503 72.0298 334.497 72.2007C334.483 72.5605 334.47 72.9193 334.304 73.1808C330.713 78.7551 327.089 84.3185 323.438 89.8547C321.985 92.0532 320.498 94.2305 319.011 96.407C318.363 97.3556 317.715 98.3039 317.07 99.2538C317.085 99.2729 317.1 99.2918 317.115 99.3106C317.136 99.337 317.158 99.3633 317.179 99.3895C317.216 99.4343 317.252 99.4792 317.288 99.5255C317.385 99.4743 317.484 99.4252 317.583 99.3761L317.583 99.376C317.799 99.2688 318.016 99.1614 318.217 99.0311C319.292 98.3328 320.368 97.6348 321.444 96.9369C326.008 93.9752 330.573 91.0137 335.119 88.0238C335.651 87.6707 336.108 87.1165 336.45 86.5623C337.476 84.8721 338.491 83.1758 339.506 81.4796C341.016 78.9558 342.526 76.4325 344.073 73.9306C344.469 73.2948 345.013 72.7514 345.64 72.1249L345.64 72.1245C345.951 71.8141 346.282 71.4833 346.626 71.1108C347.169 73.0722 346.708 74.5445 346.219 75.8593C344.392 80.7787 342.435 85.6501 340.48 90.5187L340.479 90.5212L340.101 91.4629C339.796 92.226 339.48 92.9849 339.163 93.7447L339.162 93.7466L339.161 93.7491C338.532 95.2595 337.901 96.7732 337.352 98.3302C349.625 86.633 361.936 75.0606 375.34 64.7488C375.421 64.8194 375.504 64.8887 375.587 64.9579C375.67 65.0272 375.752 65.0965 375.834 65.1671C375.755 65.3099 375.682 65.4578 375.61 65.6057C375.447 65.9365 375.284 66.2676 375.052 66.5417C373.872 67.9399 372.695 69.3399 371.517 70.7399L371.516 70.7417L371.515 70.7428C367.72 75.2551 363.926 79.7668 360.062 84.2153C351.907 93.6035 343.067 102.345 334.103 110.957C332.603 112.396 331.338 112.63 329.572 111.771C328.056 111.038 327.078 109.517 327.366 107.778C327.654 106.061 328.067 104.312 328.751 102.715C329.876 100.088 331.092 97.5001 332.309 94.9117L332.31 94.9103L332.313 94.9043C332.841 93.7802 333.37 92.6559 333.891 91.5281C333.956 91.3854 334.015 91.2388 334.096 91.0375L334.098 91.0316L334.099 91.0302L334.152 90.8991L334.189 90.8061C334.222 90.7256 334.258 90.6372 334.299 90.5393C334.148 90.6158 334.021 90.6738 333.912 90.7235C333.72 90.8114 333.586 90.8728 333.478 90.9631L330.81 93.2131C324.967 98.1408 319.122 103.07 313.289 108.012C312.624 108.575 311.974 109.157 311.324 109.74C310.764 110.241 310.203 110.743 309.633 111.234C309.258 111.554 308.829 111.826 308.394 112.054C306.563 113.021 304.966 112.999 303.852 111.94C302.526 110.685 302.782 109.158 303.292 107.659C304.569 103.899 306.693 100.601 308.981 97.3957C309.296 96.9557 309.578 96.4993 309.747 95.8799C309.696 95.9125 309.645 95.9447 309.594 95.9767C309.539 96.0104 309.485 96.0439 309.431 96.0774C309.184 96.2299 308.937 96.3825 308.709 96.5536C302.668 101.09 296.892 105.936 291.622 111.369C290.704 112.315 289.552 113.151 288.352 113.689C286.325 114.591 284.114 113.2 284.114 111.005C284.114 109.663 284.32 108.121 284.994 107.012C287.162 103.437 289.434 99.924 291.705 96.4122L291.705 96.4119L291.708 96.4082L291.711 96.4031L291.714 96.3979C292.65 94.9516 293.585 93.5054 294.513 92.0551C294.967 91.3463 295.405 90.6276 295.843 89.909L295.844 89.9079L295.845 89.9064C296.323 89.1222 296.801 88.3382 297.3 87.5674C298.174 86.2038 297.848 84.9324 297.142 83.4818C296.582 83.9499 296.038 84.4152 295.501 84.8742C294.386 85.8269 293.302 86.7528 292.176 87.6218C290.363 89.0221 288.533 90.4024 286.703 91.7827C283.486 94.21 280.269 96.6371 277.138 99.1723C274.375 101.409 271.714 103.77 269.053 106.132L269.051 106.134L269.05 106.135C267.588 107.432 266.126 108.729 264.647 110.006C264.52 110.116 264.393 110.227 264.265 110.339L264.26 110.344C263.428 111.074 262.571 111.826 261.589 112.212C260.535 112.624 259.182 112.744 258.09 112.467C256.846 112.146 256.014 110.929 256.411 109.593C257.123 107.197 257.878 104.768 258.997 102.546C259.671 101.206 260.453 99.9228 261.242 98.6286C261.985 97.4089 262.734 96.1799 263.403 94.8857C263.294 94.972 263.184 95.0583 263.073 95.1448L263.071 95.1463C262.821 95.3424 262.57 95.5392 262.322 95.7387L258.883 98.5096C253.629 102.743 248.374 106.978 243.111 111.201C242.519 111.679 241.84 112.065 241.16 112.418C238.27 113.912 235.526 112.222 235.63 108.973C235.657 108.088 235.825 107.148 236.178 106.344C237.087 104.271 238.06 102.224 239.033 100.178C239.317 99.5801 239.601 98.9826 239.884 98.3846C240.015 98.1035 240.161 97.8271 240.357 97.4547C240.461 97.2584 240.578 97.0354 240.715 96.7709C240.5 96.8929 240.327 96.9865 240.184 97.0644C239.924 97.2053 239.759 97.2947 239.612 97.4066C233.989 101.672 228.632 106.235 223.715 111.31C222.797 112.26 221.661 113.119 220.461 113.657C218.249 114.651 216.196 113.135 216.044 110.717C215.913 108.68 216.799 107.034 217.826 105.437C219.583 102.704 221.35 99.9767 223.117 97.2494C224.884 94.5219 226.652 91.7944 228.409 89.0615C228.502 88.9178 228.598 88.7746 228.693 88.631C229.446 87.5042 230.211 86.3581 229.681 84.8401C229.583 84.5611 229.477 84.2847 229.35 83.9547L229.27 83.7441C229.238 83.6606 229.204 83.5734 229.17 83.4818C228.635 83.9283 228.119 84.3638 227.614 84.7898L227.614 84.7901C226.534 85.7014 225.505 86.5695 224.454 87.4099C222.489 88.9844 220.531 90.5691 218.574 92.1539L218.572 92.1549L218.572 92.1552L218.572 92.1555C213.37 96.3665 208.168 100.578 202.82 104.6C198.43 107.898 193.714 110.848 188.362 112.445C185.744 113.228 183.071 113.63 180.49 112.07C178.398 110.804 177.377 108.952 177.779 106.616C178.105 104.722 178.617 102.861 179.128 101.002L179.128 101.001C179.333 100.258 179.537 99.515 179.729 98.7703C179.752 98.6844 179.778 98.5995 179.804 98.5137L179.804 98.513C179.904 98.1867 180.007 97.8484 179.947 97.4012C179.388 97.7802 178.831 98.1618 178.274 98.5434L178.274 98.5437L178.273 98.5444L178.273 98.5446C177.026 99.3989 175.779 100.253 174.514 101.079C173.919 101.466 173.326 101.856 172.733 102.245C168.076 105.303 163.411 108.367 158.095 110.174C155.058 111.206 151.872 111.837 148.708 112.463L148.251 112.554C147.642 112.673 146.599 112.07 146.213 111.494C145.67 110.696 146.338 109.979 147.12 109.549C147.845 109.151 148.575 108.764 149.306 108.376L149.307 108.376C150.769 107.601 152.231 106.826 153.64 105.964C157.542 103.571 160.791 100.389 164.037 97.2087C164.344 96.9086 164.65 96.6085 164.957 96.3091C170.097 91.289 174.535 85.7419 177.991 79.4288C178.598 78.3205 179.171 77.1951 179.744 76.0689L179.744 76.0685C180.022 75.522 180.3 74.9753 180.582 74.4304C180.561 74.4005 180.539 74.3707 180.517 74.3407C180.503 74.3209 180.488 74.301 180.473 74.2811L180.473 74.2803C180.448 74.2463 180.423 74.2122 180.398 74.1779C180.359 74.125 180.321 74.0717 180.284 74.0175C179.775 74.2253 179.257 74.4168 178.739 74.6084L178.739 74.6085C177.591 75.0329 176.442 75.4576 175.394 76.0603C169.787 79.2712 164.984 83.5253 160.334 87.964C149.158 98.629 139.971 110.88 131.305 123.61C122.555 136.465 113.511 149.128 104.471 161.787L104.471 161.787L104.471 161.787L103.015 163.825C100.854 166.85 98.4047 169.669 95.9592 172.485C95.5579 172.947 95.1568 173.408 94.7571 173.871C94.1486 174.577 92.698 175.495 92.2797 175.245C91.2813 174.644 91.848 173.581 92.2789 172.772L92.2794 172.771C92.3314 172.673 92.3814 172.58 92.4264 172.491C92.9627 171.422 93.4923 170.348 94.022 169.274C95.9068 165.452 97.7934 161.626 99.9946 157.996C108.948 143.256 118.26 128.739 128.366 114.749C129.299 113.457 130.231 112.164 131.163 110.871L131.168 110.864C136.809 103.041 142.453 95.2127 148.294 87.5403C148.428 87.3645 148.562 87.1885 148.695 87.0125L148.914 86.7247L148.941 86.6895C152.571 81.9132 156.223 77.1079 160.92 73.2514C161.058 73.1386 161.195 73.0234 161.332 72.9081L161.332 72.9079C161.854 72.468 162.379 72.0258 162.969 71.703C163.408 71.4661 163.912 71.3501 164.416 71.2341C164.629 71.1852 164.842 71.1362 165.049 71.0782C165.046 71.306 165.065 71.5439 165.083 71.7821C165.124 72.2997 165.165 72.8184 164.979 73.2351C164.017 75.3943 162.98 77.5218 161.944 79.6467L161.944 79.6469L161.944 79.6471C161.622 80.3077 161.3 80.9681 160.98 81.6292C160.874 81.8478 160.751 82.0601 160.628 82.2729L160.628 82.2732L160.628 82.2737C160.525 82.4519 160.422 82.6305 160.328 82.8136C160.298 82.8737 160.303 82.9524 160.311 83.0849V83.0852C160.316 83.1681 160.323 83.272 160.323 83.4057C160.758 83.029 161.179 82.6617 161.591 82.3021C162.473 81.5311 163.315 80.7958 164.175 80.0807C169.211 75.8919 174.612 72.2952 180.995 70.5023C182.663 70.0351 184.462 69.8449 186.2 69.8341C188.075 69.8232 189.031 71.0402 188.911 72.9689C188.722 75.9816 187.286 78.5583 185.866 81.1055L185.717 81.3738C182.658 86.8774 178.795 91.8323 174.84 96.7112C174.65 96.9448 174.497 97.2056 174.481 97.6294C175.152 97.1852 175.815 96.726 176.478 96.2668L176.479 96.2664L176.48 96.2656C177.957 95.2422 179.434 94.2193 181.001 93.3645C183.626 91.9268 185.503 89.7707 187.389 87.6043L187.389 87.6042C187.919 86.9953 188.45 86.3856 188.998 85.7908C194.458 79.858 200.625 74.827 208.193 71.7574C209.568 71.1978 211.002 70.7197 212.452 70.4263C215.451 69.8178 218.287 71.0511 218.885 73.5285C219.238 74.9954 219.108 76.8753 218.467 78.2226C217.337 80.5969 215.843 82.857 214.164 84.889C209.051 91.0826 202.336 94.9835 194.904 97.7489C193.966 98.0973 193.012 98.402 192.058 98.7069L192.058 98.7069C191.078 99.0201 190.097 99.3333 189.134 99.6939C188.509 99.9275 187.868 100.406 187.482 100.949C186.151 102.818 185.086 104.834 184.57 107.251C187.379 107.376 189.878 106.626 192.28 105.594C199.631 102.443 206.433 98.3628 212.518 93.1743C216.739 89.5722 220.879 85.8669 224.976 82.1181C227.024 80.2492 228.453 78.076 228.176 75.0063C228.045 73.5394 228.36 71.8878 228.963 70.5349C229.474 69.3886 230.555 68.3346 231.636 67.65C232.761 66.9383 234.206 66.9383 235.282 68.0249C236.542 69.2962 237.075 70.8772 236.537 72.6212C236.178 73.773 235.668 74.9085 235.043 75.9462C233.82 77.9945 233.782 80.0101 234.793 82.1344C235.391 83.3949 235.972 84.6716 236.412 85.9919C237.173 88.2629 236.879 90.4741 235.526 92.4517C234.461 94.0133 233.348 95.5476 232.237 97.0798L232.236 97.0803L232.236 97.0809C231.704 97.8138 231.173 98.5463 230.648 99.281C230.338 99.7156 230.039 100.161 229.898 100.84C230.023 100.768 230.149 100.699 230.274 100.63L230.274 100.63C230.537 100.485 230.8 100.341 231.05 100.172C235.809 96.972 240.563 93.7719 245.311 90.5556C245.795 90.2296 246.235 89.8384 246.664 89.4418C247.79 88.4082 248.891 87.3426 249.993 86.2771L249.993 86.277C252.406 83.9428 254.818 81.6092 257.481 79.6135C262.909 75.5496 268.831 72.1866 275.66 70.9533C277.371 70.6436 279.175 70.6871 280.919 70.8012C281.837 70.8609 282.332 70.6219 282.826 69.9319C284.427 67.719 286.014 65.495 287.601 63.2707L287.606 63.2636C291.527 57.7684 295.448 52.2727 299.582 46.9448C306.653 37.8284 313.933 28.8696 321.21 19.914C322.476 18.3554 323.743 16.797 325.008 15.2378C326.204 13.7634 327.579 12.4311 328.951 11.1012L328.952 11.101C329.4 10.6666 329.848 10.2326 330.289 9.79389C330.541 9.54235 330.873 9.3714 331.205 9.20045L331.205 9.20017C331.361 9.12014 331.516 9.0401 331.664 8.95177C331.723 9.00338 331.784 9.05364 331.846 9.10389C331.907 9.15415 331.968 9.2044 332.028 9.25602C331.918 9.52059 331.814 9.78677 331.71 10.0527L331.709 10.0534L331.709 10.0543L331.709 10.0551C331.481 10.6348 331.254 11.2134 330.979 11.7715C327.529 18.8018 323.275 25.354 318.825 31.7704C309.388 45.3855 299.924 58.9952 290.253 72.4474C285.744 78.7204 281.063 84.8721 276.382 91.0231L276.378 91.0292L276.374 91.0333C274.194 93.8981 272.014 96.7628 269.852 99.6396C269.697 99.8463 269.562 100.066 269.427 100.285C269.363 100.389 269.299 100.493 269.233 100.596C269.263 100.628 269.293 100.66 269.322 100.691C269.35 100.719 269.377 100.748 269.404 100.777ZM244.834 105.441C244.957 105.537 245.08 105.634 245.208 105.735L245.958 105.206C258.771 96.1701 271.583 87.1345 280.072 73.3058C278.713 73.3927 277.366 73.5068 276.116 73.9034C269.624 75.9788 264.272 79.9884 259.736 84.8346C256.346 88.459 253.387 92.5004 250.436 96.5319L250.436 96.5322C249.759 97.4561 249.083 98.3795 248.403 99.2973C247.44 100.595 246.673 102.037 245.904 103.479C245.554 104.138 245.203 104.796 244.834 105.441ZM214.294 75.7995C209.013 77.0491 191.345 93.0276 190.867 96.8796C201.711 93.2558 209.703 86.6221 214.294 75.7995ZM42.5242 173.04C42.789 172.935 43.0516 172.825 43.314 172.715C43.8969 172.472 44.4782 172.229 45.0777 172.045C56.3023 168.655 66.2175 162.874 75.4102 155.697C85.1244 148.118 93.2848 139.002 101.369 129.804C107.97 122.295 113.881 114.26 119.624 106.094C121.761 103.055 123.848 99.9819 125.934 96.9094L125.934 96.9093L125.935 96.9086C126.84 95.5758 127.745 94.2432 128.654 92.9135C128.844 92.631 128.985 92.3213 128.952 91.816L128.679 92.0411L128.676 92.0432C128.273 92.3753 127.867 92.7087 127.469 93.0493C125.826 94.4581 124.183 95.8675 122.54 97.2768L122.533 97.2831C117.185 101.872 111.838 106.46 106.465 111.022C105.764 111.619 104.868 112.043 103.988 112.358C101.038 113.418 98.8808 111.685 99.1253 108.528C99.3698 105.344 100.608 102.481 102.141 99.77C106.579 91.9247 112.556 85.3942 119.591 79.7982C122.395 77.5707 125.302 75.5061 128.768 74.4195C129.431 74.2131 130.142 74.1479 130.974 74.2131C122.241 81.9015 116.108 91.5213 109.95 101.179L109.95 101.179L109.948 101.182C109.28 102.231 108.61 103.281 107.938 104.328C108.044 104.274 108.152 104.224 108.26 104.173C108.49 104.066 108.721 103.958 108.932 103.818C118.945 96.9937 128.61 89.746 137.52 81.4987C140.751 78.507 144.135 75.6782 147.518 72.8505L147.519 72.8501C148.676 71.883 149.833 70.916 150.983 69.9427C151.771 69.2799 152.684 68.7475 153.591 68.2531C153.829 68.121 154.14 68.12 154.45 68.1189C154.586 68.1185 154.722 68.118 154.852 68.1064C154.838 68.2368 154.837 68.3753 154.836 68.5141C154.835 68.8148 154.833 69.1166 154.7 69.3397C154.217 70.1389 153.742 70.9439 153.268 71.7491L153.268 71.7493C151.909 74.0531 150.55 76.3584 149 78.5323C140.487 90.4795 131.935 102.405 123.253 114.233C115.261 125.131 106.856 135.715 97.1694 145.184C87.4878 154.654 76.763 162.755 64.4735 168.568C58.1658 171.551 51.5375 173.681 44.4312 173.73C44.0291 173.73 43.6271 173.691 43.2251 173.652C43.0241 173.633 42.823 173.614 42.622 173.599C42.603 173.51 42.5854 173.419 42.5678 173.328L42.5677 173.328C42.55 173.237 42.5323 173.146 42.5133 173.056L42.5242 173.04ZM399.49 87.7092C399.659 87.5037 399.828 87.2981 400 87.0947V87.0893C399.963 87.0467 399.925 87.0054 399.888 86.9647C399.849 86.9225 399.811 86.8809 399.772 86.8394C399.618 86.9353 399.464 87.0289 399.31 87.1224C398.983 87.3205 398.657 87.5181 398.343 87.7358C397.067 88.6171 395.794 89.5025 394.522 90.3878C391.943 92.1822 389.365 93.976 386.76 95.7332C381.066 99.5744 375.285 103.269 368.858 105.806C366.636 106.681 364.365 107.354 361.458 107.202L361.552 107.005C362.426 105.169 363.197 103.548 363.974 101.932C364.609 100.607 365.544 99.7211 367.087 99.4168C368.116 99.2145 369.117 98.8413 370.112 98.4702C370.346 98.3828 370.58 98.2956 370.814 98.2107C378.029 95.6028 384.712 92.104 389.992 86.3885C392.356 83.8349 394.686 81.2217 395.855 77.8586C396.539 75.8919 396.925 73.8762 395.328 72.1051C393.703 70.3013 391.617 70.0405 389.357 70.4426C389.27 70.4589 389.177 70.4806 389.096 70.5132C388.31 70.8204 387.512 71.1037 386.713 71.387C384.956 72.0107 383.198 72.6343 381.577 73.5122C374.747 77.2121 368.983 82.2376 364.044 88.2303C359.796 93.3916 355.911 98.6779 354.982 105.61C354.526 109.028 355.922 111.766 359.225 112.733C362.626 113.733 365.843 112.755 368.755 111.223C372.976 109.001 377.138 106.588 381.05 103.861C387.314 99.4874 393.182 94.5923 398.403 88.98C398.782 88.5715 399.136 88.1406 399.49 87.7092ZM391.128 75.8376C385.516 77.7771 368.668 93.0874 368.081 96.7166C379.164 94.0381 389.465 83.2808 391.128 75.8376Z" fill="white"/>
</svg>
