<svg width="18" height="19" viewBox="0 0 18 19" fill="none" xmlns="http://www.w3.org/2000/svg">
<path d="M1.5 18.8102C1.1 18.8102 0.75 18.6602 0.45 18.3602C0.15 18.0602 0 17.7102 0 17.3102V2.31024C0 1.91024 0.15 1.56024 0.45 1.26024C0.75 0.960242 1.1 0.810242 1.5 0.810242H8.475V2.31024H1.5V17.3102H16.5V10.3352H18V17.3102C18 17.7102 17.85 18.0602 17.55 18.3602C17.25 18.6602 16.9 18.8102 16.5 18.8102H1.5ZM6.55 13.3352L5.5 12.2602L15.45 2.31024H9.975V0.810242H18V8.83524H16.5V3.38524L6.55 13.3352Z" fill="white"/>
</svg>
